<svg width="595" height="328" viewBox="0 0 595 328" fill="none" xmlns="http://www.w3.org/2000/svg">
<g clip-path="url(#clip0_52_375)">
<rect width="595" height="328" rx="10" fill="#94D989"/>
<path d="M474.305 247.166H120.718C120.569 247.166 120.426 247.107 120.321 247.002C120.215 246.897 120.156 246.755 120.156 246.606V30.8642C120.156 30.7155 120.215 30.5729 120.321 30.4678C120.426 30.3626 120.569 30.3036 120.718 30.3036H474.305C474.454 30.3036 474.597 30.3626 474.702 30.4678C474.807 30.5729 474.866 30.7155 474.866 30.8642V246.606C474.866 246.755 474.807 246.897 474.702 247.002C474.597 247.107 474.454 247.166 474.305 247.166ZM121.268 246.045H473.733V31.4247H121.268V246.045Z" fill="black"/>
<path d="M474.395 81.4165H120.605C120.456 81.4165 120.314 81.3575 120.208 81.2524C120.103 81.1472 120.044 81.0046 120.044 80.856C120.044 80.7073 120.103 80.5647 120.208 80.4596C120.314 80.3545 120.456 80.2954 120.605 80.2954H474.395C474.544 80.2954 474.686 80.3545 474.792 80.4596C474.897 80.5647 474.956 80.7073 474.956 80.856C474.956 81.0046 474.897 81.1472 474.792 81.2524C474.686 81.3575 474.544 81.4165 474.395 81.4165Z" fill="black"/>
<path d="M474.395 139.335H120.605C120.456 139.335 120.314 139.276 120.208 139.171C120.103 139.065 120.044 138.923 120.044 138.774C120.044 138.626 120.103 138.483 120.208 138.378C120.314 138.273 120.456 138.214 120.605 138.214H474.395C474.544 138.214 474.686 138.273 474.792 138.378C474.897 138.483 474.956 138.626 474.956 138.774C474.956 138.923 474.897 139.065 474.792 139.171C474.686 139.276 474.544 139.335 474.395 139.335Z" fill="black"/>
<path d="M474.395 197.186H120.605C120.456 197.186 120.314 197.127 120.208 197.022C120.103 196.917 120.044 196.774 120.044 196.625C120.044 196.477 120.103 196.334 120.208 196.229C120.314 196.124 120.456 196.065 120.605 196.065H474.395C474.544 196.065 474.686 196.124 474.792 196.229C474.897 196.334 474.956 196.477 474.956 196.625C474.956 196.774 474.897 196.917 474.792 197.022C474.686 197.127 474.544 197.186 474.395 197.186Z" fill="black"/>
<path d="M238.984 147.631C238.984 147.631 232.799 143.147 232.35 141.656C231.901 140.164 227.86 129.525 226.502 130.198C225.144 130.87 224.93 132.776 226.502 137.72C226.502 137.72 215.277 127.843 213.806 128.852C212.336 129.861 209.316 133.572 209.081 135.142C208.845 136.711 233.36 159.807 233.36 159.807" fill="white"/>
<path d="M233.36 160.356C233.231 160.351 233.107 160.299 233.012 160.211C223.785 151.51 208.317 136.667 208.576 135.063C208.834 133.46 211.943 129.458 213.515 128.426C215.086 127.395 221.148 132.417 225.514 136.184C224.504 132.417 224.751 130.5 226.277 129.738C226.391 129.684 226.516 129.656 226.642 129.656C226.768 129.656 226.893 129.684 227.007 129.738C229.005 130.59 232.81 141.398 232.844 141.499C233.113 142.396 236.773 145.389 239.287 147.228C239.341 147.267 239.386 147.317 239.421 147.375C239.455 147.432 239.478 147.496 239.488 147.562C239.498 147.628 239.495 147.695 239.479 147.76C239.462 147.825 239.434 147.886 239.394 147.94C239.354 147.993 239.304 148.039 239.247 148.073C239.189 148.108 239.126 148.13 239.06 148.14C238.993 148.15 238.926 148.147 238.861 148.131C238.796 148.115 238.735 148.086 238.681 148.046C237.626 147.273 232.339 143.349 231.867 141.801C231.138 139.436 227.793 131.33 226.659 130.702C225.907 131.128 225.346 132.373 226.996 137.563C227.03 137.67 227.028 137.786 226.99 137.892C226.951 137.997 226.878 138.087 226.783 138.146C226.695 138.217 226.586 138.255 226.474 138.255C226.362 138.255 226.253 138.217 226.165 138.146C221.148 133.74 215.097 129.177 214.053 129.334C212.628 130.332 209.777 133.931 209.563 135.254C210.001 136.723 224.594 150.95 233.686 159.515C233.779 159.612 233.831 159.74 233.831 159.874C233.831 160.008 233.779 160.137 233.686 160.233C233.595 160.311 233.48 160.354 233.36 160.356Z" fill="black"/>
<path d="M347.878 156.443C347.878 156.443 347.171 152.273 340.66 135.299C337.461 126.957 319.198 125.926 315.011 125.747C315.92 125.836 318.547 124.39 300.677 125.747C291.495 126.442 285.613 126.868 280.202 132.653C269.987 143.505 258.493 158.54 258.493 158.54L236.683 142.474L226.782 156.41C226.782 156.41 257.73 186.681 262.601 186.221C267.473 185.761 271.581 175.537 276.363 168.787L272.996 193.587L335.957 197.253L333.712 161.724L347.878 156.443Z" fill="black"/>
<path d="M297.489 128.437L298.05 192.13H315.696V124.951L297.489 128.437Z" fill="white"/>
<path d="M315.696 192.645H298.05C297.916 192.645 297.788 192.592 297.693 192.497C297.598 192.403 297.545 192.275 297.545 192.141L296.972 128.449C296.972 128.328 297.013 128.211 297.089 128.117C297.164 128.024 297.27 127.958 297.388 127.933L315.595 124.446C315.67 124.435 315.746 124.439 315.819 124.459C315.893 124.478 315.961 124.512 316.021 124.558C316.08 124.606 316.127 124.665 316.16 124.733C316.193 124.801 316.211 124.875 316.212 124.951V192.141C316.209 192.276 316.153 192.404 316.057 192.498C315.96 192.592 315.831 192.645 315.696 192.645ZM298.622 191.625H315.235V125.578L298.061 128.863L298.622 191.625Z" fill="black"/>
<path d="M294.054 169.292C293.956 169.293 293.859 169.266 293.776 169.215C293.692 169.163 293.625 169.089 293.583 169L285.905 152.99C285.86 152.914 285.837 152.827 285.837 152.738C285.837 152.65 285.86 152.563 285.905 152.486L290.788 145.299L286.028 141.79C285.92 141.711 285.846 141.594 285.823 141.462C285.8 141.33 285.829 141.195 285.905 141.084L293.583 129.872C293.62 129.817 293.668 129.77 293.724 129.733C293.78 129.697 293.843 129.671 293.908 129.659C293.974 129.646 294.041 129.647 294.107 129.66C294.172 129.674 294.234 129.7 294.29 129.738C294.345 129.775 294.392 129.823 294.429 129.879C294.466 129.935 294.491 129.998 294.504 130.063C294.516 130.129 294.515 130.196 294.502 130.262C294.488 130.327 294.462 130.389 294.424 130.444L287.027 141.308L291.798 144.817C291.903 144.896 291.974 145.012 291.995 145.142C292.016 145.272 291.986 145.405 291.91 145.512L286.96 152.789L294.514 168.485C294.572 168.608 294.578 168.749 294.532 168.877C294.486 169.005 294.391 169.11 294.267 169.168C294.208 169.227 294.135 169.27 294.054 169.292Z" fill="black"/>
<path d="M318.524 169.292C318.451 169.309 318.374 169.309 318.3 169.292C318.177 169.233 318.082 169.129 318.035 169.001C317.989 168.873 317.995 168.731 318.053 168.608L325.562 152.789L320.567 145.434C320.493 145.325 320.464 145.191 320.487 145.061C320.51 144.931 320.583 144.815 320.691 144.739L325.45 141.23L318.098 130.366C318.059 130.31 318.033 130.247 318.018 130.18C318.004 130.114 318.004 130.046 318.016 129.979C318.029 129.912 318.054 129.849 318.091 129.792C318.129 129.735 318.176 129.686 318.233 129.648C318.346 129.575 318.484 129.55 318.616 129.577C318.748 129.604 318.864 129.682 318.94 129.794L326.618 141.005C326.694 141.115 326.725 141.249 326.704 141.381C326.683 141.513 326.612 141.631 326.505 141.712L321.735 145.221L326.618 152.407C326.664 152.483 326.689 152.571 326.689 152.66C326.689 152.749 326.664 152.836 326.618 152.912L318.94 168.922C318.914 169.017 318.862 169.103 318.788 169.169C318.714 169.235 318.622 169.278 318.524 169.292Z" fill="black"/>
<path d="M322.363 108.705C322.015 108.705 322.902 104.725 322.958 104.467C323.295 102.685 323.969 100.633 324.204 98.8615C325.484 88.8273 319.613 85.5199 319.613 85.5199C320.055 84.5316 320.372 83.4921 320.556 82.4256L315.819 82.9637L317.121 78.9276L292.292 88.3564C291.864 88.4767 291.477 88.709 291.169 89.0291C290.943 89.3622 290.807 89.7487 290.776 90.1503C289.543 97.2079 289.857 104.449 291.697 111.374L322.363 108.705Z" fill="white"/>
<path d="M291.697 111.878C291.566 111.879 291.439 111.834 291.337 111.753C291.235 111.671 291.164 111.557 291.135 111.43C289.284 104.438 288.966 97.1299 290.204 90.0045C290.262 89.5273 290.44 89.0724 290.72 88.6816C291.091 88.2871 291.56 87.9971 292.078 87.8407L316.908 78.4119C317.01 78.3735 317.121 78.3645 317.228 78.3859C317.335 78.4073 317.434 78.4583 317.514 78.533C317.593 78.6078 317.65 78.7033 317.678 78.8087C317.706 78.9141 317.703 79.0253 317.671 79.1295L316.639 82.3135L320.5 81.8763C320.584 81.8654 320.669 81.874 320.748 81.9012C320.828 81.9284 320.901 81.9736 320.96 82.0332C321.022 82.0921 321.07 82.1637 321.101 82.2431C321.132 82.3226 321.145 82.4078 321.14 82.4929C320.997 83.4698 320.725 84.4235 320.332 85.3294C321.735 86.3384 325.944 90.1615 324.822 98.9625C324.642 100.097 324.399 101.219 324.092 102.326C323.901 103.099 323.71 103.862 323.564 104.568V104.792C323.271 105.983 323.065 107.193 322.947 108.414C322.997 108.498 323.024 108.594 323.027 108.692C323.029 108.79 323.007 108.887 322.962 108.974C322.918 109.061 322.852 109.135 322.771 109.19C322.689 109.245 322.596 109.279 322.498 109.288L291.831 111.878H291.697ZM316.201 79.9142L292.494 88.8834C292.169 88.9733 291.872 89.1428 291.629 89.3767C291.469 89.622 291.373 89.9033 291.349 90.1951C290.158 97.0059 290.429 103.992 292.146 110.69L321.712 108.189C321.852 106.968 322.062 105.755 322.341 104.557V104.366C322.487 103.626 322.678 102.842 322.88 102.046C323.178 100.973 323.41 99.8837 323.576 98.7831C324.799 89.287 319.512 86.1366 319.288 86.0133C319.164 85.9404 319.071 85.8254 319.026 85.6894C318.98 85.5534 318.986 85.4057 319.041 85.2733C319.357 84.5471 319.616 83.7974 319.815 83.031L315.842 83.4795C315.745 83.491 315.646 83.4774 315.556 83.4402C315.465 83.4029 315.386 83.3431 315.325 83.2665C315.263 83.1934 315.221 83.1053 315.203 83.0109C315.185 82.9164 315.192 82.819 315.224 82.7283L316.201 79.9142Z" fill="black"/>
<path d="M317.817 108.212C318.659 102.999 327.314 101.72 326.887 107.864C326.818 109.997 325.999 112.037 324.575 113.627C323.85 114.401 322.912 114.943 321.879 115.184C320.846 115.426 319.765 115.356 318.771 114.984" fill="white"/>
<path d="M320.567 115.937C319.867 115.944 319.174 115.798 318.536 115.511C318.466 115.48 318.404 115.435 318.352 115.38C318.3 115.325 318.259 115.261 318.232 115.19C318.205 115.119 318.192 115.043 318.194 114.968C318.196 114.892 318.213 114.817 318.244 114.748C318.275 114.679 318.319 114.617 318.374 114.564C318.429 114.512 318.494 114.472 318.565 114.445C318.636 114.417 318.711 114.405 318.787 114.407C318.863 114.409 318.938 114.426 319.007 114.457C319.893 114.777 320.853 114.831 321.768 114.611C322.684 114.392 323.515 113.91 324.159 113.223C325.491 111.732 326.251 109.817 326.303 107.819C326.449 105.824 325.518 104.557 323.767 104.366C322.542 104.246 321.317 104.581 320.325 105.307C319.333 106.033 318.644 107.1 318.39 108.302C318.365 108.453 318.282 108.588 318.158 108.678C318.034 108.768 317.879 108.806 317.728 108.784C317.576 108.759 317.441 108.676 317.35 108.552C317.26 108.428 317.222 108.274 317.245 108.122C317.542 106.622 318.389 105.287 319.62 104.379C320.852 103.47 322.379 103.054 323.901 103.212C325.765 103.425 327.684 104.77 327.46 107.898C327.385 110.169 326.51 112.34 324.99 114.031C323.827 115.226 322.236 115.912 320.567 115.937Z" fill="black"/>
<path d="M296.243 108.212C295.401 102.999 286.746 101.72 287.173 107.864C287.222 109.989 288.017 112.028 289.418 113.627C290.145 114.401 291.085 114.942 292.12 115.183C293.154 115.425 294.237 115.355 295.233 114.984" fill="white"/>
<path d="M293.481 115.937C292.657 115.925 291.842 115.751 291.085 115.424C290.328 115.097 289.643 114.623 289.07 114.031C287.547 112.341 286.669 110.17 286.589 107.898C286.376 104.77 288.295 103.413 290.159 103.212C291.682 103.051 293.21 103.467 294.442 104.375C295.674 105.284 296.521 106.621 296.815 108.122C296.849 108.204 296.863 108.291 296.858 108.379C296.852 108.467 296.827 108.552 296.784 108.628C296.741 108.705 296.681 108.771 296.609 108.821C296.537 108.871 296.454 108.905 296.367 108.919C296.28 108.932 296.192 108.927 296.107 108.901C296.023 108.876 295.946 108.832 295.881 108.773C295.816 108.713 295.765 108.64 295.733 108.559C295.7 108.477 295.687 108.389 295.693 108.302C295.437 107.101 294.747 106.036 293.755 105.31C292.764 104.585 291.54 104.249 290.316 104.366C288.554 104.557 287.633 105.824 287.768 107.82C287.831 109.815 288.589 111.726 289.912 113.223C290.558 113.911 291.391 114.394 292.309 114.613C293.226 114.832 294.188 114.778 295.075 114.457C295.215 114.394 295.374 114.39 295.517 114.445C295.661 114.499 295.776 114.608 295.839 114.748C295.901 114.888 295.906 115.047 295.851 115.19C295.796 115.333 295.687 115.448 295.547 115.511C294.897 115.8 294.193 115.946 293.481 115.937Z" fill="black"/>
<path d="M297.5 132.216C297.5 132.216 299.352 139.346 306.188 139.346C308.067 139.416 309.929 138.97 311.571 138.057C313.214 137.143 314.574 135.798 315.505 134.166L316.134 112.573L297.5 111.99V132.216Z" fill="white"/>
<path d="M306.177 139.929C298.97 139.929 296.95 132.44 296.928 132.361C296.921 132.313 296.921 132.264 296.928 132.216V112.035C296.928 111.957 296.945 111.881 296.975 111.809C297.006 111.738 297.051 111.674 297.107 111.62C297.221 111.518 297.369 111.462 297.522 111.463L316.156 112.035C316.232 112.036 316.307 112.053 316.377 112.084C316.446 112.115 316.509 112.159 316.562 112.214C316.614 112.27 316.655 112.335 316.681 112.406C316.708 112.477 316.72 112.553 316.717 112.629L316.1 134.222C316.093 134.303 316.074 134.383 316.044 134.458C315.064 136.19 313.624 137.618 311.883 138.583C310.141 139.549 308.167 140.015 306.177 139.929ZM298.061 132.081C298.275 132.832 300.149 138.718 306.177 138.718C307.928 138.777 309.663 138.366 311.2 137.528C312.738 136.69 314.023 135.456 314.921 133.953L315.527 113.078L298.061 112.54V132.081Z" fill="black"/>
<path d="M296.86 120.096C297.025 121.057 297.38 121.976 297.904 122.798C299.215 124.695 300.978 126.236 303.034 127.283C306.401 129.144 311.419 131.229 315.494 130.646L314.82 122.181C311.837 122.534 308.823 122.534 305.84 122.181C303.193 122.086 300.577 121.583 298.084 120.69C297.657 120.511 297.253 120.275 296.86 120.096Z" fill="black"/>
<path d="M313.945 131.274C309.78 131.274 305.256 129.155 302.72 127.776C300.575 126.688 298.74 125.076 297.388 123.089C296.827 122.208 296.445 121.225 296.265 120.197C296.243 120.093 296.253 119.986 296.293 119.888C296.333 119.79 296.401 119.706 296.49 119.648C296.578 119.591 296.682 119.56 296.787 119.56C296.893 119.56 296.996 119.591 297.085 119.648C297.466 119.861 297.848 120.04 298.207 120.219C300.644 121.087 303.199 121.579 305.784 121.677C308.73 122.025 311.706 122.025 314.652 121.677C314.807 121.656 314.964 121.697 315.09 121.789C315.204 121.89 315.276 122.03 315.292 122.181L315.965 130.646C315.976 130.787 315.933 130.928 315.846 131.039C315.759 131.151 315.633 131.227 315.494 131.251C314.978 131.294 314.461 131.302 313.945 131.274ZM297.713 121.184C297.884 121.655 298.106 122.106 298.375 122.529C299.632 124.353 301.326 125.833 303.303 126.834C305.896 128.258 310.768 130.545 314.899 130.198L314.315 122.843C311.476 123.153 308.612 123.153 305.773 122.843C303.068 122.736 300.396 122.218 297.848 121.307L297.713 121.184Z" fill="black"/>
<path d="M305.93 124.132H307.333C310.504 124.132 313.544 122.874 315.786 120.635C318.028 118.396 319.288 115.359 319.288 112.192V98.1328C319.288 97.5714 319.156 97.0177 318.903 96.5164C318.65 96.0151 318.283 95.5801 317.831 95.2464C317.379 94.9127 316.855 94.6896 316.301 94.595C315.746 94.5005 315.178 94.5372 314.641 94.7021L306.626 97.1462L298.622 94.7021C298.085 94.5372 297.517 94.5005 296.963 94.595C296.408 94.6896 295.884 94.9127 295.432 95.2464C294.98 95.5801 294.613 96.0151 294.36 96.5164C294.107 97.0177 293.975 97.5714 293.975 98.1328V112.192C293.975 115.359 295.235 118.396 297.477 120.635C299.719 122.874 302.759 124.132 305.93 124.132Z" fill="white"/>
<path d="M315.696 94.5451C316.648 94.5451 317.562 94.9231 318.236 95.5959C318.909 96.2687 319.288 97.1813 319.288 98.1328V112.192C319.288 115.359 318.028 118.396 315.786 120.635C313.544 122.874 310.504 124.132 307.333 124.132H305.93C302.759 124.132 299.719 122.874 297.477 120.635C295.235 118.396 293.975 115.359 293.975 112.192V98.1328C293.975 97.1813 294.354 96.2687 295.027 95.5959C295.701 94.9231 296.615 94.5451 297.567 94.5451C297.925 94.5431 298.281 94.5961 298.623 94.7021L306.626 97.1462L314.641 94.7021C314.982 94.5961 315.338 94.5431 315.696 94.5451ZM315.696 93.424C315.224 93.4273 314.755 93.499 314.304 93.637L306.626 95.9802L298.959 93.5921C298.508 93.4542 298.039 93.3824 297.567 93.3791C296.307 93.3821 295.099 93.8842 294.209 94.7754C293.319 95.6666 292.819 96.874 292.819 98.1328V112.192C292.822 115.664 294.204 118.993 296.663 121.448C299.121 123.903 302.454 125.284 305.93 125.287H307.333C310.809 125.284 314.142 123.903 316.601 121.448C319.059 118.993 320.441 115.664 320.444 112.192V98.1328C320.444 96.8729 319.944 95.6644 319.055 94.7714C318.165 93.8785 316.957 93.3738 315.696 93.3679V93.424Z" fill="black"/>
<path d="M306.817 112.573C306.235 112.576 305.654 112.543 305.077 112.472C304.92 112.452 304.769 112.395 304.637 112.308C304.505 112.221 304.394 112.104 304.314 111.968C303.393 110.432 305.537 104.535 306.222 102.763C306.249 102.689 306.291 102.622 306.344 102.564C306.397 102.507 306.462 102.46 306.533 102.427C306.604 102.395 306.682 102.376 306.76 102.373C306.839 102.37 306.917 102.383 306.991 102.41C307.064 102.437 307.132 102.479 307.19 102.532C307.247 102.585 307.294 102.649 307.327 102.721C307.36 102.792 307.378 102.869 307.381 102.948C307.384 103.026 307.372 103.104 307.344 103.178C305.863 107.057 304.942 110.802 305.346 111.373C306.425 111.475 307.511 111.475 308.59 111.373C308.665 111.362 308.741 111.367 308.814 111.386C308.887 111.405 308.955 111.438 309.015 111.484C309.075 111.53 309.125 111.588 309.162 111.654C309.199 111.719 309.222 111.792 309.23 111.867C309.241 111.942 309.237 112.019 309.218 112.092C309.199 112.166 309.166 112.235 309.12 112.295C309.074 112.356 309.016 112.407 308.95 112.445C308.885 112.483 308.812 112.507 308.736 112.517C308.098 112.576 307.457 112.594 306.817 112.573Z" fill="black"/>
<path d="M307.479 120.275C305.711 120.203 303.986 119.707 302.45 118.829C302.324 118.752 302.231 118.63 302.192 118.488C302.152 118.345 302.168 118.193 302.237 118.062C302.305 117.931 302.421 117.83 302.561 117.781C302.7 117.732 302.853 117.738 302.989 117.798C305.346 119.042 307.367 119.401 308.994 118.919C309.94 118.627 310.742 117.991 311.239 117.136C311.311 117 311.434 116.897 311.581 116.851C311.729 116.805 311.888 116.819 312.025 116.89C312.16 116.957 312.263 117.075 312.311 117.218C312.36 117.36 312.35 117.517 312.283 117.652C311.641 118.784 310.588 119.627 309.342 120.006C308.739 120.19 308.11 120.281 307.479 120.275Z" fill="black"/>
<path d="M312.168 103.482C312.563 103.456 312.836 102.698 312.776 101.79C312.716 100.882 312.346 100.167 311.95 100.193C311.554 100.219 311.282 100.976 311.342 101.884C311.402 102.793 311.772 103.508 312.168 103.482Z" fill="black"/>
<path d="M302.439 103.556C302.835 103.528 303.105 102.768 303.042 101.858C302.978 100.947 302.604 100.232 302.208 100.26C301.811 100.287 301.541 101.048 301.605 101.958C301.669 102.868 302.042 103.584 302.439 103.556Z" fill="black"/>
<path d="M264.341 163.888C264.226 163.89 264.115 163.85 264.027 163.776L240.657 146.062C240.549 145.979 240.478 145.858 240.459 145.724C240.44 145.589 240.475 145.453 240.556 145.344C240.596 145.29 240.647 145.245 240.706 145.212C240.764 145.178 240.829 145.156 240.896 145.148C240.963 145.139 241.031 145.145 241.096 145.163C241.161 145.181 241.221 145.212 241.274 145.254L264.644 163.002C264.752 163.084 264.823 163.206 264.842 163.34C264.861 163.474 264.826 163.611 264.745 163.72C264.695 163.776 264.633 163.821 264.563 163.85C264.493 163.879 264.417 163.892 264.341 163.888Z" fill="black"/>
<path d="M225.11 143.999C225 143.999 224.893 143.965 224.804 143.9C224.715 143.836 224.649 143.745 224.616 143.64C223.157 139.021 226.232 137.283 226.266 137.272C226.383 137.225 226.513 137.223 226.632 137.265C226.75 137.308 226.849 137.392 226.91 137.502C226.971 137.613 226.989 137.741 226.961 137.864C226.934 137.987 226.862 138.095 226.76 138.169C226.648 138.225 224.403 139.548 225.637 143.326C225.68 143.455 225.67 143.596 225.609 143.718C225.548 143.84 225.441 143.933 225.312 143.976L225.11 143.999Z" fill="black"/>
<path d="M416.317 202.309H178.683V276.406C255.482 304.02 339.518 304.02 416.317 276.406V202.309Z" fill="white"/>
<path d="M297.5 297.64C256.94 297.653 216.683 290.651 178.515 276.944C178.412 276.907 178.322 276.84 178.256 276.753C178.19 276.665 178.151 276.56 178.145 276.451V202.309C178.145 202.161 178.204 202.018 178.309 201.913C178.414 201.808 178.557 201.749 178.706 201.749H416.339C416.488 201.749 416.631 201.808 416.736 201.913C416.841 202.018 416.9 202.161 416.9 202.309V276.406C416.903 276.522 416.867 276.636 416.799 276.731C416.737 276.831 416.642 276.907 416.53 276.944C378.347 290.656 338.075 297.658 297.5 297.64ZM179.245 276.025C255.707 303.358 339.293 303.358 415.755 276.025V202.87H179.245V276.025Z" fill="black"/>
<path d="M416.317 202.309C339.518 229.924 255.482 229.924 178.683 202.309L220.631 177.454C270.331 195.324 324.714 195.324 374.414 177.454L416.317 202.309Z" fill="white"/>
<path d="M297.5 223.533C256.94 223.545 216.683 216.543 178.515 202.836C178.414 202.799 178.326 202.734 178.26 202.649C178.195 202.563 178.155 202.461 178.145 202.354C178.136 202.249 178.157 202.143 178.207 202.05C178.257 201.956 178.333 201.879 178.425 201.827L220.373 177.017C220.446 176.981 220.527 176.962 220.609 176.962C220.69 176.962 220.771 176.981 220.844 177.017C270.413 194.798 324.632 194.798 374.2 177.017C374.274 176.981 374.355 176.962 374.436 176.962C374.518 176.962 374.598 176.981 374.672 177.017L416.62 201.827C416.712 201.879 416.788 201.956 416.838 202.05C416.888 202.143 416.909 202.249 416.9 202.354C416.89 202.461 416.85 202.563 416.785 202.649C416.719 202.734 416.631 202.799 416.53 202.836C378.348 216.548 338.076 223.551 297.5 223.533ZM179.997 202.231C256.006 229.195 338.994 229.195 415.003 202.231L374.301 178.16C324.642 195.908 270.358 195.908 220.699 178.16L179.997 202.231Z" fill="black"/>
<path d="M416.317 202.309C339.518 229.924 255.482 229.924 178.683 202.309L220.631 177.454C270.331 195.324 324.714 195.324 374.414 177.454L416.317 202.309Z" fill="white"/>
<path d="M297.5 223.533C256.94 223.545 216.683 216.543 178.515 202.836C178.414 202.799 178.326 202.734 178.26 202.649C178.195 202.563 178.155 202.461 178.145 202.354C178.136 202.249 178.157 202.143 178.207 202.05C178.257 201.956 178.333 201.879 178.425 201.827L220.373 177.017C220.446 176.981 220.527 176.962 220.609 176.962C220.69 176.962 220.771 176.981 220.844 177.017C270.413 194.798 324.632 194.798 374.2 177.017C374.274 176.981 374.355 176.962 374.436 176.962C374.518 176.962 374.598 176.981 374.672 177.017L416.62 201.827C416.712 201.879 416.788 201.956 416.838 202.05C416.888 202.143 416.909 202.249 416.9 202.354C416.89 202.461 416.85 202.563 416.785 202.649C416.719 202.734 416.631 202.799 416.53 202.836C378.348 216.548 338.076 223.551 297.5 223.533ZM179.997 202.231C256.006 229.195 338.994 229.195 415.003 202.231L374.301 178.16C324.642 195.908 270.358 195.908 220.699 178.16L179.997 202.231Z" fill="black"/>
<path d="M379.51 208.117C379.399 208.116 379.29 208.085 379.196 208.027L355.713 192.466C355.622 192.408 355.551 192.325 355.506 192.227C355.462 192.129 355.446 192.021 355.461 191.915C355.477 191.808 355.522 191.709 355.593 191.627C355.663 191.546 355.756 191.487 355.859 191.457L378.365 184.618C378.44 184.596 378.519 184.59 378.597 184.602C378.674 184.614 378.748 184.642 378.814 184.685L403.273 199.417C403.364 199.472 403.437 199.553 403.484 199.648C403.531 199.744 403.55 199.851 403.538 199.957C403.526 200.063 403.485 200.163 403.418 200.246C403.351 200.329 403.262 200.392 403.161 200.426L379.678 208.095L379.51 208.117ZM357.329 192.186L379.588 206.94L401.646 199.742L378.443 185.773L357.329 192.186Z" fill="black"/>
<path d="M253.666 210.113L270.818 194.058L224.695 190.347L208.07 205.045L253.666 210.113Z" fill="black"/>
<path d="M253.722 210.673H253.655L208.059 205.617C207.951 205.603 207.85 205.559 207.766 205.489C207.683 205.42 207.621 205.328 207.588 205.224C207.555 205.121 207.554 205.011 207.584 204.908C207.614 204.804 207.674 204.711 207.756 204.641L224.38 189.943C224.437 189.894 224.503 189.856 224.574 189.833C224.646 189.81 224.721 189.802 224.796 189.809L270.919 193.52C271.028 193.524 271.133 193.562 271.219 193.628C271.306 193.694 271.37 193.786 271.402 193.89C271.438 193.992 271.443 194.103 271.417 194.208C271.391 194.314 271.335 194.41 271.256 194.484L254.104 210.527C253.999 210.621 253.863 210.673 253.722 210.673ZM209.44 204.63L253.52 209.53L269.572 194.518L224.885 190.907L209.44 204.63Z" fill="black"/>
<path d="M253.666 210.113L245.068 174.09L200.314 170.592L208.07 205.045L253.666 210.113Z" fill="white"/>
<path d="M253.723 210.673H253.655L208.059 205.606C207.943 205.592 207.834 205.543 207.748 205.464C207.661 205.386 207.601 205.282 207.577 205.168L199.764 170.727C199.747 170.641 199.749 170.552 199.77 170.466C199.792 170.381 199.832 170.302 199.887 170.234C199.947 170.168 200.02 170.117 200.101 170.084C200.183 170.051 200.271 170.037 200.359 170.043L245.113 173.541C245.231 173.551 245.343 173.597 245.433 173.674C245.524 173.75 245.588 173.852 245.618 173.967L254.205 209.967C254.228 210.055 254.228 210.147 254.207 210.235C254.185 210.323 254.142 210.404 254.082 210.471C253.994 210.584 253.864 210.656 253.723 210.673ZM208.587 204.541L252.982 209.462L244.675 174.617L201.089 171.254L208.587 204.541Z" fill="black"/>
<path d="M300.632 183.99C297.264 183.463 294.043 182.869 290.585 183.665C289.147 184.016 287.742 184.492 286.387 185.089L277.508 188.665C275.69 189.405 274.825 190.022 275.263 191.715C275.393 192.323 275.719 192.872 276.191 193.277C276.664 193.683 277.257 193.921 277.879 193.957C281.181 194.277 284.512 194.145 287.779 193.565C287.779 193.565 285.534 195.145 287.779 195.471C290.024 195.796 303.068 194.035 303.068 194.035" fill="white"/>
<path d="M288.52 196.087C288.24 196.108 287.958 196.108 287.678 196.087C286.859 195.964 286.387 195.661 286.264 195.168C286.21 194.908 286.25 194.638 286.376 194.405C283.534 194.795 280.656 194.852 277.8 194.574C277.066 194.525 276.368 194.239 275.812 193.757C275.257 193.275 274.875 192.625 274.724 191.905C274.231 189.719 275.611 188.968 277.329 188.273L286.208 184.663C287.586 184.048 289.018 183.561 290.484 183.205C293.942 182.465 297.096 182.959 300.43 183.485H300.722C300.795 183.488 300.867 183.506 300.933 183.539C300.998 183.572 301.056 183.618 301.103 183.675C301.149 183.732 301.183 183.798 301.202 183.868C301.221 183.939 301.224 184.013 301.212 184.086C301.2 184.158 301.173 184.227 301.132 184.288C301.091 184.349 301.038 184.4 300.975 184.439C300.913 184.478 300.843 184.503 300.77 184.512C300.697 184.522 300.623 184.516 300.553 184.495H300.273C297.029 183.99 293.975 183.497 290.709 184.203C289.298 184.552 287.92 185.021 286.589 185.604L277.71 189.215C275.813 189.988 275.465 190.448 275.724 191.681C275.825 192.187 276.091 192.646 276.481 192.985C276.871 193.324 277.363 193.524 277.879 193.553C281.143 193.88 284.438 193.751 287.667 193.172C287.783 193.145 287.906 193.16 288.012 193.215C288.118 193.27 288.202 193.36 288.247 193.47C288.293 193.581 288.298 193.704 288.262 193.817C288.226 193.931 288.15 194.028 288.049 194.092C287.72 194.302 287.45 194.591 287.263 194.932C287.443 195.003 287.632 195.052 287.824 195.078C289.541 195.325 298.477 194.248 302.967 193.643C303.033 193.634 303.1 193.639 303.165 193.656C303.23 193.673 303.29 193.703 303.343 193.743C303.397 193.784 303.441 193.835 303.475 193.892C303.508 193.95 303.53 194.014 303.539 194.08C303.548 194.147 303.544 194.214 303.526 194.278C303.509 194.343 303.479 194.404 303.439 194.457C303.398 194.51 303.347 194.554 303.289 194.588C303.232 194.621 303.168 194.643 303.101 194.652C302.607 194.675 292.112 196.087 288.52 196.087Z" fill="black"/>
<path d="M347.878 156.443C347.878 156.443 355.915 194.08 352.727 195.583C340.099 201.525 296.041 196.446 296.041 196.446L296.366 181.871L333.409 179.461L333.633 158.91L347.878 156.443Z" fill="black"/>
<path d="M307.468 181.692C307.339 181.695 307.213 181.647 307.119 181.559C307.025 181.471 306.968 181.35 306.963 181.221C306.957 181.154 306.964 181.086 306.984 181.022C307.005 180.957 307.038 180.898 307.082 180.847C307.126 180.795 307.18 180.753 307.24 180.723C307.301 180.693 307.367 180.676 307.434 180.671L332.836 179.023L330.591 145.658C330.6 145.533 330.653 145.416 330.741 145.327C330.83 145.239 330.948 145.186 331.073 145.178C331.197 145.169 331.321 145.207 331.42 145.283C331.52 145.359 331.588 145.468 331.613 145.591L333.858 179.461C333.863 179.527 333.855 179.595 333.834 179.658C333.813 179.722 333.779 179.78 333.734 179.831C333.692 179.883 333.639 179.926 333.579 179.957C333.519 179.988 333.454 180.006 333.386 180.01L307.468 181.692Z" fill="black"/>
<path d="M379.106 203.341C378.987 203.342 378.871 203.306 378.774 203.238C378.678 203.169 378.605 203.072 378.567 202.96C378.543 202.89 378.533 202.816 378.538 202.742C378.543 202.668 378.562 202.596 378.596 202.53C378.63 202.464 378.676 202.406 378.733 202.358C378.79 202.311 378.855 202.275 378.926 202.253L393.844 197.197C393.987 197.154 394.141 197.167 394.275 197.233C394.409 197.3 394.512 197.416 394.563 197.556C394.587 197.626 394.597 197.7 394.592 197.774C394.587 197.847 394.567 197.919 394.534 197.985C394.5 198.051 394.454 198.11 394.397 198.157C394.34 198.205 394.274 198.241 394.203 198.262L379.285 203.319L379.106 203.341Z" fill="black"/>
<path d="M374.706 200.347C374.632 200.359 374.557 200.356 374.484 200.339C374.411 200.322 374.343 200.29 374.282 200.247C374.222 200.203 374.171 200.148 374.132 200.084C374.092 200.021 374.066 199.95 374.055 199.877C374.043 199.803 374.046 199.728 374.063 199.655C374.08 199.583 374.112 199.514 374.155 199.454C374.199 199.394 374.254 199.342 374.318 199.303C374.382 199.264 374.452 199.238 374.526 199.226L389.455 194.181C389.595 194.135 389.748 194.145 389.88 194.21C390.012 194.275 390.114 194.39 390.162 194.529C390.209 194.67 390.199 194.824 390.134 194.958C390.069 195.092 389.955 195.195 389.814 195.246L374.885 200.291C374.829 200.321 374.768 200.34 374.706 200.347Z" fill="black"/>
<path d="M370.395 197.814C370.321 197.825 370.246 197.823 370.174 197.805C370.101 197.788 370.032 197.757 369.972 197.713C369.912 197.669 369.86 197.614 369.821 197.55C369.782 197.487 369.756 197.416 369.744 197.343C369.732 197.269 369.735 197.194 369.752 197.121C369.77 197.049 369.801 196.981 369.845 196.92C369.889 196.86 369.944 196.809 370.008 196.77C370.071 196.73 370.142 196.704 370.216 196.693L385.145 191.647C385.279 191.619 385.419 191.641 385.539 191.708C385.658 191.776 385.749 191.885 385.793 192.015C385.837 192.145 385.832 192.286 385.779 192.413C385.726 192.539 385.628 192.642 385.504 192.701L370.575 197.758C370.519 197.788 370.458 197.808 370.395 197.814Z" fill="black"/>
<path d="M370.968 193.71C370.894 193.722 370.819 193.719 370.746 193.702C370.673 193.685 370.605 193.653 370.544 193.61C370.484 193.566 370.433 193.511 370.394 193.447C370.355 193.384 370.328 193.313 370.317 193.239C370.305 193.166 370.308 193.091 370.325 193.018C370.342 192.946 370.374 192.877 370.417 192.817C370.461 192.756 370.517 192.705 370.58 192.666C370.644 192.627 370.714 192.601 370.788 192.589L381.036 189.114C381.178 189.071 381.331 189.084 381.462 189.151C381.594 189.218 381.695 189.333 381.744 189.472C381.79 189.612 381.78 189.765 381.715 189.897C381.65 190.029 381.535 190.13 381.396 190.179L371.147 193.643C371.092 193.677 371.031 193.7 370.968 193.71Z" fill="black"/>
<path d="M230.15 233.578C233.518 234.374 236.885 235.125 240.196 235.82C244.971 244.655 249.756 253.366 254.553 261.954H254.643V238.41C257.135 238.791 259.631 239.139 262.13 239.453V273.379C258.867 272.96 255.608 272.489 252.353 271.966C247.429 263.131 242.524 254.162 237.637 245.059H237.536V269.208C235.067 268.685 232.605 268.124 230.15 267.526V233.578Z" fill="black"/>
<path d="M269.303 240.238C277.026 241.03 284.763 241.52 292.516 241.706V248.602C287.285 248.478 282.043 248.209 276.801 247.817V254.14C281.725 254.514 286.668 254.768 291.629 254.902V261.809C286.683 261.674 281.74 261.416 276.801 261.035V267.93C282.309 268.356 287.832 268.629 293.369 268.748V275.643C285.317 275.479 277.288 274.986 269.28 274.164L269.303 240.238Z" fill="black"/>
<path d="M295.85 241.785C298.589 241.785 301.328 241.785 304.067 241.785C305.892 249.005 307.715 256.21 309.533 263.401H309.634C312.014 256.068 314.397 248.71 316.784 241.325C319.104 241.191 321.435 241.03 323.778 240.843C326.135 248.101 328.496 255.325 330.861 262.515H330.95C332.859 254.876 334.767 247.215 336.675 239.531C339.205 239.218 341.73 238.87 344.252 238.489C340.952 250.298 337.641 262.048 334.318 273.738C332.073 273.992 329.828 274.227 327.583 274.444C325.083 266.85 322.577 259.226 320.062 251.573H319.972C317.458 259.563 314.947 267.526 312.44 275.464C310.274 275.554 308.119 275.621 305.964 275.666C302.604 264.432 299.232 253.138 295.85 241.785Z" fill="black"/>
<path d="M364.255 243.041C363.595 242.4 362.735 242.004 361.819 241.92C360.854 241.75 359.866 241.75 358.901 241.92C358.33 242.037 357.773 242.213 357.239 242.446C356.663 242.685 356.117 242.99 355.612 243.355C355.12 243.709 354.701 244.154 354.377 244.666C354.06 245.182 353.896 245.777 353.906 246.382C353.868 246.808 353.954 247.237 354.153 247.616C354.352 247.996 354.656 248.311 355.028 248.523C355.932 248.961 356.903 249.242 357.902 249.353C359.024 249.498 360.304 249.633 361.628 249.734C362.903 249.822 364.158 250.094 365.355 250.541C366.494 250.98 367.483 251.734 368.206 252.716C369.057 254.05 369.451 255.624 369.329 257.201C369.349 258.984 368.997 260.752 368.296 262.392C367.62 263.936 366.665 265.342 365.479 266.54C364.278 267.747 362.886 268.747 361.359 269.5C359.787 270.286 358.114 270.852 356.386 271.181C354.38 271.603 352.312 271.641 350.291 271.294C348.368 270.924 346.562 270.097 345.027 268.883C346.8 266.641 348.57 264.398 350.336 262.156C351.097 263.043 352.099 263.689 353.221 264.017C354.39 264.367 355.629 264.421 356.824 264.174C357.454 264.049 358.068 263.853 358.654 263.591C359.261 263.358 359.835 263.045 360.36 262.661C360.834 262.287 361.237 261.832 361.55 261.315C361.845 260.804 361.999 260.224 361.999 259.634C362.043 259.201 361.96 258.766 361.761 258.38C361.562 257.994 361.254 257.674 360.876 257.459C359.964 256.989 358.976 256.682 357.958 256.55C356.779 256.371 355.511 256.203 354.153 256.035C352.838 255.891 351.552 255.555 350.336 255.037C349.02 254.525 347.907 253.599 347.164 252.4C346.421 251.201 346.088 249.793 346.216 248.389C346.214 246.67 346.597 244.973 347.339 243.422C348.049 241.949 349.023 240.619 350.213 239.498C351.431 238.352 352.821 237.403 354.332 236.684C355.858 235.938 357.472 235.387 359.136 235.047C360.948 234.67 362.803 234.549 364.648 234.688C366.35 234.822 367.99 235.381 369.419 236.314C367.667 238.564 365.946 240.806 364.255 243.041Z" fill="black"/>
<path d="M136.668 37.4117H260.009C260.744 37.4117 261.449 37.7034 261.969 38.2228C262.489 38.7421 262.781 39.4465 262.781 40.1809V115.611H133.896V40.1921C133.894 39.8275 133.965 39.4662 134.103 39.1289C134.242 38.7917 134.446 38.4851 134.704 38.2267C134.961 37.9684 135.267 37.7634 135.605 37.6235C135.942 37.4837 136.303 37.4117 136.668 37.4117Z" fill="white"/>
<path d="M262.792 116.172H133.896C133.747 116.172 133.604 116.113 133.499 116.008C133.393 115.903 133.334 115.76 133.334 115.611V40.1921C133.334 39.3001 133.689 38.4446 134.321 37.8138C134.952 37.183 135.809 36.8287 136.702 36.8287H260.008C260.902 36.8287 261.758 37.183 262.39 37.8138C263.021 38.4446 263.376 39.3001 263.376 40.1921V115.611C263.376 115.687 263.361 115.762 263.331 115.831C263.302 115.901 263.258 115.964 263.204 116.016C263.149 116.068 263.085 116.109 263.014 116.136C262.943 116.163 262.868 116.175 262.792 116.172ZM134.457 115.051H262.231V40.1921C262.231 39.5974 261.994 39.0271 261.573 38.6066C261.152 38.1861 260.581 37.9498 259.986 37.9498H136.668C136.073 37.9498 135.502 38.1861 135.081 38.6066C134.66 39.0271 134.423 39.5974 134.423 40.1921L134.457 115.051Z" fill="black"/>
<path d="M133.896 115.611H262.792V119.423C262.792 120.158 262.5 120.862 261.98 121.381C261.46 121.901 260.755 122.193 260.02 122.193H136.668C135.933 122.193 135.228 121.901 134.708 121.381C134.188 120.862 133.896 120.158 133.896 119.423V115.611Z" fill="white"/>
<path d="M260.008 122.753H136.668C135.775 122.753 134.919 122.399 134.287 121.768C133.655 121.137 133.301 120.282 133.301 119.39V115.578C133.301 115.429 133.36 115.287 133.465 115.181C133.57 115.076 133.713 115.017 133.862 115.017H262.792C262.94 115.02 263.081 115.08 263.186 115.185C263.291 115.289 263.351 115.43 263.354 115.578V119.39C263.354 120.278 263.002 121.13 262.375 121.76C261.748 122.39 260.898 122.747 260.008 122.753ZM134.457 116.172V119.423C134.457 120.018 134.693 120.588 135.114 121.009C135.535 121.429 136.106 121.666 136.702 121.666H260.008C260.604 121.666 261.175 121.429 261.596 121.009C262.017 120.588 262.253 120.018 262.253 119.423V116.172H134.457Z" fill="black"/>
<path d="M200.325 75.7884C199.977 76.4051 199.596 76.2705 199.203 75.7884C199.079 75.6539 198.72 75.6539 198.496 75.6987C198.205 75.8226 197.93 75.9807 197.676 76.1696C198.125 75.0485 197.362 74.757 196.677 74.4431C195.667 73.9834 195.308 74.0843 194.802 75.0933C194.586 75.4591 194.297 75.7769 193.954 76.0275C193.61 76.2781 193.219 76.4561 192.804 76.5508C192.643 76.5853 192.474 76.5572 192.333 76.4723C191.805 76.1696 191.704 75.4969 191.906 74.6C192.052 73.9722 192.468 73.9385 192.973 73.9385C193.86 73.9385 193.949 73.7816 193.534 73.008C193.377 72.7165 193.209 72.4362 192.962 72.0102C194.488 72.0102 195.207 70.889 196.149 70.0818C196.448 69.9417 196.774 69.8689 197.104 69.8688C197.104 69.8688 197.238 69.8688 197.306 69.9249C198.765 70.3509 199.551 69.8352 199.607 68.2992C199.593 68.1801 199.554 68.0653 199.492 67.9628C199.43 67.8602 199.347 67.7723 199.248 67.705C199.169 67.705 198.832 67.8507 198.72 68.0077C198.608 68.1647 198.518 68.5458 198.35 68.7701C198.181 68.9943 197.912 69.2185 197.721 69.2073C197.53 69.1961 197.048 68.9382 197.014 68.7364C196.919 68.3338 196.74 67.9557 196.489 67.6272C196.237 67.2987 195.919 67.0272 195.555 66.8305C195.016 66.4493 195.162 65.956 195.555 65.5412C196.183 64.8124 196.823 64.1173 197.485 63.4334C198.462 62.4244 199.461 61.4378 200.449 60.4512C200.931 59.9803 201.302 60.07 201.751 60.5857C202.262 61.2703 202.898 61.8523 203.625 62.3011C204.372 62.7086 205.233 62.8547 206.072 62.7159C207.965 62.3261 209.73 61.4663 211.202 60.2157C211.284 60.1326 211.382 60.0668 211.49 60.0225C211.598 59.9782 211.714 59.9562 211.831 59.9579C212.538 60.1261 212.953 59.7673 213.2 59.1282L214.323 59.913C214.309 59.4555 214.272 58.9989 214.211 58.5452C214.098 57.9959 214.312 57.7044 214.839 57.6708C215.421 57.5568 215.945 57.2435 216.321 56.785C216.829 56.3056 217.423 55.9254 218.072 55.6639C218.772 55.432 219.494 55.2742 220.227 55.193C220.637 55.1007 221.065 55.1253 221.462 55.2641C221.859 55.4028 222.209 55.6501 222.472 55.9778C223.853 57.7156 225.84 58.2201 227.804 58.5004C229.81 58.7607 231.775 59.273 233.652 60.0252C234.018 60.206 234.423 60.2909 234.831 60.2718C236.027 60.2084 237.202 60.6102 238.109 61.3929C238.804 61.9087 239.478 62.4244 240.14 62.9626C240.511 63.2653 240.69 63.6465 240.286 64.0837C239.882 64.5209 239.714 65.1264 238.928 64.7452C238.142 64.364 238.097 64.3864 237.974 65.2833C237.907 65.6422 237.701 65.9603 237.401 66.169C236.622 66.62 235.82 67.0316 234.999 67.4023C234.783 67.4698 234.592 67.6013 234.451 67.7794C234.311 67.9575 234.228 68.174 234.213 68.4001C234.21 68.5902 234.147 68.7745 234.034 68.927C233.338 69.9249 232.62 70.9003 231.856 71.9541C231.856 71.4272 231.789 70.9227 231.778 70.4182C231.778 70.0818 231.778 69.7455 231.778 69.4203C231.688 68.0525 230.711 67.548 229.533 68.2992C229.202 68.5311 228.897 68.7979 228.623 69.0952C228.253 69.4428 228.231 69.7231 228.623 70.1491C228.746 70.3208 228.831 70.5162 228.874 70.7228C228.916 70.9294 228.915 71.1426 228.87 71.3487C228.575 72.4141 227.945 73.357 227.074 74.0395C226.724 74.2923 226.447 74.6324 226.27 75.0259C226.092 75.4194 226.021 75.8524 226.064 76.2817C226.143 76.8311 225.851 76.9656 224.639 77.1114V75.5306C224.44 75.5585 224.249 75.6269 224.079 75.7316C223.908 75.8363 223.76 75.975 223.646 76.1391C223.531 76.3032 223.451 76.4891 223.411 76.6853C223.372 76.8815 223.373 77.0838 223.415 77.2796C223.538 77.7504 223.673 78.2325 223.763 78.7258C223.838 79.0303 223.798 79.3516 223.651 79.6286C223.504 79.9056 223.26 80.1189 222.966 80.2282C222.427 80.468 221.872 80.6703 221.305 80.8336C220.631 81.0354 220.452 81.3157 220.676 81.9547C221.08 83.1768 220.912 83.5692 219.655 83.9392C219.419 84.0176 219.071 83.7037 218.644 83.5131L218.117 84.2194C218.319 82.4705 217.05 81.652 215.872 80.5645C215.109 81.7417 214.401 82.8068 213.627 83.9279C213.447 84.1542 213.252 84.3677 213.043 84.567C212.862 84.3603 212.704 84.1348 212.572 83.8943C212.302 83.345 212.067 82.7732 211.831 82.2014C211.576 81.6116 211.191 81.0867 210.705 80.6656C210.219 80.2444 209.645 79.9378 209.025 79.7685C208.362 79.5331 207.7 79.264 207.038 79.0173L206.263 78.7258C206.342 79.3761 206.679 79.6003 207.105 79.6452C207.397 79.6637 207.672 79.7877 207.878 79.9941C208.085 80.2005 208.209 80.475 208.228 80.7663C208.362 81.4278 207.801 81.6072 207.386 81.8875C207.048 82.0598 206.699 82.2096 206.342 82.3359C205.309 82.7732 204.883 82.6498 204.276 81.6857C204.041 81.3269 203.884 80.9233 203.659 80.5645C203.488 80.3168 203.3 80.0808 203.098 79.8582L202.783 80.06C203.115 80.9115 203.589 81.7002 204.187 82.392C205.019 82.8528 205.922 83.1746 206.858 83.3449C206.664 83.8788 206.436 84.3994 206.173 84.9033C205.9 85.4055 205.552 85.8629 205.141 86.2599C204.723 86.6345 204.403 87.1045 204.208 87.6298C204.012 88.1551 203.947 88.7199 204.018 89.2758C204.14 89.7421 204.094 90.2363 203.889 90.6725C203.684 91.1087 203.333 91.4594 202.896 91.6638C202.583 91.9136 202.349 92.2485 202.222 92.628C202.038 93.064 201.877 93.5093 201.74 93.9622C201.501 94.5466 201.087 95.0427 200.554 95.3821C200.021 95.7215 199.396 95.8874 198.765 95.8569C198.226 95.7897 198.215 95.3748 198.125 94.9712C197.642 92.572 197.137 90.1839 196.632 87.7959C196.486 87.1008 195.858 86.5178 196.183 85.6881C196.183 85.6209 195.734 85.2173 195.476 85.2061C194.729 85.1463 193.978 85.1463 193.231 85.2061C192.677 85.3228 192.1 85.2348 191.607 84.9584C191.113 84.6821 190.737 84.2362 190.548 83.7037C190.123 82.8682 189.947 81.9279 190.043 80.9954C190.138 80.0629 190.501 79.1776 191.087 78.4456C192.423 76.4723 194.297 76.3042 196.307 76.2033C196.62 76.1919 196.931 76.2689 197.203 76.4255C197.475 76.5822 197.697 76.8121 197.844 77.089C198.003 77.3549 198.241 77.5642 198.525 77.687C198.809 77.8098 199.125 77.8398 199.427 77.7729C200.007 77.739 200.588 77.7843 201.156 77.9074C201.446 77.9702 201.749 77.9321 202.014 77.7996C202.279 77.6671 202.491 77.448 202.615 77.1787C202.806 76.6966 202.615 76.4051 202.132 76.2705C201.65 76.136 201.032 75.9902 200.325 75.7884Z" fill="black"/>
<path d="M174.272 79.7797C174.014 79.4545 173.812 79.2415 173.655 79.0061C173.268 78.6163 172.758 78.3721 172.212 78.3149C171.666 78.2577 171.117 78.391 170.657 78.6922C170.265 79.0734 170.399 80.856 170.871 81.0578C171.096 81.0907 171.326 81.0344 171.511 80.9008C171.87 80.6878 172.195 80.4187 172.633 80.1048C172.745 80.4075 172.846 80.5981 172.902 80.8111C172.931 80.9781 172.931 81.1487 172.902 81.3156C172.79 82.1789 173.823 82.1229 174.025 82.7731C174.227 83.4234 174.732 83.5019 175.63 83.0086C175.961 82.8698 176.316 82.7983 176.674 82.7983C177.033 82.7983 177.387 82.8698 177.718 83.0086C179.3 83.2489 180.744 84.0438 181.793 85.2509C182.448 86.0217 183.37 86.518 184.374 86.6411C186.507 87.1344 186.619 87.381 185.957 89.4664C185.643 90.7013 185.012 91.8334 184.127 92.7513C182.298 94.5451 180.592 96.4735 178.885 98.357C178.653 98.7215 178.515 99.1373 178.481 99.5679C178.377 100.07 178.316 100.58 178.302 101.093C178.302 101.743 178.302 102.404 178.302 103.178C178.116 103.212 177.926 103.212 177.74 103.178C177.19 103.052 176.705 102.73 176.376 102.271C176.047 101.813 175.898 101.25 175.956 100.689C176.21 98.0431 176.513 95.4009 176.865 92.7625C176.922 92.3571 176.885 91.9439 176.756 91.5551C176.628 91.1663 176.411 90.8122 176.124 90.5202C175.427 89.5971 174.839 88.5963 174.373 87.538C174.227 87.2577 174.373 86.798 174.508 86.4169C175.024 84.6454 174.945 84.4549 173.307 83.5579C172.79 83.2664 172.33 82.8853 171.814 82.5938C171.392 82.3329 170.935 82.1364 170.455 82.0108C169.935 81.9461 169.439 81.7562 169.009 81.4574C168.579 81.1586 168.228 80.7598 167.986 80.2954C167.885 80.116 167.739 79.9479 167.559 79.69L167.245 80.6542C167.099 80.5034 166.964 80.3423 166.841 80.1721C166.246 79.3088 165.718 78.4007 165.067 77.5822C164.106 76.3259 163.603 74.7793 163.642 73.1986C163.649 72.602 163.511 72.0126 163.239 71.4813C162.967 70.9501 162.57 70.4928 162.082 70.1491C161.132 69.5564 160.381 68.6935 159.926 67.6713C159.847 67.5027 159.729 67.3546 159.583 67.2387C159.437 67.1228 159.266 67.0422 159.084 67.0031C158.901 66.964 158.712 66.9676 158.531 67.0135C158.35 67.0594 158.182 67.1464 158.041 67.2677C157.581 67.5496 157.064 67.7243 156.527 67.7787C155.991 67.833 155.449 67.7657 154.942 67.5816C154.603 67.5098 154.295 67.3321 154.063 67.0742C153.831 66.8163 153.687 66.4915 153.652 66.1466C153.539 65.4851 153.427 64.8348 153.36 64.1734C153.342 63.9419 153.397 63.7108 153.517 63.5119C153.809 63.041 154.19 62.6262 153.865 62.0208C153.847 61.9782 153.838 61.9324 153.838 61.8862C153.838 61.84 153.847 61.7943 153.865 61.7517C154.229 61.2156 154.741 60.796 155.338 60.5435C155.936 60.2909 156.593 60.216 157.232 60.3278C158.254 60.6193 159.253 61.0005 160.286 61.2696C160.658 61.3203 161.036 61.3203 161.408 61.2696C161.689 61.2696 161.969 61.2696 162.25 61.1911C163.704 61.0911 165.163 61.27 166.549 61.7181C167.771 62.0695 169.072 62.0382 170.276 61.6284C170.399 61.6284 170.613 61.5387 170.68 61.6284C171.219 62.1329 171.679 61.7517 172.162 61.5275C172.644 61.3032 173.093 60.866 173.643 61.3929C173.929 61.6462 174.134 61.9782 174.232 62.3471C174.329 62.716 174.316 63.1056 174.193 63.467C174.106 63.576 174.042 63.7019 174.006 63.8368C173.969 63.9716 173.962 64.1126 173.983 64.2506C174.004 64.3887 174.053 64.5208 174.128 64.6388C174.203 64.7567 174.302 64.8578 174.418 64.9357C174.179 65.1328 173.903 65.2808 173.606 65.3713C173.309 65.4617 172.998 65.4927 172.689 65.4627C172.216 65.5084 171.778 65.733 171.466 66.0905C171.307 66.263 171.189 66.4685 171.12 66.6921C171.051 66.9158 171.032 67.152 171.065 67.3837C171.099 67.6154 171.183 67.8368 171.312 68.032C171.442 68.2271 171.613 68.3912 171.814 68.5122C172.369 68.8133 172.947 69.0719 173.542 69.2858C174.003 69.4427 173.958 69.7791 174.014 70.1266C174.07 70.4742 174.272 70.5302 174.407 70.7321C174.537 70.5507 174.654 70.3596 174.755 70.1603C174.843 69.9176 174.903 69.6655 174.934 69.4091C174.934 69.1288 175.091 68.7813 174.934 68.5682C174.648 67.8531 174.616 67.0616 174.844 66.326C174.934 65.8999 175.215 65.6309 175.596 65.799C176.16 66.003 176.668 66.3372 177.078 66.7744C177.662 67.548 177.628 67.6041 178.201 66.7744L178.526 66.3932C179.514 68.5682 181.029 70.3957 181.501 72.7053C179.748 73.0775 178.137 73.9404 176.857 75.1932C175.577 76.4459 174.68 78.0368 174.272 79.7797Z" fill="black"/>
<path d="M180.244 56.4599H190.2C189.998 56.8859 189.841 57.2671 189.639 57.581C189.447 57.8826 189.322 58.2216 189.271 58.5754C189.221 58.9292 189.247 59.2897 189.347 59.6327C189.492 60.0018 189.505 60.4095 189.385 60.7872C189.264 61.1649 189.017 61.4896 188.685 61.7068C187.697 62.4468 186.72 63.198 185.71 63.9491C185.429 64.1212 185.184 64.3477 184.992 64.6153C184.799 64.8829 184.662 65.1862 184.588 65.5075C184.462 66.0125 184.308 66.5103 184.128 66.9986C184.015 67.2901 183.847 67.5592 183.701 67.8507C182.967 67.3305 182.351 66.6628 181.891 65.8905C181.43 65.1182 181.137 64.2583 181.029 63.3661C181.018 62.8071 181.055 62.2481 181.142 61.6956C181.087 61.2938 180.989 60.8991 180.85 60.5184C180.85 60.3727 180.637 60.2494 180.614 60.1148C180.479 58.9488 180.367 57.7492 180.244 56.4599Z" fill="black"/>
<path d="M227.523 90.1279C228.253 90.1279 228.646 89.6906 229.016 89.0067C229.196 89.2982 229.319 89.5224 229.465 89.7467C230.049 90.5987 230.588 91.4957 231.228 92.3029C231.455 92.5093 231.617 92.7764 231.697 93.0725C231.777 93.3685 231.77 93.6812 231.677 93.9734C231.463 94.5788 231.306 95.2066 231.104 95.8121C231.005 96.1111 230.83 96.3794 230.596 96.5904C230.362 96.8015 230.077 96.9482 229.769 97.016C229.461 97.0839 229.141 97.0706 228.84 96.9774C228.538 96.8843 228.267 96.7145 228.051 96.4847C227.781 96.2466 227.529 95.988 227.299 95.7111C227.079 95.3833 226.746 95.1468 226.364 95.0457C225.982 94.9446 225.576 94.9859 225.222 95.1618C224.594 95.386 223.965 95.6102 223.336 95.8008C222.214 96.1372 221.776 95.6887 221.945 94.5452C222.023 93.9402 222 93.3264 221.877 92.7289C221.765 92.1795 221.956 91.8768 222.438 91.7759C222.851 91.7185 223.243 91.562 223.581 91.3199C223.919 91.0777 224.194 90.7571 224.38 90.3857C224.448 90.2736 224.605 90.1054 224.695 90.1166C225.458 90.24 225.817 89.6346 226.435 89.3431C227.052 89.0516 227.333 89.1637 227.523 90.1279Z" fill="black"/>
<path d="M217.522 84.7688C218.218 85.3294 218.925 85.8899 219.61 86.4617C219.958 86.7532 220.182 86.7308 220.485 86.3608C220.764 86.0257 221.118 85.7607 221.518 85.5872C222.371 85.2509 222.517 85.3854 222.461 86.2823C222.461 86.4505 222.461 86.6075 222.394 86.9102C222.775 86.6075 223.045 86.3608 223.348 86.159C223.954 85.733 224.38 85.9348 224.47 86.6635C224.594 87.7847 224.223 88.1883 223.022 88.0538C222.865 88.0538 222.596 88.0538 222.551 88.0538C222.169 88.7377 221.709 88.334 221.271 88.1547C220.833 87.9753 220.351 87.6613 219.789 87.9528C219.677 88.0201 219.352 87.8744 219.251 87.7398C218.588 86.7981 217.971 85.8339 217.331 84.8809L217.522 84.7688Z" fill="black"/>
<path d="M230.992 88.9394C230.147 88.8726 229.307 88.7528 228.478 88.5807C228.13 88.4798 227.568 88.3228 227.681 87.6725C227.681 87.5828 227.434 87.4371 227.288 87.3362L226.435 86.8093C226.536 86.6635 226.569 86.585 226.581 86.585C227.905 86.8317 229.342 86.6859 230.419 87.7062C230.672 88.0858 230.865 88.5017 230.992 88.9394Z" fill="black"/>
<path d="M225.851 77.9186C226.131 77.5011 226.467 77.1239 226.85 76.7975C227.474 76.4033 227.936 75.7986 228.152 75.0933C228.444 74.2637 228.803 73.4565 229.207 72.4698C229.667 73.2434 229.824 73.748 229.319 74.3534C229.07 74.7199 228.94 75.1547 228.949 75.5978C228.956 75.8701 228.888 76.139 228.751 76.3746C228.614 76.6102 228.415 76.8032 228.174 76.932L226.098 78.154L225.851 77.9186Z" fill="black"/>
<path d="M166.953 101.429H149.858C149.709 101.429 149.566 101.37 149.461 101.265C149.356 101.16 149.296 101.017 149.296 100.868C149.296 100.72 149.356 100.577 149.461 100.472C149.566 100.367 149.709 100.308 149.858 100.308H166.953C167.102 100.308 167.245 100.367 167.35 100.472C167.455 100.577 167.515 100.72 167.515 100.868C167.515 101.017 167.455 101.16 167.35 101.265C167.245 101.37 167.102 101.429 166.953 101.429Z" fill="black"/>
<path d="M166.953 107.539H149.858C149.709 107.539 149.566 107.48 149.461 107.375C149.356 107.27 149.296 107.127 149.296 106.979C149.299 106.831 149.359 106.69 149.464 106.585C149.569 106.481 149.71 106.421 149.858 106.418H166.953C167.101 106.421 167.242 106.481 167.347 106.585C167.452 106.69 167.512 106.831 167.515 106.979C167.515 107.127 167.455 107.27 167.35 107.375C167.245 107.48 167.102 107.539 166.953 107.539Z" fill="black"/>
<path d="M249.985 53.1301H234.505C234.356 53.1301 234.214 53.071 234.108 52.9659C234.003 52.8608 233.944 52.7182 233.944 52.5695V47.401C233.944 47.2524 234.003 47.1098 234.108 47.0046C234.214 46.8995 234.356 46.8405 234.505 46.8405H249.985C250.133 46.8405 250.276 46.8995 250.381 47.0046C250.487 47.1098 250.546 47.2524 250.546 47.401V52.5807C250.543 52.7274 250.483 52.8671 250.378 52.9699C250.273 53.0726 250.132 53.1301 249.985 53.1301ZM235.067 52.0089H249.423V47.9504H235.067V52.0089Z" fill="black"/>
<path d="M446.983 212.389C447.108 210.721 446.754 209.052 445.962 207.579C445.191 206.601 444.471 205.583 443.807 204.529C442.886 202.579 443.537 200.28 443.313 198.128C443.124 196.332 442.333 194.653 441.068 193.363C439.945 192.242 438.497 191.446 437.42 190.268C435.657 188.329 435.175 185.593 434.153 183.172C432.733 179.752 430.276 176.862 427.126 174.909C429.046 178.765 424.668 183.665 426.655 187.488C427.283 188.699 428.473 189.585 428.9 190.851C430.022 193.946 426.307 197.309 427.497 200.381C428.092 201.917 429.742 202.803 430.505 204.26C431.538 206.234 430.718 208.61 430.808 210.83C430.92 213.891 432.784 216.627 435.006 218.745C436.376 220.057 437.914 221.201 439.406 222.389C441.191 223.824 441.943 225.315 443.515 223.028C445.677 219.892 446.882 216.196 446.983 212.389Z" fill="black"/>
<path d="M449.038 214.138C448.465 211.772 448.05 209.205 449.038 206.973C450.16 204.451 452.854 202.657 453.18 199.933C453.382 198.139 452.472 196.323 452.832 194.562C453.191 192.802 454.639 191.58 455.829 190.28C458.572 187.268 460.203 183.412 460.453 179.348C462.293 181.528 463.778 183.984 464.854 186.625C465.383 187.95 465.6 189.38 465.489 190.802C465.378 192.225 464.942 193.604 464.214 194.831C463.754 195.38 463.376 195.992 463.091 196.648C462.552 198.397 464.045 200.011 464.82 201.67C465.275 202.616 465.465 203.667 465.368 204.712C465.271 205.757 464.891 206.755 464.27 207.601C462.71 209.552 459.69 210.314 458.916 212.691C458.724 213.575 458.634 214.478 458.646 215.382C458.492 216.957 457.865 218.448 456.848 219.66C455.83 220.873 454.469 221.75 452.944 222.176C451.092 222.625 451.125 221.896 450.8 220.337C450.283 218.241 449.487 216.223 449.038 214.138Z" fill="black"/>
<path d="M443.077 197.119C441.764 192.567 441.236 187.824 439.855 183.295C438.68 179.753 437.247 176.302 435.568 172.969L441.18 175.346C442.987 176.108 444.952 177.005 445.805 178.777C447.286 181.849 444.626 185.795 446.186 188.867C446.87 189.855 447.62 190.795 448.431 191.681C450.093 194.013 449.834 197.219 448.925 199.921C448.532 201.043 446.826 207.13 445.288 205.449C444.682 204.776 444.626 202.276 444.368 201.356C443.975 199.933 443.492 198.531 443.077 197.119Z" fill="black"/>
<path d="M446.097 257.526C444.974 250.104 441.449 223.892 441.416 223.645L442.538 223.499C442.538 223.757 446.097 249.947 447.219 257.369L446.097 257.526Z" fill="black"/>
<path d="M447.567 264.544H446.445C446.512 255.721 450.205 221.941 452.338 219.631L453.168 220.393C451.552 222.142 447.634 254.745 447.567 264.544Z" fill="black"/>
<path d="M449.487 262.862L448.364 262.806C449.195 243.747 445.165 203.845 445.12 203.442L446.242 203.33C446.276 203.733 450.328 243.758 449.487 262.862Z" fill="black"/>
<path d="M436.499 239.61H457.512L456.042 260.912C455.92 262.683 455.128 264.343 453.828 265.554C452.528 266.765 450.816 267.438 449.037 267.437H444.974C443.195 267.441 441.482 266.769 440.181 265.557C438.88 264.345 438.089 262.684 437.97 260.912L436.499 239.61Z" fill="white"/>
<path d="M449.038 267.975H444.974C443.049 267.969 441.198 267.236 439.791 265.924C438.384 264.612 437.525 262.818 437.386 260.9L435.916 239.599C435.911 239.519 435.923 239.439 435.95 239.364C435.977 239.288 436.019 239.219 436.074 239.161C436.128 239.102 436.194 239.055 436.267 239.022C436.34 238.99 436.419 238.972 436.499 238.971H457.512C457.593 238.972 457.672 238.989 457.746 239.022C457.819 239.054 457.885 239.102 457.939 239.161C457.995 239.219 458.038 239.288 458.065 239.363C458.092 239.439 458.103 239.519 458.096 239.599L456.626 260.9C456.487 262.818 455.628 264.612 454.221 265.924C452.814 267.236 450.962 267.969 449.038 267.975ZM437.117 240.238L438.542 260.867C438.658 262.493 439.386 264.015 440.579 265.127C441.772 266.24 443.342 266.861 444.974 266.865H449.038C450.669 266.858 452.238 266.236 453.43 265.124C454.622 264.012 455.351 262.492 455.469 260.867L456.895 240.238H437.117Z" fill="black"/>
</g>
<defs>
<clipPath id="clip0_52_375">
<rect width="595" height="328" rx="10" fill="white"/>
</clipPath>
</defs>
</svg>
