<svg width="595" height="328" viewBox="0 0 595 328" fill="none" xmlns="http://www.w3.org/2000/svg">
<rect width="595" height="328" rx="10" fill="#0C66ED"/>
<path d="M438.94 68.0842H330.549V129.903H438.94V68.0842Z" fill="white"/>
<path d="M438.929 130.447H330.549C330.405 130.447 330.267 130.39 330.165 130.288C330.063 130.186 330.005 130.047 330.005 129.903V68.0842C330.005 67.9399 330.063 67.8016 330.165 67.6996C330.267 67.5975 330.405 67.5402 330.549 67.5402H438.929C439.074 67.5402 439.212 67.5975 439.314 67.6996C439.416 67.8016 439.473 67.9399 439.473 68.0842V129.903C439.473 130.047 439.416 130.186 439.314 130.288C439.212 130.39 439.074 130.447 438.929 130.447ZM331.093 129.359H438.386V68.6282H331.093V129.359Z" fill="#231F20"/>
<path d="M365.806 77.1035H341.685V120.731H365.806V77.1035Z" fill="white"/>
<path d="M365.806 121.275H341.685C341.541 121.275 341.403 121.218 341.301 121.116C341.199 121.014 341.141 120.876 341.141 120.731V77.1035C341.141 76.9592 341.199 76.8209 341.301 76.7188C341.403 76.6168 341.541 76.5595 341.685 76.5595H365.806C365.95 76.5595 366.088 76.6168 366.19 76.7188C366.292 76.8209 366.35 76.9592 366.35 77.1035V120.731C366.347 120.875 366.289 121.011 366.187 121.113C366.086 121.214 365.949 121.272 365.806 121.275ZM342.229 120.187H365.262V77.6475H342.229V120.187Z" fill="black"/>
<path d="M397.931 77.1035H373.81V120.731H397.931V77.1035Z" fill="white"/>
<path d="M397.931 121.275H373.81C373.666 121.275 373.527 121.218 373.425 121.116C373.323 121.014 373.266 120.876 373.266 120.731V77.1035C373.266 76.9592 373.323 76.8209 373.425 76.7188C373.527 76.6168 373.666 76.5595 373.81 76.5595H397.931C398.075 76.5595 398.213 76.6168 398.315 76.7188C398.417 76.8209 398.474 76.9592 398.474 77.1035V120.731C398.472 120.875 398.413 121.011 398.312 121.113C398.211 121.214 398.074 121.272 397.931 121.275ZM374.354 120.187H397.387V77.6475H374.354V120.187Z" fill="black"/>
<path d="M430.055 77.1035H405.935V120.731H430.055V77.1035Z" fill="white"/>
<path d="M430.055 121.275H405.935C405.791 121.272 405.655 121.214 405.553 121.113C405.452 121.011 405.394 120.875 405.391 120.731V77.1035C405.391 76.9592 405.448 76.8209 405.55 76.7188C405.652 76.6168 405.79 76.5595 405.935 76.5595H430.055C430.2 76.5595 430.338 76.6168 430.44 76.7188C430.542 76.8209 430.599 76.9592 430.599 77.1035V120.731C430.599 120.876 430.542 121.014 430.44 121.116C430.338 121.218 430.2 121.275 430.055 121.275ZM406.478 120.187H429.512V77.6475H406.478V120.187Z" fill="black"/>
<path d="M365.806 93.2164H341.685C341.568 93.2164 341.453 93.1782 341.359 93.1076C341.265 93.037 341.196 92.9377 341.163 92.8247C341.131 92.7121 341.135 92.5919 341.176 92.4822C341.217 92.3724 341.293 92.2788 341.392 92.2155L352.734 84.8934L341.392 77.5605C341.33 77.5228 341.278 77.4733 341.236 77.4147C341.195 77.3562 341.166 77.2899 341.15 77.2198C341.135 77.1497 341.134 77.0773 341.148 77.0068C341.161 76.9364 341.189 76.8693 341.228 76.8098C341.306 76.6887 341.429 76.6036 341.57 76.573C341.711 76.5424 341.858 76.5688 341.979 76.6466L353.746 84.2624L365.501 76.6466C365.624 76.5683 365.773 76.5415 365.915 76.5721C366.058 76.6026 366.183 76.688 366.263 76.8098C366.34 76.931 366.367 77.0781 366.336 77.2188C366.306 77.3596 366.22 77.4824 366.1 77.5605L354.746 84.8934L366.1 92.1937C366.198 92.2573 366.273 92.3511 366.314 92.4611C366.355 92.5711 366.359 92.6913 366.326 92.8038C366.293 92.9164 366.225 93.0153 366.131 93.0857C366.037 93.1561 365.923 93.1943 365.806 93.1946V93.2164ZM343.534 92.1284H363.957L353.746 85.5353L343.534 92.1284Z" fill="black"/>
<path d="M361.478 97.7206H345.916C345.771 97.7206 345.633 97.6633 345.531 97.5613C345.429 97.4593 345.372 97.3209 345.372 97.1766C345.372 97.0323 345.429 96.894 345.531 96.792C345.633 96.6899 345.771 96.6326 345.916 96.6326H361.478C361.622 96.6326 361.76 96.6899 361.862 96.792C361.964 96.894 362.021 97.0323 362.021 97.1766C362.021 97.3209 361.964 97.4593 361.862 97.5613C361.76 97.6633 361.622 97.7206 361.478 97.7206Z" fill="black"/>
<path d="M361.478 103.465H345.916C345.771 103.465 345.633 103.408 345.531 103.306C345.429 103.204 345.372 103.065 345.372 102.921C345.372 102.777 345.429 102.638 345.531 102.536C345.633 102.434 345.771 102.377 345.916 102.377H361.478C361.622 102.377 361.76 102.434 361.862 102.536C361.964 102.638 362.021 102.777 362.021 102.921C362.021 103.065 361.964 103.204 361.862 103.306C361.76 103.408 361.622 103.465 361.478 103.465Z" fill="black"/>
<path d="M361.478 109.199H345.916C345.771 109.199 345.633 109.141 345.531 109.039C345.429 108.937 345.372 108.799 345.372 108.655C345.372 108.51 345.429 108.372 345.531 108.27C345.633 108.168 345.771 108.111 345.916 108.111H361.478C361.622 108.111 361.76 108.168 361.862 108.27C361.964 108.372 362.021 108.51 362.021 108.655C362.021 108.799 361.964 108.937 361.862 109.039C361.76 109.141 361.622 109.199 361.478 109.199Z" fill="black"/>
<path d="M361.478 114.932H345.916C345.771 114.932 345.633 114.875 345.531 114.773C345.429 114.671 345.372 114.533 345.372 114.388C345.372 114.244 345.429 114.106 345.531 114.004C345.633 113.902 345.771 113.844 345.916 113.844H361.478C361.622 113.844 361.76 113.902 361.862 114.004C361.964 114.106 362.021 114.244 362.021 114.388C362.021 114.533 361.964 114.671 361.862 114.773C361.76 114.875 361.622 114.932 361.478 114.932Z" fill="black"/>
<path d="M397.931 121.275H373.81C373.692 121.275 373.578 121.237 373.484 121.166C373.39 121.096 373.321 120.997 373.288 120.884C373.255 120.771 373.26 120.651 373.301 120.541C373.342 120.431 373.418 120.338 373.516 120.274L384.87 112.941L373.516 105.619C373.395 105.539 373.309 105.414 373.279 105.272C373.248 105.129 373.275 104.981 373.353 104.858C373.392 104.798 373.442 104.746 373.501 104.705C373.56 104.665 373.626 104.637 373.696 104.623C373.766 104.608 373.838 104.608 373.908 104.623C373.978 104.637 374.045 104.665 374.104 104.705L374.495 104.945C374.535 104.846 374.604 104.761 374.694 104.703C374.783 104.645 374.889 104.615 374.995 104.618H397.931C398.047 104.618 398.16 104.654 398.254 104.723C398.348 104.791 398.418 104.888 398.453 104.999C398.486 105.113 398.482 105.235 398.441 105.347C398.4 105.459 398.324 105.554 398.224 105.619L386.871 112.941L398.224 120.274C398.323 120.338 398.398 120.431 398.44 120.541C398.481 120.651 398.485 120.771 398.453 120.884C398.42 120.997 398.351 121.096 398.257 121.166C398.163 121.237 398.048 121.275 397.931 121.275ZM375.659 120.187H396.082L385.87 113.594L375.659 120.187ZM375.659 105.706L385.87 112.299L396.082 105.706H375.659Z" fill="black"/>
<path d="M392.2 82.2932H378.682C378.538 82.2932 378.399 82.2359 378.297 82.1338C378.195 82.0318 378.138 81.8935 378.138 81.7492C378.138 81.6049 378.195 81.4665 378.297 81.3645C378.399 81.2625 378.538 81.2052 378.682 81.2052H392.2C392.344 81.2052 392.482 81.2625 392.584 81.3645C392.686 81.4665 392.743 81.6049 392.743 81.7492C392.741 81.8926 392.682 82.0293 392.581 82.1308C392.48 82.2322 392.343 82.2904 392.2 82.2932Z" fill="black"/>
<path d="M392.2 87.4828H378.682C378.538 87.4828 378.399 87.4255 378.297 87.3235C378.195 87.2215 378.138 87.0831 378.138 86.9388C378.138 86.7946 378.195 86.6562 378.297 86.5542C378.399 86.4521 378.538 86.3948 378.682 86.3948H392.2C392.344 86.3948 392.482 86.4521 392.584 86.5542C392.686 86.6562 392.743 86.7946 392.743 86.9388C392.741 87.0822 392.682 87.219 392.581 87.3204C392.48 87.4218 392.343 87.48 392.2 87.4828Z" fill="black"/>
<path d="M389.187 92.6724H378.682C378.538 92.6724 378.399 92.6151 378.297 92.5131C378.195 92.4111 378.138 92.2727 378.138 92.1285C378.138 91.9842 378.195 91.8458 378.297 91.7438C378.399 91.6418 378.538 91.5845 378.682 91.5845H389.187C389.331 91.5845 389.47 91.6418 389.572 91.7438C389.674 91.8458 389.731 91.9842 389.731 92.1285C389.731 92.2727 389.674 92.4111 389.572 92.5131C389.47 92.6151 389.331 92.6724 389.187 92.6724Z" fill="black"/>
<path d="M390.699 102.366C390.13 102.368 389.573 102.201 389.1 101.887C388.626 101.572 388.256 101.123 388.038 100.598C387.819 100.073 387.761 99.4945 387.872 98.9363C387.982 98.3782 388.256 97.8654 388.658 97.463C389.06 97.0607 389.573 96.7869 390.13 96.6764C390.688 96.5659 391.267 96.6237 391.792 96.8425C392.317 97.0612 392.765 97.4311 393.08 97.9051C393.394 98.3791 393.561 98.9359 393.559 99.5049C393.556 100.263 393.254 100.989 392.718 101.525C392.182 102.061 391.456 102.363 390.699 102.366ZM390.699 97.7206C390.346 97.7184 390 97.8213 389.705 98.016C389.41 98.2107 389.18 98.4887 389.043 98.8145C388.907 99.1403 388.87 99.4994 388.937 99.8463C389.005 100.193 389.174 100.512 389.423 100.763C389.672 101.013 389.99 101.184 390.336 101.254C390.682 101.324 391.041 101.289 391.368 101.154C391.694 101.02 391.974 100.791 392.17 100.497C392.366 100.204 392.471 99.8582 392.471 99.5049C392.471 99.0335 392.285 98.5813 391.953 98.247C391.621 97.9127 391.17 97.7235 390.699 97.7206Z" fill="black"/>
<path d="M424.487 100.049H411.927C411.563 100.072 411.199 100.021 410.856 99.8975C410.513 99.7743 410.199 99.5822 409.934 99.3329C409.668 99.0836 409.456 98.7824 409.312 98.4481C409.167 98.1137 409.092 97.7532 409.092 97.3888C409.092 97.0244 409.167 96.6639 409.312 96.3295C409.456 95.9952 409.668 95.694 409.934 95.4447C410.199 95.1954 410.513 95.0033 410.856 94.8801C411.199 94.757 411.563 94.7054 411.927 94.7287H424.487C425.163 94.772 425.797 95.071 426.261 95.5652C426.724 96.0593 426.982 96.7113 426.982 97.3888C426.982 98.0663 426.724 98.7183 426.261 99.2124C425.797 99.7065 425.163 100.006 424.487 100.049ZM411.927 95.8167C411.709 95.7986 411.491 95.8258 411.284 95.8966C411.078 95.9674 410.889 96.0802 410.728 96.2279C410.568 96.3757 410.44 96.5551 410.352 96.755C410.264 96.9548 410.219 97.1706 410.219 97.3888C410.219 97.607 410.264 97.8228 410.352 98.0226C410.44 98.2225 410.568 98.4019 410.728 98.5497C410.889 98.6974 411.078 98.8102 411.284 98.881C411.491 98.9518 411.709 98.979 411.927 98.9609H424.487C424.882 98.9281 425.249 98.7482 425.517 98.457C425.785 98.1658 425.933 97.7845 425.933 97.3888C425.933 96.9931 425.785 96.6118 425.517 96.3206C425.249 96.0294 424.882 95.8495 424.487 95.8167H411.927Z" fill="black"/>
<path d="M426.597 91.987H409.806C409.662 91.987 409.524 91.9297 409.422 91.8277C409.32 91.7256 409.262 91.5873 409.262 91.443V80.6503C409.262 80.506 409.32 80.3677 409.422 80.2657C409.524 80.1636 409.662 80.1063 409.806 80.1063H426.597C426.741 80.1063 426.88 80.1636 426.982 80.2657C427.084 80.3677 427.141 80.506 427.141 80.6503V91.443C427.141 91.5873 427.084 91.7256 426.982 91.8277C426.88 91.9297 426.741 91.987 426.597 91.987ZM410.35 90.899H426.053V81.1943H410.35V90.899Z" fill="black"/>
<path d="M409.806 91.987C409.715 91.9859 409.626 91.9625 409.547 91.9189C409.467 91.8752 409.399 91.8127 409.349 91.7368C409.272 91.6155 409.245 91.4684 409.276 91.3277C409.306 91.187 409.392 91.0641 409.513 90.9861L426.304 80.226C426.424 80.157 426.567 80.137 426.702 80.1702C426.838 80.2034 426.955 80.2872 427.03 80.4044C427.106 80.5215 427.133 80.6631 427.107 80.8C427.081 80.9368 427.004 81.0585 426.891 81.1399L410.1 91.9326C410.01 91.9809 409.907 91.9999 409.806 91.987Z" fill="black"/>
<path d="M426.597 91.987C426.492 91.9902 426.39 91.9597 426.303 91.9L409.512 81.1073C409.448 81.0707 409.392 81.0214 409.348 80.9624C409.303 80.9035 409.271 80.8361 409.254 80.7643C409.236 80.6926 409.233 80.618 409.246 80.5452C409.258 80.4723 409.285 80.4027 409.325 80.3406C409.364 80.2784 409.417 80.2251 409.478 80.1838C409.539 80.1425 409.608 80.1141 409.681 80.1003C409.753 80.0865 409.828 80.0877 409.9 80.1037C409.972 80.1197 410.04 80.1502 410.1 80.1934L426.912 90.9861C427.033 91.0641 427.119 91.187 427.149 91.3277C427.18 91.4684 427.153 91.6155 427.076 91.7368C427.026 91.8181 426.956 91.8845 426.871 91.9286C426.787 91.9727 426.692 91.9929 426.597 91.987Z" fill="black"/>
<path d="M426.597 116.053H409.806C409.662 116.053 409.524 115.996 409.422 115.894C409.32 115.792 409.262 115.653 409.262 115.509V104.716C409.262 104.572 409.32 104.434 409.422 104.332C409.524 104.23 409.662 104.172 409.806 104.172H426.597C426.741 104.172 426.88 104.23 426.982 104.332C427.084 104.434 427.141 104.572 427.141 104.716V115.509C427.141 115.653 427.084 115.792 426.982 115.894C426.88 115.996 426.741 116.053 426.597 116.053ZM410.35 114.965H426.053V105.249H410.35V114.965Z" fill="black"/>
<path d="M409.806 116.053C409.715 116.052 409.626 116.028 409.547 115.985C409.467 115.941 409.399 115.879 409.349 115.803C409.309 115.742 409.282 115.674 409.268 115.603C409.254 115.532 409.255 115.459 409.271 115.388C409.286 115.317 409.315 115.249 409.356 115.19C409.398 115.13 409.451 115.08 409.513 115.041L426.304 104.248C426.363 104.205 426.432 104.175 426.504 104.159C426.576 104.143 426.65 104.142 426.723 104.155C426.795 104.169 426.864 104.198 426.925 104.239C426.987 104.28 427.039 104.334 427.079 104.396C427.119 104.458 427.146 104.527 427.158 104.6C427.17 104.673 427.167 104.748 427.149 104.819C427.132 104.891 427.1 104.959 427.055 105.018C427.011 105.077 426.955 105.126 426.891 105.162L410.1 115.955C410.015 116.019 409.912 116.053 409.806 116.053Z" fill="black"/>
<path d="M426.597 116.053C426.493 116.056 426.39 116.026 426.304 115.966L409.513 105.173C409.4 105.092 409.322 104.97 409.296 104.833C409.27 104.696 409.298 104.555 409.373 104.438C409.448 104.321 409.566 104.237 409.701 104.204C409.836 104.17 409.979 104.19 410.1 104.259L426.913 115.041C427.034 115.119 427.119 115.242 427.149 115.383C427.18 115.524 427.153 115.671 427.076 115.792C427.028 115.875 426.958 115.944 426.873 115.99C426.789 116.036 426.693 116.058 426.597 116.053Z" fill="black"/>
<path d="M182.551 263.006L129.111 175.01C127.23 171.866 130.699 157.842 130.699 157.842L397.05 168.493C402.009 168.493 407.783 171.42 409.937 175.021L466.345 253.921C466.845 261.841 463.246 267.216 458.287 267.216L195.427 269.533C190.468 269.533 184.704 266.65 182.551 263.006Z" fill="#231F20"/>
<path d="M195.438 270.11C190.316 270.11 184.324 267.064 182.084 263.332L128.655 175.293C126.708 172.029 129.808 159.18 130.166 157.722C130.192 157.598 130.263 157.487 130.365 157.411C130.468 157.334 130.594 157.298 130.721 157.309L397.071 167.96C402.172 167.96 408.153 170.996 410.393 174.738L466.791 253.595C466.844 253.68 466.878 253.777 466.889 253.878C467.193 258.654 466.008 262.832 463.626 265.334C462.95 266.09 462.122 266.696 461.196 267.112C460.271 267.528 459.269 267.745 458.254 267.749L195.438 270.11ZM131.113 158.408C130.123 162.542 128.176 172.399 129.579 174.727L183.008 262.755C185.074 266.204 190.621 269.011 195.427 269.011L458.287 266.65C459.154 266.645 460.009 266.458 460.8 266.102C461.59 265.746 462.297 265.229 462.876 264.583C464.997 262.32 466.062 258.501 465.812 254.095L409.512 175.326C407.424 171.844 401.9 169.037 397.071 169.037L131.113 158.408Z" fill="#231F20"/>
<path d="M184.813 250.559L131.384 161.345C129.209 157.744 131.493 154.818 136.452 154.818H399.312C404.271 154.818 410.045 157.733 412.199 161.345L465.628 250.559C467.803 254.16 465.519 257.087 460.549 257.087H197.7C192.741 257.076 186.966 254.16 184.813 250.559Z" fill="white"/>
<path d="M460.549 257.62H197.7C192.578 257.62 186.586 254.574 184.346 250.842L130.917 161.628C130.422 160.948 130.122 160.145 130.052 159.307C129.981 158.469 130.141 157.627 130.514 156.874C131.439 155.231 133.603 154.284 136.463 154.284H399.312C404.434 154.284 410.426 157.331 412.666 161.062L466.095 250.276C466.59 250.956 466.889 251.759 466.96 252.597C467.031 253.436 466.871 254.277 466.497 255.031C465.573 256.674 463.398 257.62 460.549 257.62ZM185.281 250.276C187.347 253.725 192.893 256.532 197.7 256.532H460.549C462.996 256.532 464.823 255.792 465.551 254.498C465.829 253.911 465.939 253.26 465.87 252.615C465.801 251.97 465.555 251.356 465.16 250.842L411.731 161.628C409.665 158.179 404.118 155.372 399.312 155.372H136.463C134.016 155.372 132.189 156.112 131.46 157.407C131.183 157.993 131.073 158.645 131.142 159.29C131.211 159.935 131.457 160.548 131.852 161.062L185.281 250.276Z" fill="#231F20"/>
<path d="M386.11 160.192L440.92 251.712H224.801L169.991 160.192H386.11Z" fill="white"/>
<path d="M440.919 252.202H224.79C224.704 252.204 224.62 252.182 224.545 252.14C224.47 252.098 224.408 252.037 224.366 251.963L169.566 160.453C169.521 160.377 169.498 160.291 169.498 160.203C169.498 160.115 169.521 160.028 169.566 159.953C169.611 159.876 169.674 159.813 169.75 159.769C169.827 159.725 169.913 159.702 170.001 159.702H386.109C386.195 159.701 386.28 159.722 386.354 159.764C386.429 159.806 386.491 159.868 386.534 159.942L441.344 251.451C441.389 251.527 441.412 251.613 441.412 251.702C441.412 251.79 441.389 251.876 441.344 251.952C441.301 252.027 441.24 252.09 441.165 252.134C441.091 252.178 441.006 252.202 440.919 252.202ZM225.072 251.212H440.039L385.827 160.736H170.861L225.072 251.212Z" fill="#231F20"/>
<path d="M188.978 223.839H179.8C176.537 223.839 172.851 221.793 171.448 219.28L161.019 200.61C160.692 200.117 160.503 199.545 160.47 198.955C160.438 198.364 160.563 197.775 160.834 197.249C161.257 196.665 161.824 196.202 162.48 195.905C163.136 195.607 163.858 195.486 164.575 195.551H173.753C176.951 195.551 180.703 197.597 182.105 200.11L192.524 218.79C192.859 219.28 193.054 219.852 193.088 220.444C193.123 221.036 192.995 221.627 192.719 222.152C192.295 222.733 191.727 223.194 191.072 223.49C190.416 223.785 189.695 223.906 188.978 223.839ZM164.575 196.563C164.032 196.498 163.482 196.573 162.977 196.783C162.472 196.993 162.03 197.329 161.693 197.76C161.511 198.135 161.434 198.552 161.468 198.967C161.503 199.382 161.648 199.781 161.889 200.121L172.318 218.801C173.153 220.023 174.268 221.027 175.569 221.731C176.87 222.435 178.321 222.818 179.8 222.849H188.978C189.52 222.907 190.067 222.829 190.57 222.622C191.073 222.415 191.517 222.085 191.86 221.663C192.039 221.285 192.116 220.867 192.081 220.45C192.047 220.034 191.903 219.634 191.665 219.291L181.235 200.61C180.4 199.389 179.285 198.385 177.984 197.681C176.683 196.977 175.232 196.594 173.753 196.563H164.575Z" fill="#231F20"/>
<path d="M432.35 220.129C432.261 220.128 432.173 220.103 432.097 220.057C432.02 220.011 431.958 219.946 431.915 219.867L416.255 191.896C416.222 191.839 416.201 191.777 416.192 191.713C416.184 191.648 416.189 191.582 416.206 191.519C416.223 191.457 416.253 191.398 416.293 191.347C416.333 191.295 416.383 191.253 416.44 191.221C416.555 191.159 416.691 191.144 416.817 191.181C416.943 191.217 417.05 191.302 417.114 191.417L432.72 219.389C432.753 219.445 432.774 219.507 432.782 219.572C432.791 219.636 432.786 219.702 432.769 219.765C432.752 219.828 432.722 219.886 432.682 219.938C432.642 219.989 432.592 220.032 432.535 220.063C432.478 220.097 432.415 220.119 432.35 220.129Z" fill="#231F20"/>
<path d="M436.569 227.799C436.482 227.797 436.396 227.773 436.32 227.729C436.244 227.686 436.18 227.623 436.134 227.549L434.046 223.839C433.983 223.721 433.969 223.584 434.005 223.456C434.042 223.328 434.127 223.219 434.242 223.153C434.358 223.091 434.493 223.076 434.619 223.113C434.746 223.15 434.852 223.234 434.916 223.349L437.004 227.102C437.068 227.217 437.084 227.351 437.049 227.477C437.015 227.603 436.932 227.711 436.82 227.777C436.739 227.805 436.653 227.813 436.569 227.799Z" fill="#231F20"/>
<path d="M343.773 243.868L298.348 168.036H360.803L406.228 243.868H343.773Z" fill="white"/>
<path d="M406.25 244.412H343.773C343.679 244.413 343.587 244.389 343.505 244.343C343.423 244.297 343.354 244.231 343.305 244.151L297.881 168.352C297.833 168.269 297.808 168.175 297.808 168.08C297.808 167.984 297.833 167.891 297.881 167.808C297.925 167.723 297.993 167.653 298.075 167.605C298.158 167.557 298.253 167.533 298.348 167.536H360.803C360.897 167.535 360.99 167.559 361.072 167.605C361.153 167.651 361.222 167.717 361.271 167.797L406.696 243.64C406.744 243.722 406.769 243.816 406.769 243.912C406.769 244.007 406.744 244.101 406.696 244.184C406.647 244.257 406.581 244.316 406.503 244.356C406.425 244.396 406.338 244.416 406.25 244.412ZM344.099 243.324H405.271L360.499 168.58H299.305L344.099 243.324Z" fill="black"/>
<path d="M351.027 222.914C350.918 222.912 350.812 222.878 350.722 222.816C350.605 222.734 350.524 222.61 350.498 222.47C350.471 222.329 350.501 222.184 350.581 222.065C356.638 213.187 366.187 198.815 367.165 196.465C364.055 194.605 332.648 177.567 315.901 168.515C315.837 168.482 315.78 168.436 315.734 168.381C315.688 168.326 315.653 168.262 315.632 168.193C315.611 168.124 315.603 168.052 315.61 167.98C315.617 167.908 315.638 167.839 315.672 167.775C315.743 167.65 315.86 167.558 315.998 167.517C316.136 167.476 316.284 167.491 316.412 167.558C324.927 172.16 367.448 195.16 368.133 195.845C368.557 196.248 369.145 196.802 351.484 222.707C351.43 222.776 351.36 222.83 351.28 222.866C351.201 222.902 351.114 222.919 351.027 222.914Z" fill="black"/>
<path d="M370.123 244.412C370.055 244.428 369.985 244.428 369.917 244.412C369.85 244.385 369.789 244.344 369.738 244.293C369.688 244.242 369.648 244.181 369.622 244.114C369.595 244.047 369.583 243.975 369.585 243.903C369.587 243.83 369.604 243.76 369.634 243.694L374.767 231.726L352.962 219.595C352.837 219.525 352.745 219.407 352.706 219.268C352.668 219.13 352.685 218.981 352.756 218.856C352.79 218.793 352.836 218.737 352.892 218.692C352.948 218.647 353.012 218.613 353.08 218.593C353.149 218.573 353.221 218.566 353.292 218.574C353.364 218.582 353.433 218.604 353.495 218.638L375.724 231.019C375.839 231.086 375.926 231.192 375.968 231.318C376.01 231.445 376.005 231.582 375.952 231.705L370.613 244.086C370.572 244.182 370.504 244.265 370.417 244.323C370.33 244.381 370.228 244.412 370.123 244.412Z" fill="black"/>
<path d="M375.593 225.188C371.45 225.188 366.589 222.718 364.718 219.682C364.315 219.118 364.072 218.455 364.015 217.764C363.958 217.072 364.088 216.378 364.392 215.755C365.164 214.395 366.948 213.579 369.275 213.579C373.429 213.579 378.279 216.06 380.15 219.095C380.556 219.658 380.801 220.321 380.859 221.013C380.916 221.705 380.784 222.4 380.476 223.023C379.704 224.415 377.975 225.188 375.593 225.188ZM369.275 214.7C367.35 214.7 365.915 215.276 365.338 216.288C365.131 216.746 365.051 217.251 365.106 217.751C365.162 218.251 365.351 218.726 365.654 219.128C367.296 221.869 371.744 224.1 375.55 224.1C377.486 224.1 378.91 223.523 379.487 222.522C379.695 222.064 379.776 221.559 379.721 221.059C379.665 220.559 379.475 220.083 379.171 219.682C377.573 216.941 373.125 214.7 369.275 214.7Z" fill="black"/>
<path d="M329.962 242.454L286.625 170.006C286.553 169.883 286.532 169.736 286.566 169.598C286.601 169.459 286.688 169.34 286.81 169.266C286.871 169.227 286.939 169.201 287.01 169.189C287.082 169.177 287.155 169.18 287.225 169.197C287.295 169.214 287.361 169.246 287.419 169.289C287.476 169.333 287.524 169.388 287.56 169.451L330.951 241.899L329.962 242.454Z" fill="black"/>
<path d="M318.162 242.715C318.068 242.717 317.976 242.693 317.893 242.647C317.811 242.602 317.743 242.535 317.695 242.454L274.304 170.006C274.231 169.883 274.21 169.736 274.245 169.598C274.279 169.459 274.367 169.34 274.488 169.266C274.549 169.227 274.618 169.201 274.689 169.189C274.76 169.177 274.833 169.18 274.903 169.197C274.974 169.214 275.039 169.246 275.097 169.289C275.155 169.333 275.203 169.388 275.239 169.451L318.63 241.899C318.701 242.023 318.721 242.171 318.684 242.309C318.648 242.448 318.558 242.566 318.434 242.639C318.353 242.689 318.258 242.716 318.162 242.715Z" fill="black"/>
<path d="M305.45 242.454L262.058 170.006C261.988 169.882 261.969 169.735 262.005 169.597C262.042 169.459 262.131 169.341 262.253 169.268C262.376 169.196 262.522 169.174 262.661 169.208C262.799 169.242 262.919 169.329 262.994 169.451L306.374 241.899L305.45 242.454Z" fill="black"/>
<path d="M272.923 204.364H237.688C237.595 204.364 237.505 204.339 237.425 204.294C237.345 204.248 237.278 204.182 237.231 204.103L216.568 169.527C216.517 169.445 216.489 169.351 216.487 169.254C216.485 169.158 216.51 169.062 216.558 168.979C216.606 168.895 216.675 168.826 216.76 168.779C216.844 168.731 216.939 168.708 217.036 168.711H252.249C252.343 168.71 252.435 168.734 252.517 168.78C252.599 168.826 252.668 168.892 252.717 168.972L273.379 203.548C273.427 203.631 273.452 203.724 273.452 203.82C273.452 203.915 273.427 204.009 273.379 204.092C273.335 204.175 273.27 204.244 273.189 204.292C273.108 204.34 273.016 204.365 272.923 204.364ZM238.014 203.276H271.966L251.912 169.799H217.96L238.014 203.276Z" fill="black"/>
<path d="M243.386 195.203C243.274 195.203 243.164 195.168 243.071 195.105C243.012 195.064 242.962 195.011 242.923 194.951C242.885 194.89 242.859 194.822 242.847 194.752C242.835 194.681 242.837 194.608 242.853 194.538C242.869 194.468 242.898 194.402 242.94 194.344L250.248 183.899L227.878 169.755C227.816 169.719 227.763 169.67 227.72 169.612C227.678 169.554 227.647 169.487 227.631 169.417C227.615 169.347 227.613 169.274 227.625 169.203C227.638 169.133 227.665 169.065 227.704 169.005C227.782 168.884 227.905 168.799 228.046 168.768C228.186 168.737 228.333 168.764 228.455 168.841L251.292 183.333C251.414 183.414 251.5 183.539 251.531 183.681C251.547 183.754 251.548 183.83 251.533 183.903C251.518 183.976 251.488 184.045 251.444 184.106L243.832 194.985C243.78 195.055 243.713 195.11 243.635 195.148C243.558 195.186 243.472 195.205 243.386 195.203Z" fill="black"/>
<path d="M248.867 204.364C248.757 204.358 248.651 204.32 248.562 204.255C248.505 204.213 248.455 204.16 248.418 204.099C248.381 204.038 248.356 203.97 248.345 203.899C248.333 203.828 248.336 203.756 248.353 203.686C248.37 203.617 248.401 203.551 248.443 203.493L252.793 197.499L244.908 192.483C244.844 192.447 244.788 192.397 244.744 192.338C244.699 192.279 244.667 192.212 244.65 192.14C244.632 192.069 244.629 191.994 244.642 191.921C244.654 191.848 244.681 191.779 244.721 191.716C244.76 191.654 244.813 191.601 244.874 191.56C244.935 191.518 245.004 191.49 245.076 191.476C245.149 191.462 245.224 191.464 245.296 191.48C245.368 191.496 245.436 191.526 245.496 191.569L253.869 196.889C253.934 196.927 253.989 196.979 254.031 197.041C254.072 197.103 254.099 197.174 254.109 197.248C254.125 197.321 254.125 197.397 254.11 197.47C254.095 197.543 254.065 197.612 254.022 197.673L249.302 204.135C249.252 204.204 249.187 204.261 249.111 204.3C249.036 204.34 248.952 204.362 248.867 204.364Z" fill="black"/>
<path d="M257.513 197.074C256.556 197.065 255.615 196.833 254.764 196.396C253.913 195.96 253.175 195.332 252.608 194.561C252.405 194.274 252.284 193.936 252.259 193.585C252.234 193.234 252.306 192.883 252.467 192.57C252.727 192.194 253.083 191.895 253.498 191.704C253.913 191.512 254.372 191.436 254.827 191.482C255.783 191.489 256.725 191.72 257.577 192.157C258.428 192.593 259.166 193.223 259.731 193.995C259.934 194.283 260.055 194.62 260.08 194.971C260.105 195.322 260.033 195.673 259.873 195.986C259.61 196.36 259.253 196.657 258.839 196.848C258.425 197.039 257.967 197.117 257.513 197.074ZM254.827 192.581C254.566 192.545 254.301 192.574 254.054 192.665C253.808 192.756 253.587 192.907 253.413 193.103C253.356 193.252 253.338 193.414 253.361 193.572C253.383 193.73 253.446 193.879 253.543 194.006C254.014 194.613 254.616 195.106 255.303 195.449C255.99 195.791 256.745 195.975 257.513 195.986C257.773 196.022 258.038 195.994 258.285 195.902C258.531 195.811 258.752 195.661 258.926 195.464C258.983 195.315 259.001 195.154 258.979 194.996C258.956 194.838 258.893 194.688 258.796 194.561C258.327 193.953 257.726 193.459 257.038 193.116C256.351 192.773 255.595 192.59 254.827 192.581Z" fill="black"/>
<path d="M296.173 243.194H260.96C260.866 243.194 260.774 243.17 260.692 243.125C260.61 243.079 260.541 243.013 260.492 242.932L239.83 208.357C239.782 208.274 239.757 208.18 239.757 208.085C239.757 207.989 239.782 207.895 239.83 207.813C239.875 207.728 239.942 207.658 240.025 207.61C240.107 207.562 240.202 207.538 240.298 207.541H275.522C275.614 207.541 275.704 207.565 275.784 207.611C275.865 207.657 275.931 207.722 275.978 207.802L296.641 242.378C296.692 242.459 296.72 242.554 296.722 242.65C296.724 242.747 296.7 242.842 296.652 242.926C296.604 243.01 296.534 243.079 296.45 243.126C296.365 243.173 296.27 243.197 296.173 243.194ZM261.265 242.106H295.216L275.163 208.607H241.211L261.265 242.106Z" fill="black"/>
<path d="M266.637 234.033C266.524 234.032 266.415 233.998 266.321 233.935C266.205 233.85 266.126 233.723 266.102 233.581C266.078 233.438 266.109 233.292 266.191 233.173L273.499 222.729L251.129 208.585C251.065 208.549 251.009 208.499 250.964 208.44C250.92 208.381 250.888 208.314 250.87 208.242C250.853 208.17 250.85 208.096 250.862 208.023C250.874 207.95 250.901 207.881 250.941 207.818C250.981 207.756 251.033 207.703 251.094 207.662C251.156 207.62 251.225 207.592 251.297 207.578C251.37 207.564 251.444 207.566 251.516 207.582C251.588 207.598 251.656 207.628 251.716 207.671L274.554 222.163C274.617 222.2 274.672 222.25 274.713 222.31C274.754 222.37 274.782 222.439 274.793 222.511C274.809 222.584 274.81 222.66 274.795 222.733C274.78 222.806 274.749 222.875 274.706 222.936L267.094 233.815C267.04 233.885 266.97 233.94 266.891 233.978C266.812 234.016 266.725 234.035 266.637 234.033Z" fill="black"/>
<path d="M272.129 243.194C272.012 243.195 271.899 243.161 271.802 243.096C271.688 243.009 271.611 242.881 271.589 242.739C271.566 242.597 271.6 242.452 271.683 242.334L276.033 236.339L268.137 231.324C268.073 231.287 268.017 231.238 267.973 231.179C267.928 231.12 267.896 231.053 267.879 230.981C267.861 230.909 267.858 230.835 267.871 230.762C267.883 230.689 267.91 230.619 267.95 230.557C267.989 230.495 268.042 230.442 268.103 230.4C268.164 230.359 268.233 230.331 268.306 230.317C268.378 230.303 268.453 230.304 268.525 230.32C268.597 230.336 268.665 230.367 268.725 230.41L277.088 235.73C277.152 235.769 277.208 235.821 277.251 235.883C277.294 235.945 277.324 236.015 277.338 236.089C277.361 236.238 277.326 236.39 277.24 236.513L272.52 242.976C272.474 243.038 272.415 243.089 272.347 243.126C272.28 243.164 272.205 243.187 272.129 243.194Z" fill="black"/>
<path d="M280.774 235.904C279.817 235.9 278.874 235.67 278.022 235.233C277.17 234.797 276.433 234.165 275.87 233.391C275.68 233.108 275.569 232.779 275.548 232.439C275.527 232.099 275.597 231.759 275.75 231.454C276.013 231.081 276.369 230.784 276.784 230.593C277.198 230.402 277.656 230.324 278.11 230.366C279.067 230.371 280.01 230.601 280.862 231.037C281.714 231.474 282.451 232.105 283.015 232.88C283.219 233.166 283.342 233.503 283.369 233.854C283.396 234.205 283.326 234.557 283.167 234.871C282.895 235.239 282.53 235.529 282.11 235.711C281.69 235.892 281.229 235.959 280.774 235.904ZM278.077 231.454C277.817 231.419 277.552 231.449 277.306 231.54C277.059 231.631 276.839 231.781 276.664 231.977C276.608 232.126 276.592 232.287 276.614 232.445C276.637 232.602 276.699 232.752 276.794 232.88C277.267 233.486 277.87 233.979 278.559 234.322C279.248 234.665 280.005 234.848 280.774 234.86C281.035 234.895 281.3 234.865 281.546 234.774C281.792 234.683 282.013 234.533 282.188 234.338C282.244 234.187 282.26 234.026 282.235 233.868C282.21 233.709 282.145 233.56 282.047 233.435C281.577 232.826 280.976 232.332 280.289 231.989C279.601 231.646 278.845 231.463 278.077 231.454Z" fill="black"/>
<path d="M221.495 200.132C220.34 200.114 219.207 199.815 218.194 199.261C217.18 198.708 216.316 197.916 215.677 196.955L206.335 180.211C206.093 179.849 205.953 179.429 205.93 178.994C205.907 178.559 206.002 178.126 206.204 177.741C206.51 177.317 206.92 176.98 207.394 176.763C207.869 176.545 208.392 176.455 208.912 176.501C210.066 176.522 211.198 176.822 212.211 177.375C213.224 177.928 214.089 178.718 214.73 179.678L224.072 196.422C224.31 196.785 224.447 197.206 224.468 197.64C224.489 198.074 224.394 198.506 224.192 198.891C223.891 199.318 223.484 199.657 223.01 199.874C222.536 200.092 222.014 200.181 221.495 200.132ZM208.912 177.589C208.581 177.549 208.245 177.592 207.936 177.716C207.626 177.84 207.352 178.039 207.14 178.296C207.042 178.519 207.004 178.763 207.029 179.005C207.054 179.247 207.141 179.479 207.281 179.678L216.623 196.422C217.173 197.21 217.9 197.858 218.746 198.313C219.593 198.769 220.534 199.019 221.495 199.044C221.823 199.085 222.157 199.043 222.465 198.921C222.773 198.8 223.045 198.602 223.256 198.347C223.357 198.123 223.396 197.877 223.372 197.632C223.347 197.388 223.258 197.154 223.115 196.955L213.763 180.211C213.215 179.425 212.491 178.779 211.649 178.324C210.806 177.869 209.869 177.617 208.912 177.589Z" fill="black"/>
<path d="M244.745 235.904C243.613 235.895 242.499 235.622 241.49 235.107C240.482 234.591 239.608 233.847 238.938 232.934L229.596 217.311C229.358 216.984 229.215 216.597 229.185 216.193C229.154 215.79 229.236 215.385 229.422 215.026C229.73 214.596 230.145 214.255 230.626 214.038C231.107 213.82 231.637 213.733 232.163 213.786C233.296 213.793 234.411 214.065 235.419 214.581C236.428 215.097 237.301 215.842 237.97 216.756L247.312 232.357C247.564 232.693 247.713 233.095 247.742 233.514C247.771 233.933 247.678 234.351 247.475 234.718C247.162 235.136 246.746 235.466 246.267 235.674C245.789 235.881 245.264 235.961 244.745 235.904ZM239.862 232.379C240.44 233.124 241.178 233.73 242.021 234.152C242.865 234.574 243.792 234.801 244.734 234.816C245.067 234.859 245.405 234.818 245.718 234.699C246.031 234.579 246.309 234.384 246.529 234.131C246.611 233.935 246.64 233.722 246.613 233.512C246.586 233.302 246.505 233.103 246.377 232.934L237.035 217.311C236.458 216.564 235.721 215.958 234.877 215.536C234.034 215.114 233.106 214.888 232.163 214.874C231.831 214.832 231.493 214.873 231.18 214.992C230.867 215.112 230.589 215.307 230.369 215.559C230.292 215.756 230.266 215.969 230.295 216.179C230.323 216.388 230.405 216.587 230.532 216.756L239.862 232.379Z" fill="black"/>
<path d="M421.018 252.256C420.923 252.256 420.83 252.23 420.748 252.183C420.666 252.135 420.598 252.067 420.551 251.984L366.959 160.867C366.888 160.743 366.869 160.596 366.905 160.458C366.942 160.32 367.031 160.202 367.154 160.129C367.276 160.057 367.423 160.035 367.561 160.069C367.7 160.103 367.819 160.19 367.894 160.312L421.475 251.43C421.547 251.556 421.567 251.705 421.53 251.845C421.493 251.985 421.403 252.106 421.279 252.18C421.199 252.225 421.11 252.251 421.018 252.256Z" fill="black"/>
<path d="M383.508 169.438C383.978 168.412 382.922 166.919 381.148 166.105C379.374 165.29 377.554 165.462 377.083 166.489C376.612 167.515 377.668 169.008 379.443 169.823C381.217 170.637 383.037 170.465 383.508 169.438Z" fill="black"/>
<path d="M395.832 196.345C395.737 196.345 395.644 196.319 395.562 196.272C395.48 196.224 395.412 196.156 395.364 196.073L382.923 173.792C382.852 173.665 382.835 173.515 382.875 173.375C382.915 173.235 383.008 173.117 383.135 173.047C383.262 172.976 383.412 172.958 383.552 172.998C383.691 173.038 383.81 173.132 383.88 173.259L396.31 195.551C396.381 195.677 396.399 195.825 396.36 195.964C396.321 196.103 396.229 196.22 396.104 196.291C396.018 196.33 395.925 196.348 395.832 196.345Z" fill="black"/>
<path d="M206.683 198.162L204.508 196.835L205.236 196.052L208.76 198.228L209.489 199.533H201.039L200.288 198.195L206.683 198.162Z" fill="black"/>
<path d="M205.432 207.519L203.094 203.341H204.084L208.977 205.952L209.543 206.257L210.152 206.529L210.761 206.725C210.954 206.767 211.151 206.789 211.348 206.79C211.542 206.798 211.734 206.765 211.914 206.692C212.05 206.645 212.162 206.548 212.229 206.42C212.296 206.297 212.319 206.155 212.294 206.018C212.269 205.841 212.21 205.671 212.12 205.517C211.917 205.168 211.629 204.877 211.283 204.669C210.915 204.429 210.499 204.273 210.065 204.212L209.771 203.504C210.43 203.587 211.062 203.818 211.62 204.179C212.142 204.498 212.576 204.943 212.882 205.474C213.024 205.707 213.12 205.965 213.164 206.235C213.227 206.441 213.227 206.66 213.164 206.866C213.075 207.061 212.916 207.216 212.719 207.301C212.445 207.423 212.147 207.479 211.848 207.465C211.526 207.463 211.205 207.423 210.891 207.345C210.572 207.268 210.26 207.166 209.956 207.04C209.652 206.921 209.347 206.779 209.043 206.627L208.14 206.137L204.345 204.059L206.27 207.519H205.432Z" fill="black"/>
<path d="M212.675 211.773L212.86 212.11C212.971 212.308 213.102 212.494 213.251 212.665C213.408 212.84 213.587 212.994 213.784 213.122C213.984 213.261 214.204 213.368 214.437 213.438C214.69 213.518 214.954 213.558 215.22 213.557C215.677 213.557 215.97 213.448 216.101 213.231C216.231 213.024 216.188 212.719 215.97 212.339C215.808 212.048 215.586 211.796 215.318 211.599C215.019 211.378 214.689 211.202 214.339 211.077V210.5C214.855 210.67 215.34 210.923 215.774 211.251C216.15 211.55 216.464 211.92 216.699 212.339C216.829 212.568 216.917 212.818 216.96 213.079C216.994 213.282 216.963 213.491 216.873 213.677C216.774 213.864 216.612 214.01 216.416 214.09C216.145 214.206 215.851 214.258 215.557 214.243C215.322 214.246 215.088 214.217 214.861 214.156C214.621 214.101 214.388 214.02 214.165 213.916C213.939 213.821 213.723 213.7 213.523 213.557C213.338 213.43 213.164 213.288 213.001 213.133C213.05 213.3 213.05 213.477 213.001 213.644C212.959 213.803 212.868 213.944 212.74 214.047C212.592 214.166 212.422 214.255 212.24 214.308C212.015 214.377 211.78 214.41 211.544 214.406C211.175 214.4 210.809 214.341 210.457 214.232C209.755 214.031 209.116 213.657 208.597 213.144C208.356 212.9 208.147 212.626 207.977 212.328C207.734 211.955 207.63 211.508 207.683 211.066C207.749 210.707 208.031 210.435 208.532 210.261L209.195 210.968C209.059 210.995 208.932 211.055 208.824 211.142C208.716 211.229 208.63 211.341 208.575 211.468C208.549 211.63 208.555 211.795 208.594 211.954C208.634 212.113 208.705 212.262 208.804 212.393C208.912 212.589 209.051 212.765 209.217 212.915C209.393 213.088 209.591 213.238 209.804 213.361C210.021 213.492 210.255 213.591 210.5 213.655C210.739 213.729 210.989 213.766 211.24 213.764C211.49 213.779 211.741 213.73 211.968 213.623C212.12 213.545 212.236 213.413 212.294 213.253C212.343 213.078 212.343 212.894 212.294 212.719C212.234 212.499 212.146 212.287 212.033 212.088L211.87 211.806L212.675 211.773Z" fill="black"/>
<path d="M215.644 220.77L216.177 221.717H215.383L214.85 220.77H212.849L212.479 220.096H214.48L212.892 217.311H213.871L220.82 219.965L221.299 220.825L215.644 220.77ZM220.07 220.096L214.002 217.822L215.274 220.107L220.07 220.096Z" fill="black"/>
<path d="M197.635 202.079C197.537 202.081 197.44 202.055 197.356 202.005C197.271 201.955 197.202 201.883 197.156 201.796L193.829 195.845C193.762 195.717 193.747 195.569 193.788 195.431C193.828 195.293 193.921 195.176 194.046 195.105C194.172 195.035 194.32 195.017 194.459 195.056C194.597 195.094 194.715 195.186 194.786 195.312L198.113 201.274C198.18 201.401 198.195 201.55 198.154 201.688C198.114 201.826 198.021 201.943 197.896 202.014C197.816 202.057 197.726 202.08 197.635 202.079Z" fill="black"/>
<path d="M315.15 72.8713C313.736 67.1595 309.713 61.5564 303.003 63.6888C302.551 63.8869 302.06 63.9799 301.567 63.9608C301.179 63.8864 300.809 63.7347 300.48 63.5148C294.074 60.0224 285.103 62.7205 279.535 66.8657C273.967 71.0109 270.476 77.3103 264.429 80.3566C261.167 81.9777 257.545 82.5325 254.022 83.3376C250.498 84.1427 246.899 85.5136 244.517 88.19C242.135 90.8664 241.45 95.4033 243.886 98.0797C246.061 100.43 249.802 100.702 251.999 103.008C251.149 102.952 250.298 103.087 249.507 103.403C248.716 103.718 248.006 104.207 247.429 104.833C246.851 105.459 246.421 106.206 246.169 107.02C245.917 107.833 245.851 108.693 245.974 109.536C246.583 112.419 249.324 114.269 251.901 115.705C260.982 120.742 271.117 124.409 281.503 124.158C289.363 124.053 296.941 121.214 302.938 116.129C309.31 110.461 311.877 104.466 314.269 96.3389C316.637 88.7327 316.941 80.6337 315.15 72.8713Z" fill="white"/>
<path d="M280.372 124.713C271.498 124.713 261.884 121.841 251.64 116.173C248.943 114.671 246.094 112.724 245.441 109.645C245.275 108.718 245.332 107.764 245.608 106.863C245.884 105.962 246.372 105.141 247.029 104.466C247.955 103.439 249.193 102.747 250.553 102.497C249.665 101.944 248.729 101.47 247.758 101.082C246.166 100.512 244.713 99.6114 243.495 98.4387C240.743 95.4468 241.679 90.6053 244.115 87.831C246.746 84.8281 250.727 83.577 253.902 82.8154L256.306 82.2823C259.02 81.8057 261.664 80.9944 264.179 79.867C267.616 78.148 270.204 75.3519 272.944 72.4035C274.845 70.2248 276.942 68.2254 279.208 66.4305C284.863 62.2201 294.009 59.3696 300.741 63.0469C301.016 63.2281 301.322 63.3572 301.643 63.4277C301.991 63.4353 302.335 63.3685 302.655 63.2319L302.84 63.1666C303.962 62.7653 305.156 62.6054 306.344 62.6973C307.532 62.7891 308.687 63.1307 309.734 63.6997C312.464 65.2337 314.628 68.5303 315.672 72.7408C317.471 80.5847 317.155 88.7656 314.759 96.4477C312.279 104.869 309.615 110.852 303.275 116.488C297.192 121.658 289.505 124.557 281.525 124.692L280.372 124.713ZM251.412 103.509C250.729 103.529 250.058 103.69 249.44 103.982C248.823 104.274 248.272 104.691 247.823 105.206C247.283 105.754 246.881 106.422 246.651 107.156C246.42 107.89 246.367 108.669 246.496 109.427C247.062 112.082 249.683 113.844 252.162 115.226C262.635 121.047 272.466 123.93 281.525 123.614C289.251 123.482 296.693 120.68 302.59 115.683C308.734 110.243 311.29 104.379 313.758 96.0996C316.09 88.5998 316.402 80.6171 314.661 72.9584C313.682 69.0416 311.714 65.9953 309.223 64.6027C308.305 64.1093 307.293 63.8147 306.253 63.7378C305.213 63.661 304.169 63.8037 303.188 64.1566L303.014 64.2219C302.586 64.4274 302.112 64.5146 301.639 64.4744C301.167 64.4342 300.714 64.2681 300.328 63.9935C294.216 60.6534 285.429 63.1231 279.872 67.2574C277.66 69.0142 275.615 70.9698 273.76 73.0998C271.074 75.9938 268.322 78.9748 264.69 80.7918C262.095 81.9651 259.362 82.8059 256.556 83.2941L254.174 83.8272C251.162 84.5453 247.377 85.7312 244.941 88.5055C242.766 90.9208 241.972 95.1095 244.31 97.6662C245.431 98.7215 246.762 99.5296 248.215 100.038C249.77 100.603 251.197 101.472 252.412 102.595C252.493 102.675 252.545 102.778 252.563 102.89C252.58 103.002 252.562 103.117 252.51 103.218C252.457 103.319 252.375 103.4 252.273 103.45C252.171 103.501 252.056 103.517 251.945 103.498C251.767 103.489 251.589 103.493 251.412 103.509Z" fill="#231F20"/>
<path d="M264.538 98.0905C267.92 96.785 258.894 94.8266 250.781 109.993C244.593 121.613 239.275 142.839 239.275 142.839L203.681 152.141L217.319 164.109C217.319 164.109 255.968 156.765 256.664 155.231C257.36 153.697 264.538 98.0905 264.538 98.0905Z" fill="white"/>
<path d="M217.319 164.598C217.197 164.598 217.081 164.551 216.992 164.468L203.355 152.5C203.286 152.441 203.235 152.364 203.208 152.277C203.181 152.191 203.179 152.098 203.203 152.011C203.223 151.923 203.265 151.843 203.327 151.778C203.388 151.713 203.465 151.666 203.551 151.641L238.862 142.425C239.525 139.847 244.582 120.557 250.346 109.786C256.741 97.8186 263.537 96.4804 264.995 96.7306C265.647 96.8612 265.745 97.2637 265.767 97.4378C265.767 97.8186 265.538 98.145 264.995 98.4061C264.114 105.282 257.828 153.893 257.121 155.394C256.414 156.896 231.946 161.791 217.417 164.555L217.319 164.598ZM204.715 152.38L217.471 163.565C231.891 160.823 254.968 156.09 256.273 154.926C256.751 153.621 261.188 120.176 264.049 98.0253C264.062 97.9066 264.12 97.7976 264.212 97.7207C263.872 97.7527 263.536 97.822 263.211 97.9274C261.7 98.3626 256.382 100.549 251.249 110.232C245.159 121.656 239.841 142.752 239.786 142.959C239.766 143.046 239.722 143.126 239.658 143.19C239.595 143.253 239.515 143.297 239.428 143.318L204.715 152.38Z" fill="#231F20"/>
<path d="M315.553 106.414C314.965 105.249 272.27 88.2226 258.578 98.7216C244.887 109.221 250.966 163.184 250.966 163.184L310.844 172.236C310.844 172.236 331.484 138.084 315.553 106.414Z" fill="black"/>
<path d="M277.131 105.108C277.131 105.108 265.364 156.003 265.266 156.449C265.169 156.896 279.959 162.433 280.491 161.77C281.024 161.106 292.323 112.387 292.323 112.387L278.795 106.49" fill="#231F20"/>
<path d="M280.35 162.281C277.414 162.281 265.625 157.309 265.495 157.255C265.093 157.048 264.636 156.819 264.745 156.33C264.853 155.84 276.12 107.055 276.598 104.977C276.632 104.838 276.719 104.717 276.842 104.642C276.964 104.566 277.111 104.542 277.251 104.575C277.39 104.608 277.511 104.696 277.587 104.818C277.662 104.941 277.686 105.088 277.653 105.228C277.544 105.717 266.887 151.836 265.876 156.232C267.681 157.211 278.349 161.149 280.176 161.28C280.97 158.908 287.43 131.35 291.736 112.702L278.621 106.99C278.555 106.962 278.496 106.92 278.446 106.869C278.396 106.817 278.357 106.756 278.331 106.69C278.305 106.623 278.292 106.552 278.293 106.48C278.294 106.409 278.31 106.338 278.338 106.272C278.367 106.206 278.408 106.147 278.46 106.097C278.511 106.047 278.572 106.008 278.639 105.982C278.705 105.956 278.776 105.943 278.848 105.944C278.92 105.945 278.99 105.961 279.056 105.989L292.585 111.886C292.701 111.936 292.795 112.026 292.851 112.14C292.907 112.254 292.92 112.383 292.889 112.506C288.68 130.751 281.536 161.465 280.927 162.129C280.76 162.249 280.555 162.304 280.35 162.281Z" fill="#231F20"/>
<path d="M295.249 103.073L292.062 113.224C292.062 113.224 289.311 117.456 282.993 113.779C276.674 110.102 277.088 105.075 277.088 105.075L283.613 86.3296C283.613 86.3296 295.977 83.849 297.75 72.447C298.325 75.3851 299.79 78.0749 301.946 80.1516C304.101 82.2283 306.843 83.5913 309.8 84.0557C309.8 84.0557 307.005 93.8475 304.601 98.9065C302.198 103.966 295.249 103.073 295.249 103.073Z" fill="white"/>
<path d="M287.799 115.814C286.011 115.751 284.272 115.21 282.764 114.247C276.239 110.428 276.566 105.282 276.587 105.064C276.576 105.018 276.576 104.97 276.587 104.923L283.112 86.1773C283.141 86.0879 283.194 86.0081 283.265 85.9467C283.336 85.8853 283.422 85.8446 283.515 85.8291C283.634 85.8291 295.477 83.2832 297.25 72.3926C297.27 72.2658 297.335 72.1503 297.433 72.0666C297.53 71.983 297.654 71.9366 297.783 71.9357C297.912 71.9362 298.038 71.9822 298.137 72.0657C298.237 72.1492 298.304 72.2649 298.326 72.3926C298.863 75.2263 300.267 77.8229 302.344 79.8229C304.421 81.8229 307.068 83.1272 309.919 83.5552C309.995 83.565 310.067 83.5916 310.131 83.633C310.195 83.6744 310.249 83.7296 310.289 83.7946C310.332 83.8597 310.36 83.9333 310.371 84.0104C310.382 84.0875 310.377 84.1661 310.354 84.2407C308.923 89.3204 307.176 94.3057 305.123 99.1677C302.948 103.781 297.25 103.759 295.586 103.639L292.584 113.431L292.519 113.562C291.961 114.277 291.244 114.854 290.425 115.244C289.606 115.635 288.707 115.83 287.799 115.814ZM277.664 105.249C277.664 105.837 277.664 110.08 283.319 113.355C288.756 116.51 291.279 113.475 291.606 113.028L294.727 102.943C294.764 102.82 294.844 102.715 294.951 102.645C295.059 102.576 295.187 102.546 295.314 102.562C295.379 102.562 301.991 103.345 304.188 98.7433C306.15 94.1395 307.817 89.4154 309.18 84.5997C306.602 84.1084 304.2 82.9439 302.218 81.2243C300.235 79.5046 298.743 77.291 297.891 74.8079C295.249 83.7293 285.929 86.4819 284.08 86.9388L277.664 105.249Z" fill="#231F20"/>
<path d="M292.617 79.7038L272.183 86.7756L273.162 89.0713L293.357 82.5325L292.617 79.7038Z" fill="#231F20"/>
<path d="M273.162 89.6043C273.057 89.604 272.955 89.5728 272.868 89.5148C272.781 89.4568 272.713 89.3744 272.672 89.2779L271.683 86.9823C271.651 86.9161 271.634 86.8436 271.634 86.7702C271.634 86.6967 271.651 86.6242 271.683 86.558C271.711 86.4894 271.754 86.4277 271.809 86.3771C271.863 86.3264 271.928 86.2879 271.998 86.2643L292.443 79.138C292.512 79.1087 292.586 79.0936 292.661 79.0936C292.735 79.0936 292.809 79.1087 292.878 79.138C292.943 79.1721 293 79.2199 293.045 79.2781C293.09 79.3363 293.122 79.4036 293.139 79.4753L293.879 82.304C293.916 82.4382 293.899 82.5816 293.832 82.7035C293.765 82.8255 293.653 82.9164 293.52 82.9568L273.336 89.4847C273.287 89.537 273.228 89.5779 273.162 89.6043ZM272.901 87.0911L273.466 88.3967L292.704 82.1735L292.247 80.4001L272.901 87.0911Z" fill="#231F20"/>
<path d="M287.049 86.7539C287.09 85.7508 286.812 84.7606 286.255 83.9251C285.69 83.1768 285.003 82.5294 284.222 82.0103C283.828 81.6848 283.368 81.4507 282.873 81.3249C282.51 81.2742 282.14 81.2964 281.786 81.3902C280.937 81.5271 280.166 81.9632 279.611 82.6196C279.254 83.2134 279.048 83.8859 279.013 84.5779C278.882 85.2955 278.849 86.0275 278.915 86.7539C278.997 87.4952 279.225 88.2128 279.588 88.8647C279.95 89.5166 280.439 90.0897 281.025 90.5506C281.611 91.0115 282.283 91.3508 283.002 91.5489C283.721 91.747 284.472 91.7997 285.211 91.7042" fill="white"/>
<path d="M284.45 92.3243C283.063 92.3222 281.717 91.8591 280.622 91.0079C279.983 90.5012 279.45 89.8732 279.055 89.16C278.659 88.4468 278.408 87.6623 278.317 86.8518C278.234 86.0606 278.267 85.2616 278.414 84.48C278.485 83.7029 278.746 82.9553 279.176 82.3041C279.803 81.5434 280.683 81.0337 281.655 80.8679C282.075 80.7651 282.51 80.743 282.938 80.8027C283.521 80.9383 284.064 81.2064 284.526 81.586C285.362 82.1395 286.097 82.8312 286.701 83.6314C287.334 84.5621 287.647 85.6732 287.593 86.7974C287.592 86.8699 287.576 86.9413 287.545 87.0072C287.515 87.0731 287.472 87.132 287.417 87.1801C287.363 87.2282 287.299 87.2645 287.23 87.2866C287.161 87.3088 287.089 87.3163 287.017 87.3087C286.946 87.306 286.876 87.289 286.812 87.259C286.747 87.2289 286.69 87.1862 286.642 87.1335C286.594 87.0808 286.558 87.0191 286.534 86.952C286.511 86.885 286.501 86.8139 286.505 86.743C286.547 85.8576 286.299 84.9828 285.799 84.2515C285.273 83.5539 284.633 82.9506 283.906 82.4673C283.587 82.1982 283.217 81.9948 282.819 81.8689C282.531 81.8351 282.239 81.8573 281.96 81.9341C281.248 82.0538 280.599 82.4149 280.122 82.9568C279.799 83.4613 279.601 84.0358 279.545 84.6323C279.423 85.318 279.394 86.0169 279.458 86.7104C279.532 87.3801 279.739 88.0283 280.066 88.6173C280.393 89.2062 280.835 89.7239 281.364 90.1402C281.894 90.5566 282.501 90.8631 283.15 91.042C283.8 91.2208 284.478 91.2684 285.146 91.1819C285.289 91.1692 285.432 91.2117 285.545 91.3006C285.658 91.3895 285.733 91.5183 285.755 91.6606C285.77 91.8046 285.729 91.9488 285.64 92.0627C285.55 92.1765 285.42 92.2509 285.277 92.2699C285.003 92.3072 284.726 92.3254 284.45 92.3243Z" fill="#231F20"/>
<path d="M301.154 87.4828C301.154 87.4828 303.329 93.8039 302.242 94.5111C301.154 95.2183 298.914 93.978 298.914 93.978" fill="white"/>
<path d="M301.382 95.2727C300.42 95.2068 299.484 94.9281 298.642 94.4567C298.517 94.3859 298.425 94.2682 298.386 94.1295C298.347 93.9909 298.365 93.8425 298.435 93.7169C298.506 93.5916 298.624 93.4994 298.762 93.4607C298.901 93.4219 299.049 93.4397 299.175 93.5102C299.816 93.8583 301.35 94.4567 301.948 94.0542C302.263 93.619 301.665 90.6271 300.632 87.6569C300.587 87.5213 300.597 87.3733 300.66 87.245C300.723 87.1168 300.834 87.0185 300.969 86.9715C301.106 86.926 301.256 86.9358 301.386 86.9987C301.516 87.0617 301.616 87.1729 301.665 87.3087C302.753 90.3768 303.742 94.1956 302.535 94.9246C302.193 95.1502 301.792 95.2712 301.382 95.2727Z" fill="#231F20"/>
<path d="M298.895 84.5203C299.16 83.8564 298.992 83.1644 298.518 82.9746C298.044 82.7848 297.444 83.169 297.179 83.8328C296.913 84.4966 297.082 85.1886 297.556 85.3785C298.03 85.5683 298.629 85.1841 298.895 84.5203Z" fill="#231F20"/>
<path d="M305.247 86.6817C305.584 86.0513 305.493 85.3448 305.043 85.1038C304.593 84.8628 303.955 85.1784 303.617 85.8088C303.28 86.4392 303.371 87.1457 303.821 87.3867C304.272 87.6277 304.91 87.3121 305.247 86.6817Z" fill="#231F20"/>
<path d="M301.252 97.2528C301.252 97.2528 290.899 99.4287 292.182 90.9316L301.252 97.2528Z" fill="white"/>
<path d="M298.588 98.047C296.601 98.1684 294.64 97.5481 293.085 96.3062C291.78 95.0659 291.301 93.2273 291.66 90.8664C291.671 90.7949 291.696 90.7263 291.733 90.6644C291.77 90.6025 291.819 90.5485 291.877 90.5056C291.935 90.4627 292.001 90.4316 292.071 90.4142C292.141 90.3967 292.214 90.3933 292.285 90.404C292.357 90.4147 292.425 90.4394 292.487 90.4766C292.549 90.5138 292.603 90.5629 292.646 90.621C292.689 90.6791 292.72 90.7451 292.737 90.8152C292.755 90.8853 292.758 90.9581 292.748 91.0296C292.443 93.0423 292.813 94.5546 293.835 95.5447C296.152 97.7206 301.111 96.7523 301.154 96.7414C301.224 96.7256 301.297 96.7241 301.367 96.737C301.438 96.75 301.505 96.7771 301.565 96.8167C301.625 96.8563 301.677 96.9077 301.716 96.9677C301.756 97.0277 301.783 97.095 301.796 97.1657C301.812 97.2351 301.813 97.3069 301.801 97.377C301.789 97.4471 301.763 97.514 301.724 97.5739C301.686 97.6337 301.636 97.6852 301.577 97.7254C301.518 97.7655 301.452 97.7935 301.382 97.8077C300.46 97.9751 299.525 98.0553 298.588 98.047Z" fill="#231F20"/>
<path d="M292.617 79.7038L297.228 79.7364L293.357 82.5325" fill="white"/>
<path d="M293.357 83.0765C293.27 83.0752 293.184 83.0539 293.107 83.0143C293.03 82.9747 292.963 82.9178 292.911 82.848C292.869 82.7895 292.839 82.7234 292.823 82.6534C292.807 82.5833 292.805 82.5108 292.817 82.44C292.829 82.3692 292.856 82.3015 292.894 82.2408C292.932 82.1801 292.982 82.1276 293.041 82.0864L295.564 80.226H292.617C292.472 80.2231 292.334 80.1634 292.232 80.0597C292.13 79.9559 292.073 79.8164 292.073 79.6711C292.076 79.5287 292.135 79.3932 292.236 79.2935C292.338 79.1938 292.475 79.138 292.617 79.138H297.217C297.361 79.1005 297.515 79.1218 297.643 79.1973C297.772 79.2728 297.865 79.3963 297.902 79.5406C297.94 79.6848 297.919 79.8381 297.843 79.9667C297.768 80.0952 297.644 80.1885 297.5 80.226L293.629 83.0112C293.546 83.0584 293.452 83.081 293.357 83.0765Z" fill="#231F20"/>
<path d="M295.249 103.073C295.249 103.073 290.007 101.322 288.05 99.0806C288.05 99.0806 288.05 105.739 293.259 109.155L295.249 103.073Z" fill="#231F20"/>
<path d="M293.259 109.688C293.152 109.686 293.047 109.656 292.954 109.601C287.593 106.065 287.517 99.3526 287.517 99.0697C287.518 98.9611 287.552 98.8553 287.614 98.7661C287.676 98.6769 287.764 98.6083 287.865 98.5692C287.967 98.5281 288.079 98.5197 288.186 98.545C288.293 98.5703 288.39 98.6282 288.463 98.7107C290.301 100.821 295.379 102.529 295.423 102.54C295.558 102.588 295.67 102.685 295.735 102.813C295.8 102.941 295.813 103.089 295.771 103.226L293.781 109.308C293.756 109.388 293.713 109.462 293.654 109.522C293.595 109.583 293.523 109.628 293.444 109.656C293.385 109.678 293.322 109.689 293.259 109.688ZM288.713 100.419C289.091 103.48 290.609 106.285 292.965 108.274L294.564 103.389C292.49 102.665 290.522 101.666 288.713 100.419Z" fill="#231F20"/>
<path d="M233.838 179.275L260.634 167.743L217.34 147.3L183.226 159.376L233.838 179.275Z" fill="white"/>
<path d="M233.838 179.776C233.78 179.786 233.721 179.786 233.664 179.776L183.051 159.866C182.956 159.832 182.872 159.77 182.813 159.687C182.755 159.604 182.723 159.505 182.723 159.403C182.723 159.302 182.755 159.203 182.813 159.12C182.872 159.037 182.956 158.974 183.051 158.941L217.166 146.864C217.289 146.815 217.425 146.815 217.547 146.864L260.84 167.264C260.929 167.302 261.003 167.366 261.054 167.448C261.104 167.529 261.129 167.625 261.123 167.721C261.123 167.816 261.095 167.908 261.042 167.987C260.99 168.067 260.916 168.129 260.829 168.167L234.033 179.699C233.976 179.742 233.909 179.768 233.838 179.776ZM184.65 159.398L233.838 178.742L259.437 167.721L217.329 147.844L184.65 159.398Z" fill="#231F20"/>
<path d="M306.004 110.102C306.004 110.102 296.478 157.973 292.889 157.896C289.3 157.82 246.779 152.206 244.31 152.152C241.842 152.098 235.154 153.327 233.327 154.85C231.5 156.373 227.019 163.739 228.977 164.054C230.934 164.37 235.817 165.425 237.514 165.349C239.21 165.273 243.092 162.085 243.092 162.085C243.092 162.085 240.994 165.926 243.256 165.958C245.518 165.991 250.868 163.119 250.868 163.119C250.868 163.119 298.185 183.529 307.135 176.316C316.085 169.103 323.111 147.735 322.904 128.782C322.697 109.83 311.137 100.974 306.004 110.102Z" fill="white"/>
<path d="M300.839 178.372C285.614 178.372 254.239 165.121 250.944 163.706C249.857 164.25 245.441 166.502 243.332 166.502C243.071 166.519 242.81 166.464 242.578 166.343C242.346 166.222 242.152 166.04 242.016 165.817C241.732 165.119 241.732 164.338 242.016 163.641C240.678 164.598 238.753 165.817 237.666 165.817C235.44 165.681 233.229 165.368 231.054 164.881L229.02 164.511C228.818 164.482 228.629 164.393 228.477 164.255C228.326 164.118 228.22 163.938 228.172 163.739C227.617 161.715 231.597 155.71 233.131 154.437C235.056 152.827 241.831 151.554 244.441 151.619C245.528 151.619 254.141 152.707 264.103 153.969C276.718 155.557 291.018 157.342 293.009 157.363C295.107 156.841 301.078 132.851 305.634 109.971C305.628 109.921 305.628 109.87 305.634 109.819C307.353 106.773 309.984 105.467 312.758 106.152C317.999 107.491 323.382 115.705 323.524 128.782C323.73 147.952 316.575 169.451 307.559 176.708C306.08 177.893 303.753 178.372 300.839 178.372ZM250.922 162.662C250.987 162.647 251.054 162.647 251.118 162.662C251.238 162.662 263.081 167.797 275.859 171.953C292.628 177.393 303.351 178.764 306.874 175.924C315.672 168.842 322.665 147.691 322.458 128.782C322.328 116.336 317.205 108.318 312.442 107.099C310.093 106.501 307.973 107.61 306.472 110.232C306.265 111.32 303.96 122.755 301.274 134.081C295.521 158.375 293.715 158.332 292.878 158.343C290.834 158.343 276.5 156.537 263.853 154.948C254.337 153.751 245.365 152.631 244.278 152.609C241.733 152.5 235.241 153.849 233.631 155.187C232.261 156.341 229.151 161.215 228.987 163.151C228.954 163.269 228.954 163.393 228.987 163.51L231.075 163.891C233.181 164.338 235.313 164.647 237.459 164.816C238.71 164.816 241.7 162.542 242.744 161.694C242.834 161.623 242.945 161.585 243.06 161.585C243.174 161.585 243.285 161.623 243.375 161.694C243.465 161.766 243.526 161.868 243.548 161.982C243.57 162.095 243.551 162.213 243.495 162.314C243.016 163.206 242.407 164.751 242.755 165.273C242.755 165.273 242.864 165.458 243.223 165.458C244.995 165.458 249.15 163.456 250.618 162.673C250.716 162.64 250.822 162.636 250.922 162.662Z" fill="#231F20"/>
<path d="M233.838 179.232C233.305 176.076 228.553 130.273 228.553 130.273L175.406 111.299L183.236 159.376L233.838 179.232Z" fill="white"/>
<path d="M233.838 179.776C233.78 179.786 233.721 179.786 233.664 179.776L183.052 159.866C182.971 159.834 182.9 159.783 182.845 159.716C182.79 159.649 182.752 159.57 182.736 159.485L174.917 111.418C174.907 111.332 174.917 111.245 174.947 111.163C174.977 111.082 175.027 111.009 175.091 110.95C175.159 110.897 175.24 110.861 175.325 110.846C175.41 110.831 175.498 110.837 175.58 110.863L228.727 129.859C228.813 129.892 228.889 129.948 228.947 130.021C229.004 130.094 229.041 130.181 229.053 130.273C229.053 130.73 233.805 176.12 234.327 179.232C234.343 179.318 234.335 179.407 234.304 179.489C234.274 179.572 234.221 179.644 234.153 179.699C234.059 179.758 233.948 179.784 233.838 179.776ZM183.671 159.017L233.229 178.503C232.37 171.812 228.52 134.777 228.096 130.632L176.037 112.027L183.671 159.017Z" fill="#231F20"/>
<path d="M209.684 149.062C209.692 147.058 209.198 145.083 208.249 143.318C207.685 142.159 206.802 141.185 205.704 140.511C205.156 140.178 204.531 139.994 203.89 139.977C203.249 139.96 202.615 140.11 202.05 140.413C201.213 140.989 200.595 141.833 200.299 142.806C199.892 143.919 199.729 145.106 199.823 146.287C199.917 147.469 200.265 148.615 200.843 149.65C202.964 153.229 209.673 154.992 209.684 149.062Z" fill="white"/>
<path d="M206.411 153.436C205.201 153.373 204.025 153.019 202.981 152.403C201.938 151.788 201.059 150.929 200.419 149.9C199.805 148.804 199.435 147.587 199.336 146.335C199.236 145.082 199.409 143.823 199.843 142.643C200.162 141.558 200.851 140.619 201.789 139.988C202.432 139.641 203.153 139.467 203.883 139.482C204.613 139.497 205.327 139.702 205.954 140.075C207.128 140.8 208.075 141.84 208.684 143.078C209.675 144.916 210.191 146.974 210.185 149.062C210.185 152.119 208.521 153.022 207.531 153.294C207.165 153.387 206.789 153.434 206.411 153.436ZM203.714 140.467C203.218 140.464 202.731 140.592 202.3 140.837C201.557 141.367 201.017 142.135 200.767 143.013C200.378 144.055 200.223 145.17 200.311 146.279C200.399 147.388 200.729 148.464 201.278 149.432C202.485 151.488 205.345 152.881 207.27 152.359C208.521 152.021 209.184 150.89 209.195 149.095C209.193 147.174 208.719 145.284 207.814 143.59C207.292 142.515 206.478 141.61 205.465 140.978C204.935 140.66 204.332 140.484 203.714 140.467Z" fill="#231F20"/>
<path d="M204.193 144.025C204.301 144.079 204.617 147.343 204.617 147.343L206.9 145.309" fill="white"/>
<path d="M204.617 147.833H204.432C204.346 147.801 204.272 147.745 204.218 147.672C204.164 147.598 204.132 147.51 204.127 147.419C203.997 146.103 203.823 144.601 203.747 144.286C203.711 144.219 203.693 144.144 203.693 144.068C203.693 143.993 203.711 143.918 203.747 143.851C203.774 143.792 203.812 143.739 203.859 143.695C203.907 143.651 203.962 143.617 204.023 143.595C204.084 143.573 204.148 143.563 204.213 143.566C204.277 143.568 204.341 143.584 204.399 143.611C204.671 143.742 204.758 143.775 205.019 146.353L206.574 144.971C206.62 144.925 206.674 144.889 206.734 144.864C206.793 144.839 206.857 144.826 206.922 144.826C206.987 144.826 207.051 144.839 207.111 144.864C207.17 144.889 207.225 144.925 207.27 144.971C207.361 145.065 207.411 145.19 207.411 145.319C207.411 145.449 207.361 145.574 207.27 145.668L204.954 147.68C204.862 147.768 204.743 147.822 204.617 147.833Z" fill="#231F20"/>
<path d="M228.128 58.4339H178.06V100.963H228.128V58.4339Z" fill="white"/>
<path d="M228.128 101.507H178.103C177.959 101.507 177.821 101.449 177.719 101.347C177.617 101.245 177.56 101.107 177.56 100.963V58.4665C177.56 58.3223 177.617 58.1839 177.719 58.0819C177.821 57.9799 177.959 57.9225 178.103 57.9225H228.128C228.273 57.9225 228.411 57.9799 228.513 58.0819C228.615 58.1839 228.672 58.3223 228.672 58.4665V100.963C228.672 101.107 228.615 101.245 228.513 101.347C228.411 101.449 228.273 101.507 228.128 101.507ZM178.604 100.419H227.541V58.9779H178.604V100.419Z" fill="#231F20"/>
<path d="M165.858 91.1058H136.104V117.99H165.858V91.1058Z" fill="white"/>
<path d="M165.912 118.534H136.104C135.96 118.534 135.822 118.476 135.72 118.374C135.618 118.272 135.56 118.134 135.56 117.99V91.1058C135.563 90.9624 135.621 90.8256 135.723 90.7242C135.824 90.6228 135.961 90.5646 136.104 90.5618H165.912C166.057 90.5618 166.195 90.6191 166.297 90.7211C166.399 90.8231 166.456 90.9615 166.456 91.1058V117.99C166.456 118.134 166.399 118.272 166.297 118.374C166.195 118.476 166.057 118.534 165.912 118.534ZM136.702 117.446H165.314V91.6497H136.648L136.702 117.446Z" fill="#231F20"/>
<path d="M161.443 98.5149H141.868C141.724 98.5149 141.585 98.4575 141.483 98.3555C141.381 98.2535 141.324 98.1151 141.324 97.9709C141.324 97.8266 141.381 97.6882 141.483 97.5862C141.585 97.4842 141.724 97.4269 141.868 97.4269H161.443C161.587 97.4269 161.725 97.4842 161.827 97.5862C161.929 97.6882 161.987 97.8266 161.987 97.9709C161.987 98.1151 161.929 98.2535 161.827 98.3555C161.725 98.4575 161.587 98.5149 161.443 98.5149Z" fill="black"/>
<path d="M161.443 104.531H141.868C141.724 104.531 141.585 104.474 141.483 104.372C141.381 104.27 141.324 104.132 141.324 103.987C141.324 103.843 141.381 103.705 141.483 103.603C141.585 103.501 141.724 103.443 141.868 103.443H161.443C161.587 103.443 161.725 103.501 161.827 103.603C161.929 103.705 161.987 103.843 161.987 103.987C161.987 104.132 161.929 104.27 161.827 104.372C161.725 104.474 161.587 104.531 161.443 104.531Z" fill="black"/>
<path d="M157.561 110.548H141.835C141.691 110.548 141.553 110.491 141.451 110.388C141.349 110.286 141.292 110.148 141.292 110.004C141.292 109.86 141.349 109.721 141.451 109.619C141.553 109.517 141.691 109.46 141.835 109.46H157.561C157.705 109.46 157.843 109.517 157.945 109.619C158.047 109.721 158.104 109.86 158.104 110.004C158.104 110.148 158.047 110.286 157.945 110.388C157.843 110.491 157.705 110.548 157.561 110.548Z" fill="black"/>
<path d="M195.395 97.7533C195.25 97.7533 195.112 97.696 195.01 97.5939C194.908 97.4919 194.851 97.3535 194.851 97.2093V61.9045C194.851 61.7602 194.908 61.6219 195.01 61.5199C195.112 61.4178 195.25 61.3605 195.395 61.3605C195.538 61.3633 195.675 61.4215 195.776 61.5229C195.877 61.6244 195.936 61.7611 195.938 61.9045V97.2093C195.938 97.3535 195.881 97.4919 195.779 97.5939C195.677 97.696 195.539 97.7533 195.395 97.7533Z" fill="black"/>
<path d="M192.013 68.0625H182.562C182.418 68.0625 182.28 68.0051 182.178 67.9031C182.076 67.8011 182.018 67.6627 182.018 67.5185C182.021 67.3751 182.079 67.2383 182.181 67.1369C182.282 67.0355 182.419 66.9773 182.562 66.9745H192.013C192.157 66.9745 192.295 67.0318 192.397 67.1338C192.499 67.2358 192.556 67.3742 192.556 67.5185C192.556 67.6627 192.499 67.8011 192.397 67.9031C192.295 68.0051 192.157 68.0625 192.013 68.0625Z" fill="black"/>
<path d="M192.013 74.2204H182.562C182.419 74.2176 182.282 74.1594 182.181 74.058C182.079 73.9566 182.021 73.8198 182.018 73.6764C182.018 73.5322 182.076 73.3938 182.178 73.2918C182.28 73.1898 182.418 73.1324 182.562 73.1324H192.013C192.157 73.1324 192.295 73.1898 192.397 73.2918C192.499 73.3938 192.556 73.5322 192.556 73.6764C192.556 73.8207 192.499 73.9591 192.397 74.0611C192.295 74.1631 192.157 74.2204 192.013 74.2204Z" fill="black"/>
<path d="M192.013 80.3675H182.562C182.418 80.3675 182.28 80.3101 182.178 80.2081C182.076 80.1061 182.018 79.9677 182.018 79.8235C182.018 79.6792 182.076 79.5408 182.178 79.4388C182.28 79.3368 182.418 79.2795 182.562 79.2795H192.013C192.157 79.2795 192.295 79.3368 192.397 79.4388C192.499 79.5408 192.556 79.6792 192.556 79.8235C192.556 79.9677 192.499 80.1061 192.397 80.2081C192.295 80.3101 192.157 80.3675 192.013 80.3675Z" fill="black"/>
<path d="M192.013 86.5145H182.562C182.418 86.5145 182.28 86.4572 182.178 86.3552C182.076 86.2531 182.018 86.1148 182.018 85.9705C182.021 85.8271 182.079 85.6904 182.181 85.5889C182.282 85.4875 182.419 85.4293 182.562 85.4265H192.013C192.157 85.4265 192.295 85.4838 192.397 85.5858C192.499 85.6879 192.556 85.8262 192.556 85.9705C192.556 86.1148 192.499 86.2531 192.397 86.3552C192.295 86.4572 192.157 86.5145 192.013 86.5145Z" fill="black"/>
<path d="M192.013 92.6615H182.562C182.418 92.6615 182.28 92.6042 182.178 92.5022C182.076 92.4002 182.018 92.2618 182.018 92.1175C182.021 91.9741 182.079 91.8374 182.181 91.736C182.282 91.6345 182.419 91.5763 182.562 91.5735H192.013C192.157 91.5735 192.295 91.6309 192.397 91.7329C192.499 91.8349 192.556 91.9733 192.556 92.1175C192.556 92.2618 192.499 92.4002 192.397 92.5022C192.295 92.6042 192.157 92.6615 192.013 92.6615Z" fill="black"/>
<path d="M223.3 66.3543H200.702V81.9776H223.3V66.3543Z" fill="white"/>
<path d="M223.3 82.5325H200.712C200.568 82.5325 200.43 82.4752 200.328 82.3732C200.226 82.2712 200.169 82.1328 200.169 81.9885V66.3544C200.169 66.2101 200.226 66.0717 200.328 65.9697C200.43 65.8677 200.568 65.8104 200.712 65.8104H223.3C223.444 65.8104 223.582 65.8677 223.684 65.9697C223.786 66.0717 223.844 66.2101 223.844 66.3544V81.9885C223.844 82.1328 223.786 82.2712 223.684 82.3732C223.582 82.4752 223.444 82.5325 223.3 82.5325ZM201.256 81.4446H222.756V66.8983H201.256V81.4446Z" fill="black"/>
</svg>
