<svg width="595" height="328" viewBox="0 0 595 328" fill="none" xmlns="http://www.w3.org/2000/svg">
<g clip-path="url(#clip0_49_20)">
<rect width="595" height="328" rx="10" fill="#EDC90C"/>
<path d="M454.781 100.168C454.781 100.168 451.566 94.1843 446.424 86.0612C446.424 86.0612 430.068 98.2832 430.218 97.5951C430.367 96.9069 454.781 100.168 454.781 100.168Z" fill="#231F20"/>
<path d="M454.781 100.916H454.676C446.08 99.7792 432.042 98.0738 430.517 98.2832C430.083 98.4478 429.964 98.2832 429.814 98.2832C429.686 98.1993 429.586 98.0789 429.528 97.9375C429.469 97.7961 429.454 97.6403 429.485 97.4904C429.485 97.266 429.56 97.0565 430.038 96.9518C431.01 96.5629 440.324 89.7263 445.975 85.5077C446.057 85.4454 446.152 85.4013 446.252 85.3781C446.353 85.3549 446.457 85.3532 446.558 85.3731C446.659 85.3896 446.755 85.4275 446.84 85.4842C446.925 85.541 446.997 85.6153 447.052 85.7022C452.149 93.8103 455.409 99.7941 455.438 99.854C455.511 99.9706 455.55 100.105 455.55 100.243C455.55 100.38 455.511 100.515 455.438 100.632C455.361 100.731 455.261 100.808 455.146 100.858C455.031 100.908 454.905 100.928 454.781 100.916ZM432.864 96.8471C435.944 97.0266 441.834 97.6848 453.405 99.1958C452.239 97.1014 449.683 92.6434 446.214 87.1233C438.994 92.5387 435.062 95.3511 432.864 96.8471Z" fill="#231F20"/>
<path d="M238.215 346.942L230.052 333.329L241.339 323.112L238.215 346.942Z" fill="#231F20"/>
<path d="M238.2 347.69C238.069 347.693 237.94 347.659 237.826 347.593C237.713 347.527 237.62 347.431 237.557 347.316L229.394 333.718C229.307 333.569 229.272 333.394 229.297 333.223C229.321 333.052 229.403 332.894 229.529 332.776L240.831 322.558C240.942 322.454 241.082 322.388 241.233 322.37C241.383 322.351 241.536 322.38 241.668 322.453C241.805 322.525 241.916 322.636 241.988 322.772C242.06 322.908 242.09 323.063 242.072 323.216L238.932 347.032C238.912 347.186 238.846 347.33 238.741 347.445C238.637 347.56 238.5 347.64 238.349 347.675L238.2 347.69ZM230.994 333.464L237.736 344.713L240.323 325.026L230.994 333.464Z" fill="#231F20"/>
<path d="M243.507 349.8L374.828 368.529C377.52 368.881 380.25 368.264 382.529 366.786C384.808 365.309 386.487 363.069 387.266 360.466L455.244 106.002C455.602 104.813 455.68 103.556 455.471 102.331C455.263 101.106 454.774 99.9465 454.043 98.9423C453.311 97.9381 452.358 97.117 451.256 96.5433C450.155 95.9696 448.936 95.6588 447.694 95.6354L313.757 84.8794C311.103 84.7403 308.479 85.5002 306.309 87.0364C304.139 88.5726 302.55 90.7955 301.797 93.3465L236.705 339.298C236.361 340.438 236.269 341.64 236.436 342.819C236.603 343.999 237.025 345.127 237.673 346.127C238.32 347.127 239.178 347.973 240.185 348.607C241.193 349.241 242.326 349.648 243.507 349.8Z" fill="#231F20"/>
<path d="M376.323 369.382C375.788 369.384 375.254 369.349 374.723 369.277L243.403 350.533C242.126 350.376 240.897 349.946 239.801 349.272C238.705 348.599 237.766 347.697 237.049 346.628C236.338 345.534 235.868 344.301 235.672 343.011C235.477 341.721 235.558 340.404 235.913 339.148L301.11 93.1072C301.924 90.407 303.616 88.0567 305.919 86.4302C308.222 84.8038 311.002 83.9946 313.817 84.1314L447.754 94.9323C449.131 95.0019 450.474 95.3777 451.687 96.0324C452.9 96.6872 453.952 97.6043 454.766 98.7171C455.504 99.7982 455.995 101.03 456.202 102.323C456.408 103.616 456.326 104.939 455.962 106.197L387.999 360.645C387.246 363.162 385.704 365.369 383.602 366.942C381.5 368.515 378.948 369.37 376.323 369.382ZM312.95 85.5526C310.588 85.5912 308.3 86.3822 306.418 87.8107C304.536 89.2391 303.159 91.2307 302.485 93.4961L237.363 339.492C237.058 340.547 236.983 341.656 237.143 342.742C237.303 343.829 237.694 344.868 238.29 345.79C238.89 346.686 239.676 347.441 240.594 348.003C241.513 348.566 242.542 348.924 243.612 349.052L374.933 367.796C377.44 368.123 379.982 367.551 382.108 366.182C384.234 364.813 385.807 362.735 386.549 360.316L454.527 105.823C454.825 104.763 454.886 103.65 454.705 102.564C454.524 101.478 454.106 100.445 453.48 99.5398C452.782 98.6003 451.883 97.829 450.848 97.2828C449.813 96.7366 448.669 96.4293 447.5 96.3834L313.698 85.5825C313.449 85.5579 313.2 85.5479 312.95 85.5526Z" fill="#231F20"/>
<path d="M234.956 335.753L366.277 354.482C368.969 354.834 371.699 354.216 373.978 352.739C376.256 351.262 377.936 349.022 378.715 346.419L446.693 91.9553C447.049 90.7715 447.128 89.5214 446.924 88.3021C446.719 87.0827 446.237 85.9269 445.514 84.9243C444.791 83.9216 443.847 83.0991 442.755 82.5206C441.663 81.942 440.453 81.623 439.218 81.5883L305.281 70.7874C302.626 70.6483 300.002 71.4082 297.832 72.9444C295.662 74.4806 294.073 76.7036 293.321 79.2546L228.139 325.251C227.792 326.392 227.698 327.596 227.865 328.777C228.032 329.958 228.455 331.089 229.105 332.089C229.754 333.09 230.614 333.936 231.625 334.569C232.636 335.202 233.773 335.606 234.956 335.753Z" fill="white"/>
<path d="M367.772 355.335C367.237 355.337 366.702 355.302 366.172 355.23L234.851 336.486C233.574 336.329 232.346 335.899 231.25 335.225C230.153 334.552 229.215 333.65 228.497 332.581C227.789 331.486 227.321 330.253 227.125 328.963C226.93 327.674 227.01 326.357 227.361 325.101L292.558 79.0601C293.367 76.3571 295.059 74.0037 297.363 72.3765C299.667 70.7493 302.449 69.9422 305.266 70.0843L439.203 80.9001C440.58 80.9665 441.924 81.341 443.138 81.996C444.351 82.651 445.403 83.5698 446.214 84.6849C446.956 85.7647 447.448 86.9961 447.655 88.2899C447.862 89.5837 447.778 90.9073 447.41 92.1647L379.448 346.673C378.681 349.175 377.134 351.366 375.033 352.925C372.932 354.484 370.387 355.328 367.772 355.335ZM304.399 71.5054C302.037 71.5464 299.751 72.3383 297.869 73.7664C295.988 75.1945 294.609 77.1848 293.934 79.449L228.752 325.445C228.447 326.503 228.373 327.613 228.533 328.702C228.693 329.791 229.083 330.833 229.678 331.758C230.28 332.651 231.067 333.403 231.985 333.963C232.904 334.523 233.932 334.879 235.001 335.005L366.321 353.749C368.828 354.073 371.369 353.5 373.494 352.131C375.62 350.762 377.193 348.686 377.938 346.269L446.005 91.7758C446.312 90.7203 446.383 89.61 446.212 88.5241C446.042 87.4381 445.634 86.4031 445.018 85.4927C444.328 84.5627 443.441 83.7972 442.42 83.2514C441.399 82.7056 440.269 82.3931 439.113 82.3362L305.176 71.5354L304.399 71.5054Z" fill="#231F20"/>
<path d="M433.716 108.71L296.595 96.8172L243.971 295.302L379.089 313.298L433.716 108.71Z" fill="#E6E7E8"/>
<path d="M379.089 313.523L243.971 295.571C243.937 295.566 243.906 295.554 243.877 295.535C243.849 295.517 243.825 295.493 243.807 295.465C243.788 295.437 243.776 295.405 243.771 295.372C243.766 295.338 243.768 295.304 243.776 295.272L296.4 96.7873C296.411 96.7331 296.442 96.6849 296.486 96.6518C296.53 96.6187 296.585 96.603 296.64 96.6077L433.761 108.501C433.797 108.502 433.832 108.513 433.864 108.531C433.895 108.549 433.921 108.575 433.94 108.605C433.959 108.634 433.969 108.668 433.969 108.703C433.969 108.737 433.959 108.771 433.94 108.8L379.313 313.358C379.302 313.408 379.274 313.453 379.232 313.483C379.191 313.513 379.14 313.527 379.089 313.523ZM244.27 295.107L378.909 313.059L433.417 108.92L296.774 97.0715L244.27 295.107Z" fill="black"/>
<path d="M289.239 334.287L314.864 337.892C316.49 338.089 318.134 337.703 319.503 336.802C320.871 335.901 321.876 334.543 322.339 332.97L324.895 323.396C325.108 322.666 325.156 321.897 325.037 321.146C324.917 320.395 324.633 319.679 324.204 319.051C323.775 318.423 323.212 317.898 322.556 317.514C321.9 317.129 321.167 316.895 320.41 316.829L294.741 313.343C293.128 313.162 291.502 313.556 290.151 314.456C288.8 315.357 287.81 316.705 287.356 318.265L284.829 327.749C284.616 328.472 284.566 329.233 284.681 329.978C284.796 330.722 285.075 331.432 285.496 332.057C285.917 332.681 286.471 333.205 287.118 333.591C287.766 333.976 288.49 334.214 289.239 334.287Z" fill="white"/>
<path d="M315.731 338.7C315.407 338.722 315.082 338.722 314.759 338.7L289.135 335.094C288.284 335.001 287.464 334.721 286.733 334.275C286.003 333.83 285.378 333.229 284.905 332.516C284.432 331.802 284.12 330.994 283.994 330.147C283.867 329.3 283.928 328.435 284.171 327.614L286.683 318.13C287.192 316.397 288.296 314.9 289.8 313.901C291.304 312.902 293.112 312.466 294.905 312.67L320.575 316.14C321.433 316.245 322.26 316.531 323 316.98C323.739 317.429 324.375 318.03 324.865 318.743C325.333 319.46 325.642 320.269 325.771 321.116C325.9 321.962 325.846 322.826 325.613 323.65L323.071 333.209C322.591 334.787 321.62 336.17 320.3 337.158C318.979 338.145 317.379 338.685 315.731 338.7ZM293.964 314.031C292.638 314.052 291.356 314.5 290.305 315.308C289.255 316.117 288.493 317.243 288.133 318.519L285.606 328.003C285.432 328.619 285.392 329.264 285.487 329.896C285.583 330.528 285.812 331.132 286.16 331.669C286.517 332.204 286.987 332.654 287.538 332.987C288.088 333.321 288.704 333.529 289.344 333.598L314.968 337.204C316.415 337.383 317.878 337.043 319.097 336.243C320.315 335.442 321.21 334.235 321.621 332.835L324.163 323.261C324.341 322.645 324.385 321.998 324.292 321.363C324.199 320.728 323.972 320.12 323.624 319.581C323.256 319.038 322.774 318.583 322.21 318.247C321.647 317.911 321.017 317.702 320.365 317.636L294.696 314.151C294.455 314.096 294.21 314.056 293.964 314.031Z" fill="#E6E7E8"/>
<path d="M393.157 91.686L353.988 88.4098C353.89 88.4024 353.795 88.3754 353.708 88.3304C353.621 88.2855 353.544 88.2235 353.481 88.1482C353.418 88.0729 353.371 87.9857 353.343 87.8919C353.314 87.7981 353.305 87.6995 353.315 87.602C353.334 87.4061 353.429 87.2255 353.581 87.0995C353.732 86.9735 353.926 86.9122 354.122 86.9288L393.291 90.205C393.49 90.205 393.68 90.2838 393.82 90.4241C393.96 90.5643 394.039 90.7546 394.039 90.953C394.039 91.1514 393.96 91.3416 393.82 91.4819C393.68 91.6222 393.49 91.701 393.291 91.701L393.157 91.686Z" fill="#E6E7E8"/>
<path d="M348.546 87.9611H348.471L343.284 87.5272C343.185 87.5197 343.089 87.4928 343.002 87.448C342.914 87.4033 342.836 87.3416 342.772 87.2665C342.708 87.1914 342.659 87.1044 342.629 87.0105C342.599 86.9166 342.588 86.8177 342.596 86.7194C342.618 86.5238 342.714 86.3439 342.864 86.2162C343.014 86.0885 343.207 86.0224 343.403 86.0313L348.606 86.4651C348.802 86.4841 348.982 86.5795 349.108 86.7308C349.234 86.882 349.295 87.0768 349.278 87.2729C349.267 87.4595 349.185 87.6346 349.049 87.7625C348.913 87.8904 348.733 87.9614 348.546 87.9611Z" fill="#E6E7E8"/>
<path d="M334.284 281.15C334.162 281.15 334.043 281.12 333.936 281.063C333.829 281.005 333.738 280.922 333.671 280.821L296.296 227.146C296.233 227.065 296.188 226.973 296.163 226.875C296.137 226.777 296.132 226.674 296.148 226.574C296.163 226.474 296.198 226.378 296.252 226.291C296.306 226.205 296.376 226.131 296.46 226.073C296.543 226.015 296.637 225.975 296.737 225.954C296.836 225.934 296.938 225.934 297.038 225.955C297.137 225.975 297.231 226.016 297.314 226.074C297.398 226.132 297.468 226.207 297.522 226.293L334.897 279.968C335.007 280.134 335.049 280.336 335.012 280.531C334.976 280.727 334.865 280.901 334.702 281.015C334.581 281.104 334.434 281.151 334.284 281.15Z" fill="white"/>
<path d="M313.787 257.274L265.708 253.071C265.61 253.063 265.514 253.036 265.426 252.991C265.338 252.947 265.26 252.885 265.196 252.81C265.132 252.735 265.084 252.648 265.054 252.554C265.023 252.46 265.012 252.361 265.02 252.263C265.039 252.066 265.134 251.884 265.285 251.755C265.435 251.627 265.63 251.562 265.828 251.575L313.922 255.778C314.116 255.801 314.294 255.897 314.419 256.048C314.545 256.198 314.607 256.391 314.594 256.586C314.587 256.684 314.56 256.78 314.515 256.868C314.471 256.956 314.409 257.034 314.334 257.098C314.259 257.162 314.172 257.211 314.078 257.241C313.984 257.271 313.885 257.282 313.787 257.274Z" fill="#231F20"/>
<path d="M301.319 265.203H301.244L262.524 261.717C262.425 261.71 262.33 261.683 262.242 261.638C262.154 261.593 262.076 261.532 262.012 261.457C261.948 261.381 261.899 261.294 261.869 261.201C261.839 261.107 261.828 261.008 261.836 260.909C261.845 260.811 261.874 260.715 261.921 260.628C261.967 260.541 262.03 260.464 262.107 260.401C262.183 260.339 262.271 260.292 262.366 260.264C262.461 260.235 262.56 260.226 262.658 260.236L301.379 263.722C301.477 263.729 301.573 263.756 301.661 263.801C301.748 263.846 301.827 263.908 301.891 263.983C301.954 264.058 302.003 264.145 302.033 264.239C302.063 264.332 302.075 264.431 302.066 264.53C302.045 264.714 301.957 264.883 301.819 265.007C301.682 265.131 301.504 265.201 301.319 265.203Z" fill="#231F20"/>
<path d="M406.776 174.936L358.682 170.733C358.484 170.715 358.301 170.619 358.173 170.466C358.046 170.313 357.984 170.116 358.002 169.917C358.02 169.719 358.116 169.536 358.268 169.408C358.421 169.281 358.618 169.219 358.817 169.237L406.896 173.44C407.093 173.459 407.275 173.554 407.403 173.705C407.531 173.856 407.596 174.051 407.583 174.248C407.576 174.347 407.549 174.442 407.504 174.53C407.46 174.618 407.398 174.696 407.323 174.76C407.248 174.824 407.161 174.873 407.067 174.903C406.973 174.933 406.874 174.945 406.776 174.936Z" fill="#231F20"/>
<path d="M394.308 182.865H394.233L355.498 179.379C355.302 179.36 355.121 179.265 354.996 179.114C354.87 178.963 354.808 178.768 354.825 178.572C354.832 178.474 354.859 178.379 354.904 178.291C354.949 178.204 355.011 178.127 355.086 178.064C355.162 178.002 355.249 177.955 355.343 177.926C355.436 177.898 355.535 177.888 355.632 177.898L394.368 181.384C394.465 181.392 394.561 181.419 394.648 181.463C394.735 181.508 394.812 181.57 394.875 181.646C394.937 181.721 394.984 181.808 395.013 181.902C395.041 181.996 395.051 182.094 395.04 182.192C395.022 182.374 394.937 182.544 394.802 182.668C394.667 182.792 394.491 182.862 394.308 182.865Z" fill="#231F20"/>
<path d="M297.656 143.731L342.028 146.618C342.636 146.653 343.229 146.82 343.767 147.108C344.304 147.395 344.772 147.796 345.139 148.283C345.506 148.77 345.763 149.33 345.892 149.926C346.02 150.522 346.018 151.139 345.885 151.734L338.798 178.661C338.511 179.972 337.763 181.136 336.69 181.94C335.617 182.745 334.291 183.137 332.953 183.045L289.015 180.053C288.406 180.008 287.814 179.829 287.282 179.528C286.75 179.228 286.291 178.813 285.938 178.314C285.585 177.815 285.347 177.244 285.24 176.642C285.134 176.04 285.162 175.422 285.322 174.832L291.915 147.904C292.237 146.648 292.986 145.544 294.034 144.782C295.082 144.02 296.363 143.648 297.656 143.731Z" fill="white"/>
<path d="M333.417 183.778H332.878L288.955 180.786C288.252 180.737 287.568 180.534 286.951 180.193C286.334 179.852 285.798 179.38 285.382 178.811C284.951 178.216 284.654 177.536 284.509 176.815C284.365 176.095 284.377 175.352 284.545 174.637L291.138 147.71C291.501 146.276 292.351 145.014 293.544 144.14C294.736 143.266 296.196 142.836 297.671 142.923L342.028 145.825C342.736 145.873 343.425 146.073 344.048 146.412C344.672 146.751 345.215 147.22 345.641 147.788C346.066 148.356 346.365 149.01 346.515 149.703C346.666 150.397 346.665 151.115 346.513 151.809L339.411 178.736C339.121 180.127 338.372 181.38 337.285 182.294C336.198 183.208 334.836 183.731 333.417 183.778ZM297.238 144.449C296.175 144.472 295.149 144.843 294.318 145.505C293.486 146.167 292.894 147.083 292.633 148.114L286.055 175.041C285.918 175.549 285.896 176.08 285.989 176.597C286.082 177.115 286.288 177.605 286.593 178.033C286.884 178.427 287.256 178.754 287.684 178.992C288.112 179.229 288.587 179.372 289.075 179.409L333.013 182.401C334.169 182.485 335.317 182.149 336.246 181.453C337.174 180.758 337.821 179.751 338.066 178.617L345.152 151.689C345.256 151.209 345.256 150.713 345.153 150.233C345.05 149.754 344.846 149.301 344.554 148.907C344.248 148.503 343.859 148.169 343.413 147.929C342.966 147.689 342.474 147.548 341.968 147.515L297.611 144.613H297.238V144.449Z" fill="#231F20"/>
<path d="M311.844 176.043C312.531 175.52 313.189 174.996 313.862 174.547C315.746 173.141 317.644 171.765 319.528 170.374C320.784 169.461 322.025 168.534 323.191 167.501C324.239 166.608 325.137 165.553 325.852 164.375C326.299 163.582 326.651 162.738 326.898 161.862C327.112 161.102 327.267 160.327 327.362 159.543C327.553 158.295 327.309 157.02 326.672 155.931C326.035 154.841 325.044 154.004 323.864 153.559C322.601 153.096 321.235 152.991 319.916 153.255C318.597 153.519 317.376 154.142 316.389 155.055C315.833 155.493 315.331 155.995 314.894 156.551L314.804 156.656V156.506C314.252 155.292 313.338 154.278 312.188 153.604C311.135 153.001 309.929 152.72 308.719 152.796C307.204 152.872 305.747 153.4 304.535 154.311C303.322 155.223 302.411 156.477 301.917 157.912C301.678 158.664 301.532 159.443 301.483 160.231C301.379 161.056 301.379 161.89 301.483 162.714C301.652 163.935 302.097 165.102 302.784 166.125C303.488 167.166 304.283 168.143 305.161 169.042C306.462 170.419 307.792 171.765 309.108 173.156C309.99 174.099 310.857 175.071 311.739 176.043H311.844Z" fill="black"/>
<path d="M283.917 205.619L317.569 209.314C318.03 209.362 318.475 209.511 318.873 209.748C319.271 209.986 319.612 210.307 319.874 210.69C320.135 211.073 320.311 211.508 320.388 211.965C320.465 212.422 320.442 212.89 320.32 213.338L314.026 233.548C313.767 234.533 313.162 235.391 312.322 235.965C311.481 236.539 310.462 236.791 309.452 236.675L276.128 232.98C275.666 232.925 275.222 232.768 274.827 232.521C274.433 232.274 274.098 231.943 273.846 231.551C273.595 231.16 273.433 230.717 273.373 230.255C273.312 229.794 273.355 229.324 273.497 228.881L279.402 208.655C279.683 207.702 280.288 206.877 281.112 206.322C281.937 205.768 282.929 205.519 283.917 205.619Z" fill="white"/>
<path d="M309.96 237.468C309.756 237.483 309.551 237.483 309.347 237.468L276.038 233.743C275.479 233.678 274.94 233.492 274.46 233.197C273.98 232.903 273.569 232.507 273.258 232.037C272.94 231.552 272.733 231.004 272.65 230.43C272.567 229.856 272.612 229.271 272.779 228.716L278.759 208.476C279.099 207.359 279.815 206.394 280.785 205.745C281.755 205.096 282.92 204.803 284.082 204.916L317.719 208.611C318.289 208.675 318.839 208.86 319.331 209.154C319.824 209.448 320.248 209.844 320.575 210.316C320.893 210.786 321.107 211.319 321.202 211.879C321.298 212.439 321.272 213.013 321.128 213.562L314.819 233.818C314.518 234.873 313.881 235.802 313.003 236.461C312.126 237.12 311.057 237.474 309.96 237.468ZM283.424 206.337C282.68 206.349 281.959 206.598 281.365 207.047C280.771 207.496 280.335 208.122 280.12 208.835L274.215 229.075C274.109 229.424 274.08 229.792 274.129 230.153C274.178 230.515 274.304 230.861 274.499 231.17C274.695 231.456 274.95 231.697 275.246 231.878C275.542 232.058 275.874 232.174 276.218 232.217L309.527 235.972C310.361 236.069 311.202 235.862 311.896 235.389C312.591 234.917 313.092 234.21 313.309 233.399L319.603 213.143C319.694 212.807 319.71 212.454 319.651 212.11C319.591 211.767 319.458 211.44 319.259 211.154C319.056 210.856 318.79 210.607 318.48 210.424C318.17 210.24 317.823 210.127 317.465 210.092L283.842 206.397C283.706 206.361 283.565 206.34 283.424 206.337Z" fill="#231F20"/>
<path d="M352.373 192.589L398.987 197.316C399.45 197.322 399.906 197.432 400.322 197.637C400.737 197.843 401.101 198.138 401.388 198.502C401.674 198.867 401.876 199.29 401.978 199.742C402.08 200.194 402.08 200.664 401.977 201.116L394.263 229.838C393.926 230.824 393.257 231.661 392.37 232.207C391.484 232.753 390.435 232.973 389.404 232.83L342.82 226.846C342.374 226.824 341.939 226.702 341.546 226.489C341.154 226.276 340.814 225.978 340.551 225.616C340.289 225.255 340.111 224.839 340.03 224.399C339.949 223.96 339.968 223.508 340.084 223.077L347.739 195.521C348.06 194.576 348.695 193.769 349.539 193.236C350.382 192.702 351.382 192.474 352.373 192.589Z" fill="white"/>
<path d="M390.032 233.533C389.808 233.548 389.583 233.548 389.359 233.533L342.79 227.549C342.196 227.503 341.619 227.324 341.102 227.026C340.584 226.729 340.14 226.32 339.8 225.829C339.509 225.395 339.317 224.901 339.239 224.384C339.162 223.866 339.2 223.338 339.352 222.837L347.006 195.282C347.37 194.18 348.103 193.237 349.08 192.613C350.058 191.989 351.221 191.721 352.373 191.856L398.987 196.568C399.617 196.613 400.229 196.794 400.781 197.098C401.334 197.403 401.813 197.825 402.187 198.333C402.485 198.764 402.684 199.256 402.769 199.774C402.854 200.291 402.824 200.821 402.68 201.325L395.04 229.988C394.697 231.039 394.025 231.951 393.123 232.59C392.22 233.228 391.137 233.559 390.032 233.533ZM351.955 193.307C351.207 193.295 350.475 193.517 349.859 193.94C349.243 194.364 348.773 194.968 348.516 195.67L340.862 223.226C340.779 223.519 340.759 223.827 340.802 224.128C340.846 224.43 340.953 224.719 341.116 224.976C341.332 225.279 341.611 225.53 341.933 225.714C342.256 225.897 342.615 226.008 342.985 226.039L389.554 232.022C390.4 232.158 391.267 231.995 392.006 231.561C392.745 231.127 393.311 230.449 393.605 229.644L401.305 200.921C401.391 200.629 401.41 200.322 401.361 200.021C401.312 199.721 401.196 199.435 401.02 199.186C400.773 198.856 400.456 198.584 400.091 198.39C399.727 198.196 399.325 198.085 398.913 198.064L352.298 193.337H351.955V193.307Z" fill="#231F20"/>
<path d="M376.458 224.288L381.989 224.976L385.891 210.54L380.359 209.927L376.458 224.288Z" fill="black"/>
<path d="M381.989 225.216L376.458 224.543C376.424 224.537 376.393 224.525 376.364 224.507C376.336 224.489 376.312 224.465 376.294 224.436C376.275 224.408 376.263 224.376 376.258 224.343C376.253 224.31 376.254 224.276 376.263 224.243L380.165 209.882C380.176 209.825 380.209 209.775 380.256 209.741C380.303 209.708 380.362 209.694 380.419 209.703L385.951 210.331C385.984 210.335 386.017 210.346 386.045 210.364C386.073 210.383 386.097 210.407 386.115 210.436C386.139 210.493 386.139 210.558 386.115 210.615L382.213 225.051C382.198 225.099 382.168 225.14 382.128 225.169C382.087 225.199 382.039 225.215 381.989 225.216ZM376.757 224.094L381.81 224.722L385.592 210.75L380.539 210.181L376.757 224.094Z" fill="black"/>
<path d="M377.953 210.884C377.953 210.884 373.468 209.239 372.272 206.396C371.076 203.554 371.868 199.021 371.195 198.707C370.569 198.522 369.902 198.535 369.284 198.744C368.666 198.953 368.127 199.348 367.742 199.874C366.665 201.25 366.037 205.469 366.934 208.356C366.934 208.356 360.954 207.623 358.263 207.324C355.572 207.025 354.451 209.284 355.752 210.406C355.752 210.406 353.554 210.406 353.823 212.38C354.092 214.355 354.84 214.505 356.021 214.654C356.021 214.654 354.526 214.819 354.526 216.27C354.526 217.721 356.35 218.289 356.35 218.289C356.112 218.345 355.889 218.454 355.698 218.608C355.508 218.762 355.355 218.957 355.25 219.178C355.145 219.4 355.091 219.642 355.093 219.887C355.094 220.132 355.151 220.373 355.258 220.593C356.066 222.299 358.936 222.493 365.723 222.912C372.511 223.331 374.858 222.104 374.858 222.104L377.953 210.884Z" fill="black"/>
<path d="M368.504 223.301C367.682 223.301 366.77 223.301 365.738 223.211C358.996 222.792 355.916 222.598 355.034 220.758C354.913 220.529 354.843 220.278 354.827 220.02C354.812 219.761 354.852 219.503 354.944 219.262C355.125 218.888 355.418 218.58 355.782 218.379C355.377 218.204 355.026 217.924 354.764 217.57C354.501 217.215 354.337 216.798 354.287 216.36C354.269 216.06 354.335 215.761 354.478 215.497C354.62 215.233 354.834 215.013 355.094 214.864C354.287 214.624 353.778 214.116 353.599 212.545C353.551 212.282 353.562 212.012 353.629 211.754C353.696 211.496 353.818 211.255 353.988 211.049C354.329 210.679 354.79 210.441 355.288 210.376C355.118 210.132 355.015 209.847 354.989 209.551C354.962 209.254 355.014 208.956 355.139 208.685C355.432 208.124 355.9 207.674 356.472 207.404C357.044 207.134 357.689 207.059 358.308 207.189C360.596 207.444 365.305 208.012 366.635 208.177C365.858 205.185 366.471 201.221 367.577 199.814C367.991 199.258 368.565 198.84 369.222 198.619C369.879 198.397 370.589 198.381 371.255 198.573C371.659 198.767 371.674 199.485 371.703 201.056C371.611 202.861 371.86 204.668 372.436 206.382C373.632 209.044 377.953 210.675 377.997 210.69C378.05 210.713 378.093 210.755 378.118 210.807C378.143 210.859 378.148 210.919 378.132 210.974L375.142 222.254C375.125 222.31 375.088 222.358 375.037 222.388C374.918 222.403 373.243 223.301 368.504 223.301ZM357.8 207.548C357.352 207.507 356.902 207.598 356.506 207.811C356.11 208.024 355.785 208.349 355.572 208.745C355.454 208.997 355.423 209.281 355.486 209.553C355.548 209.824 355.7 210.066 355.916 210.241C355.944 210.278 355.959 210.322 355.959 210.368C355.959 210.414 355.944 210.459 355.916 210.495C355.901 210.539 355.873 210.577 355.835 210.603C355.798 210.63 355.753 210.645 355.707 210.645C355.18 210.653 354.674 210.855 354.287 211.214C354.157 211.373 354.065 211.559 354.016 211.758C353.967 211.957 353.962 212.164 354.003 212.365C354.242 214.22 354.915 214.295 356.006 214.43C356.064 214.437 356.117 214.466 356.156 214.51C356.195 214.554 356.216 214.611 356.215 214.669C356.215 214.726 356.194 214.781 356.155 214.823C356.116 214.865 356.063 214.89 356.006 214.894C356.006 214.894 354.675 215.073 354.72 216.285C354.765 217.497 356.365 218.08 356.38 218.08C356.424 218.1 356.462 218.131 356.491 218.171C356.52 218.21 356.538 218.256 356.544 218.304C356.544 218.354 356.527 218.403 356.498 218.443C356.468 218.483 356.427 218.513 356.38 218.529C355.934 218.676 355.561 218.986 355.333 219.396C355.265 219.576 355.237 219.769 355.253 219.96C355.268 220.152 355.326 220.337 355.423 220.503C356.185 222.104 359.175 222.284 365.723 222.703C371.703 223.077 374.17 222.149 374.693 221.955L377.683 210.974C376.786 210.615 373.198 209.029 372.062 206.486C371.453 204.718 371.19 202.849 371.285 200.981C371.338 200.283 371.277 199.581 371.105 198.902C370.529 198.751 369.921 198.776 369.359 198.973C368.797 199.17 368.307 199.531 367.951 200.009C366.89 201.355 366.321 205.529 367.174 208.296C367.195 208.33 367.206 208.369 367.206 208.409C367.206 208.448 367.195 208.487 367.174 208.521C367.147 208.549 367.115 208.571 367.078 208.584C367.042 208.597 367.003 208.601 366.964 208.596C366.964 208.596 360.984 207.863 358.308 207.563L357.8 207.548Z" fill="black"/>
<path d="M320.261 291.936L371.091 297.8C372.964 297.933 374.825 297.408 376.353 296.315C377.881 295.223 378.98 293.632 379.463 291.816L387.461 261.613C387.726 260.787 387.809 259.914 387.704 259.053C387.599 258.193 387.308 257.365 386.851 256.628C386.395 255.891 385.784 255.262 385.06 254.785C384.337 254.307 383.519 253.993 382.662 253.864L331.697 247.371C329.775 247.198 327.854 247.715 326.279 248.831C324.703 249.947 323.577 251.588 323.101 253.46L315.282 284.247C315.027 285.081 314.957 285.962 315.078 286.826C315.199 287.691 315.507 288.519 315.982 289.251C316.456 289.984 317.085 290.604 317.824 291.068C318.563 291.532 319.395 291.828 320.261 291.936Z" fill="white"/>
<path d="M371.793 298.593H370.941L320.111 292.729C319.165 292.636 318.251 292.338 317.432 291.855C316.613 291.372 315.91 290.715 315.372 289.931C314.807 289.086 314.431 288.128 314.268 287.124C314.106 286.12 314.161 285.093 314.43 284.112L322.249 253.325C322.789 251.287 324.029 249.505 325.751 248.291C327.474 247.076 329.568 246.507 331.667 246.683L382.632 253.16C383.55 253.273 384.433 253.58 385.222 254.063C386.011 254.545 386.688 255.192 387.207 255.958C387.755 256.825 388.114 257.798 388.261 258.814C388.408 259.83 388.339 260.865 388.059 261.852L380.061 292.055C379.548 293.879 378.472 295.493 376.987 296.667C375.502 297.841 373.684 298.515 371.793 298.593ZM320.335 291.203L371.165 297.067C372.861 297.173 374.54 296.689 375.919 295.696C377.298 294.703 378.291 293.264 378.73 291.622L386.668 261.403C386.906 260.624 386.97 259.803 386.856 258.997C386.743 258.19 386.454 257.419 386.011 256.736C385.614 256.147 385.095 255.65 384.488 255.281C383.882 254.912 383.203 254.678 382.497 254.597L331.533 248.104C329.792 247.958 328.056 248.433 326.633 249.447C325.209 250.46 324.191 251.946 323.759 253.639L315.94 284.426C315.723 285.201 315.675 286.013 315.799 286.808C315.923 287.603 316.216 288.362 316.658 289.034C317.078 289.639 317.625 290.146 318.259 290.521C318.894 290.895 319.602 291.128 320.335 291.203Z" fill="#231F20"/>
<path d="M336.735 272.039L354.675 286.64C355.024 286.861 355.421 286.995 355.832 287.03C356.244 287.066 356.657 287.001 357.039 286.843C357.42 286.685 357.757 286.437 358.023 286.12C358.288 285.803 358.473 285.428 358.562 285.024L364.827 261.089C364.952 260.707 364.962 260.296 364.856 259.907C364.75 259.519 364.531 259.171 364.228 258.906C363.925 258.641 363.551 258.471 363.152 258.418C362.754 258.365 362.348 258.43 361.986 258.606L337.737 267.985C337.344 268.12 336.991 268.351 336.711 268.657C336.43 268.964 336.231 269.336 336.131 269.739C336.031 270.142 336.035 270.564 336.14 270.966C336.246 271.368 336.45 271.737 336.735 272.039Z" fill="black"/>
<path d="M354.81 154.636L408.51 160.231C409.471 160.261 410.411 159.955 411.17 159.365C411.929 158.775 412.458 157.938 412.667 157L421.397 121.097C421.537 120.686 421.582 120.249 421.529 119.818C421.476 119.388 421.327 118.975 421.093 118.61C420.859 118.245 420.546 117.937 420.177 117.71C419.807 117.482 419.392 117.341 418.96 117.297L365.38 112.809C364.456 112.809 363.56 113.123 362.837 113.699C362.115 114.275 361.609 115.08 361.403 115.98L352.582 150.851C352.435 151.246 352.378 151.668 352.415 152.087C352.452 152.507 352.581 152.912 352.795 153.275C353.008 153.638 353.3 153.948 353.649 154.184C353.997 154.419 354.394 154.574 354.81 154.636Z" fill="white"/>
<path d="M365.081 112.794H365.275L418.856 117.282C419.287 117.326 419.703 117.467 420.072 117.695C420.441 117.922 420.755 118.23 420.989 118.595C421.223 118.96 421.372 119.373 421.424 119.803C421.477 120.234 421.432 120.671 421.293 121.082L412.562 156.985C412.359 157.869 411.875 158.664 411.182 159.25C410.489 159.835 409.625 160.179 408.72 160.231H408.406L354.81 154.636C354.394 154.574 353.997 154.419 353.649 154.184C353.3 153.948 353.008 153.638 352.795 153.275C352.581 152.912 352.452 152.506 352.415 152.087C352.378 151.668 352.435 151.246 352.582 150.851L361.403 115.98C361.605 115.12 362.076 114.346 362.749 113.773C363.421 113.2 364.259 112.857 365.14 112.794H365.081ZM365.14 111.298C363.928 111.363 362.769 111.817 361.834 112.593C360.9 113.369 360.24 114.426 359.953 115.606L351.132 150.477C350.948 151.142 350.909 151.839 351.017 152.52C351.126 153.202 351.379 153.852 351.76 154.427C352.09 154.904 352.521 155.304 353.022 155.596C353.523 155.888 354.083 156.066 354.66 156.117L408.346 161.712C408.505 161.727 408.665 161.727 408.824 161.712C410.066 161.659 411.256 161.2 412.211 160.406C413.167 159.611 413.837 158.525 414.117 157.314L422.847 121.411C423.023 120.744 423.052 120.047 422.933 119.368C422.815 118.689 422.551 118.044 422.16 117.476C421.808 116.98 421.351 116.566 420.821 116.267C420.291 115.967 419.702 115.787 419.095 115.741L365.514 111.253L365.14 111.298Z" fill="#231F20"/>
<path d="M384.71 144.359C384.592 144.36 384.475 144.334 384.368 144.282C384.262 144.23 384.169 144.154 384.097 144.06L362.285 114.006C362.171 113.844 362.125 113.644 362.156 113.449C362.186 113.254 362.292 113.078 362.449 112.959C362.53 112.901 362.621 112.86 362.717 112.838C362.813 112.816 362.913 112.813 363.01 112.83C363.107 112.847 363.2 112.883 363.284 112.936C363.367 112.988 363.439 113.057 363.496 113.138L384.77 142.579L420.485 117.791C420.651 117.68 420.853 117.639 421.048 117.675C421.244 117.711 421.417 117.822 421.532 117.985C421.588 118.066 421.628 118.158 421.649 118.255C421.67 118.352 421.672 118.452 421.653 118.549C421.635 118.647 421.598 118.74 421.544 118.823C421.49 118.905 421.419 118.977 421.337 119.032L385.084 144.224C384.973 144.301 384.844 144.348 384.71 144.359Z" fill="black"/>
<path d="M352.881 154.247C352.758 154.249 352.636 154.219 352.526 154.162C352.416 154.104 352.323 154.021 352.254 153.918C352.145 153.751 352.105 153.548 352.145 153.352C352.184 153.156 352.298 152.983 352.463 152.871L378.954 135.742C379.119 135.634 379.32 135.595 379.513 135.634C379.706 135.674 379.876 135.788 379.986 135.952C380.095 136.119 380.134 136.322 380.095 136.518C380.056 136.714 379.941 136.886 379.776 136.999L353.315 154.128C353.187 154.214 353.035 154.256 352.881 154.247Z" fill="black"/>
<path d="M410.887 160.261C410.775 160.262 410.664 160.236 410.563 160.187C410.462 160.138 410.373 160.066 410.304 159.977L392.723 138.061C392.601 137.906 392.545 137.709 392.567 137.513C392.59 137.316 392.689 137.137 392.843 137.014C392.919 136.951 393.006 136.905 393.101 136.877C393.195 136.849 393.294 136.84 393.391 136.851C393.489 136.863 393.583 136.893 393.669 136.942C393.755 136.99 393.829 137.055 393.889 137.133L411.47 159.049C411.534 159.124 411.581 159.211 411.61 159.305C411.639 159.399 411.649 159.497 411.64 159.595C411.63 159.693 411.601 159.787 411.554 159.874C411.506 159.96 411.443 160.035 411.366 160.096C411.227 160.199 411.06 160.257 410.887 160.261Z" fill="black"/>
<path d="M247.828 226.712C251.489 219.408 256.507 212.868 262.613 207.444C272.421 198.962 278.296 192.798 275.216 191.123C272.137 189.447 261.941 196.688 261.941 196.688L269.655 168.414C269.655 168.414 252.657 179.619 247.828 189.148C242.999 198.677 233.476 218.783 233.476 218.783L247.828 226.712Z" fill="white"/>
<path d="M247.828 227.46C247.703 227.46 247.579 227.429 247.469 227.37L233.117 219.426C232.951 219.334 232.827 219.183 232.768 219.002C232.71 218.822 232.722 218.626 232.803 218.454C232.893 218.26 242.386 198.244 247.17 188.819C251.954 179.394 268.534 168.249 269.236 167.786C269.363 167.701 269.513 167.656 269.666 167.659C269.819 167.662 269.967 167.711 270.091 167.801C270.215 167.891 270.308 168.016 270.358 168.16C270.409 168.305 270.414 168.461 270.372 168.608L263.196 194.922C266.47 192.768 272.884 188.939 275.575 190.435C275.905 190.595 276.189 190.837 276.398 191.138C276.607 191.439 276.736 191.79 276.771 192.155C277.055 194.758 273.093 199.336 263.107 207.982C257.085 213.34 252.134 219.792 248.516 226.996C248.473 227.091 248.411 227.176 248.334 227.245C248.257 227.315 248.166 227.367 248.067 227.4C247.992 227.435 247.911 227.455 247.828 227.46ZM234.448 218.484L247.499 225.694C251.197 218.589 256.15 212.213 262.12 206.875C265.454 204.003 275.575 195.222 275.291 192.349C275.276 192.225 275.228 192.106 275.152 192.006C275.076 191.906 274.974 191.828 274.857 191.781C273.004 190.764 266.441 194.399 262.374 197.301C262.247 197.386 262.097 197.431 261.944 197.43C261.791 197.428 261.642 197.381 261.517 197.294C261.391 197.207 261.294 197.084 261.239 196.941C261.184 196.798 261.173 196.642 261.208 196.493L268.384 170.194C264.019 173.276 252.298 181.997 248.501 189.492C244.18 197.959 236.107 215.028 234.448 218.469V218.484Z" fill="#231F20"/>
<path d="M351.327 116.295L303.247 112.091C303.05 112.072 302.869 111.977 302.74 111.826C302.612 111.676 302.547 111.481 302.56 111.283C302.567 111.185 302.594 111.089 302.639 111.001C302.684 110.913 302.745 110.835 302.82 110.771C302.895 110.707 302.982 110.659 303.076 110.628C303.17 110.598 303.269 110.587 303.367 110.595L351.386 114.799C351.585 114.799 351.775 114.877 351.915 115.018C352.055 115.158 352.134 115.348 352.134 115.547C352.134 115.745 352.055 115.935 351.915 116.076C351.775 116.216 351.585 116.295 351.386 116.295H351.327Z" fill="#231F20"/>
<path d="M338.843 124.163L300.108 120.678C300.01 120.67 299.915 120.643 299.828 120.598C299.741 120.553 299.664 120.491 299.601 120.416C299.538 120.341 299.491 120.254 299.463 120.16C299.434 120.066 299.425 119.967 299.435 119.87C299.443 119.772 299.47 119.676 299.514 119.588C299.559 119.5 299.621 119.422 299.696 119.358C299.771 119.294 299.858 119.245 299.952 119.215C300.045 119.185 300.144 119.174 300.242 119.182L338.978 122.682C339.176 122.692 339.362 122.781 339.496 122.928C339.629 123.075 339.698 123.269 339.688 123.468C339.678 123.666 339.59 123.852 339.443 123.986C339.296 124.119 339.101 124.188 338.903 124.178L338.843 124.163Z" fill="#231F20"/>
<path d="M233.82 122.802C233.82 122.802 243.941 139.497 241.594 142.788C239.247 146.079 231.921 143.551 231.921 143.551" fill="white"/>
<path d="M237.213 145.227C235.333 145.178 233.469 144.856 231.682 144.269C231.584 144.237 231.493 144.185 231.415 144.118C231.336 144.05 231.272 143.968 231.226 143.876C231.179 143.783 231.151 143.682 231.144 143.579C231.136 143.476 231.149 143.373 231.181 143.274C231.213 143.176 231.265 143.085 231.332 143.007C231.4 142.929 231.482 142.864 231.574 142.818C231.667 142.771 231.767 142.743 231.87 142.736C231.973 142.728 232.077 142.741 232.175 142.773C234.059 143.416 239.321 144.598 240.981 142.279C242.476 140.29 237.273 129.878 233.177 123.116C233.125 123.032 233.091 122.938 233.076 122.84C233.061 122.743 233.065 122.643 233.089 122.547C233.112 122.451 233.155 122.361 233.214 122.281C233.272 122.202 233.346 122.135 233.431 122.084C233.602 121.984 233.806 121.954 233.998 122.002C234.191 122.049 234.357 122.17 234.463 122.338C236.197 125.196 244.718 139.632 242.192 143.147C241.589 143.867 240.822 144.432 239.956 144.794C239.089 145.156 238.149 145.304 237.213 145.227Z" fill="#231F20"/>
<path d="M175.41 153.514C167.935 153.649 161.432 151.001 153.314 146.034C151.012 144.643 148.38 142.429 149.113 139.856C149.525 139.039 149.836 138.175 150.04 137.283C150.04 135.787 148.545 134.77 147.334 133.872C145.324 132.364 143.781 130.317 142.885 127.969C141.989 125.62 141.776 123.066 142.27 120.601C142.764 118.136 143.946 115.861 145.678 114.04C147.41 112.219 149.622 110.926 152.058 110.311C149.909 108.17 148.41 105.464 147.734 102.506C147.058 99.5476 147.233 96.4584 148.238 93.5957C149.244 90.7329 151.04 88.2138 153.417 86.3297C155.794 84.4456 158.656 83.2737 161.671 82.9496C159.533 83.174 163.973 70.9819 164.661 69.8449C167.368 65.6558 171.4 62.4955 176.113 60.8692C179.228 59.8181 182.535 59.4583 185.803 59.8148C189.072 60.1713 192.223 61.2355 195.039 62.9336C196.34 59.6425 200.033 57.8024 203.561 57.6528C207.106 57.7246 210.599 58.5134 213.831 59.9716C217.763 61.4675 222.024 63.3824 223.728 67.212C223.993 68.047 224.398 68.8311 224.924 69.5308C225.787 70.2379 226.816 70.7118 227.914 70.9071C239.755 74.6021 242.117 92.434 233.984 100.019C232.489 101.35 230.994 100.692 229.798 102.337C229.021 103.429 228.916 106.451 228.497 107.842C227.442 111.22 226.05 114.483 224.341 117.581C220.582 124.077 216.066 130.103 210.886 135.533C204.612 142.584 196.693 147.975 187.833 151.225C183.841 152.647 179.647 153.42 175.41 153.514Z" fill="white"/>
<path d="M174.842 154.262C168.129 154.262 161.731 152.048 152.955 146.693C148.351 143.895 147.947 141.322 148.47 139.662C148.592 139.275 148.747 138.899 148.934 138.54C149.164 138.15 149.312 137.717 149.367 137.268C149.367 136.266 148.321 135.473 147.274 134.71L146.975 134.486C144.918 132.962 143.316 130.906 142.341 128.539C141.366 126.171 141.056 123.582 141.444 121.051C141.832 118.52 142.903 116.143 144.541 114.177C146.18 112.21 148.324 110.729 150.743 109.892C148.801 107.648 147.487 104.93 146.934 102.014C146.382 99.0977 146.611 96.0872 147.598 93.2882C148.585 90.4892 150.295 88.0015 152.554 86.0779C154.813 84.1544 157.541 82.8634 160.46 82.3362C160.086 79.1199 163.644 70.0693 164.063 69.3961C166.857 65.0462 171.033 61.7634 175.918 60.0763C179.004 59.032 182.273 58.6443 185.517 58.938C188.761 59.2317 191.907 60.2003 194.755 61.7817C195.693 60.2816 196.992 59.041 198.533 58.1733C200.074 57.3056 201.808 56.8386 203.576 56.8151C207.223 56.8726 210.82 57.677 214.145 59.1787C218.167 60.6747 222.607 62.6942 224.446 66.8231L224.715 67.4364C224.887 67.9786 225.156 68.4853 225.507 68.9324C226.131 69.4541 226.877 69.8092 227.675 69.9646L228.154 70.0992C233.506 71.7747 237.557 76.5169 238.992 82.8C240.487 89.5617 238.783 96.503 234.507 100.482C233.84 101.061 233.038 101.462 232.175 101.649C231.471 101.749 230.832 102.119 230.396 102.681C229.964 103.689 229.702 104.76 229.619 105.853C229.528 106.564 229.394 107.268 229.215 107.962C228.127 111.375 226.695 114.668 224.939 117.791C221.121 124.289 216.549 130.315 211.32 135.742C204.965 142.885 196.943 148.343 187.968 151.629C183.956 153.121 179.732 153.964 175.455 154.128H174.842V154.262ZM161.746 83.6377C158.874 83.9522 156.149 85.0727 153.886 86.87C151.623 88.6673 149.914 91.0682 148.956 93.7957C147.998 96.5232 147.83 99.4661 148.471 102.285C149.113 105.104 150.538 107.684 152.581 109.727C152.676 109.821 152.744 109.938 152.778 110.067C152.812 110.196 152.812 110.332 152.776 110.46C152.739 110.587 152.67 110.701 152.575 110.793C152.481 110.885 152.365 110.951 152.238 110.984C149.925 111.557 147.822 112.776 146.175 114.499C144.527 116.221 143.403 118.377 142.933 120.715C142.463 123.052 142.667 125.475 143.52 127.701C144.373 129.927 145.841 131.865 147.753 133.289L148.052 133.498C149.277 134.411 150.817 135.533 150.757 137.328C150.698 137.981 150.499 138.613 150.174 139.183C150.031 139.469 149.906 139.764 149.801 140.065C149.203 142.175 151.58 144.134 153.673 145.421C162.448 150.762 168.742 152.901 175.365 152.766C179.485 152.605 183.553 151.787 187.415 150.343C196.161 147.149 203.975 141.828 210.154 134.86C215.316 129.497 219.831 123.547 223.609 117.132C225.306 114.079 226.688 110.861 227.735 107.528C227.889 106.902 228.009 106.268 228.094 105.628C228.183 104.299 228.539 103.002 229.14 101.814C229.769 100.969 230.692 100.392 231.727 100.198C232.357 100.079 232.945 99.7954 233.431 99.3753C237.318 95.77 238.903 89.3822 237.482 83.1441C236.152 77.2948 232.564 73.0613 227.645 71.5354L227.197 71.3858C226.134 71.1618 225.155 70.6434 224.371 69.8898C223.876 69.3167 223.5 68.6504 223.265 67.9301C223.265 67.7506 223.115 67.5561 223.026 67.3766C221.426 63.7713 217.3 61.9462 213.547 60.5251C210.412 59.0988 207.019 58.3252 203.576 58.2512C200.586 58.3859 196.968 59.9267 195.712 63.0682C195.67 63.1691 195.606 63.2599 195.527 63.3346C195.447 63.4094 195.352 63.4664 195.249 63.502C195.047 63.582 194.822 63.582 194.621 63.502C191.904 61.8524 188.859 60.8192 185.7 60.4754C182.541 60.1316 179.344 60.4856 176.337 61.5124C171.777 63.0822 167.88 66.1443 165.274 70.204C164.601 71.296 161.447 80.4663 161.85 82.1717C161.997 82.2102 162.128 82.2923 162.227 82.4072C162.326 82.5221 162.387 82.6643 162.404 82.8149C162.425 83.0112 162.367 83.2078 162.244 83.3619C162.121 83.516 161.942 83.6152 161.746 83.6377Z" fill="#231F20"/>
<path d="M232.22 100.407C232.758 100.705 233.234 101.101 233.625 101.574C235.277 103.707 236.312 106.253 236.615 108.934C237.482 114.425 236.451 120.005 236.197 125.51C235.698 136.331 234.951 147.126 233.954 157.897C233.326 164.734 215.581 164.195 212.531 162.026L214.28 189.208L177.563 173.47L179.955 151.136C179.955 151.136 192.019 151.689 199.48 137.986C201.592 133.844 203.102 129.421 203.965 124.852C204.817 120.962 206.656 115.412 206.551 111.478C206.422 109.71 206.034 107.971 205.4 106.317C206.899 107.093 208.64 107.26 210.258 106.78C210.83 106.479 211.328 106.054 211.716 105.537C212.104 105.019 212.372 104.422 212.501 103.788C212.735 102.5 212.776 101.184 212.621 99.8839C213.394 100.356 214.257 100.664 215.155 100.788C216.054 100.912 216.968 100.849 217.84 100.603C218.713 100.357 219.526 99.9341 220.227 99.3599C220.929 98.7858 221.505 98.0729 221.919 97.266C222.323 98.9714 224.401 99.5548 226.135 99.8241C228.602 100.183 230.456 99.4501 232.22 100.407Z" fill="white"/>
<path d="M214.28 189.956C214.182 189.978 214.079 189.978 213.981 189.956L177.264 174.218C177.118 174.151 176.996 174.04 176.916 173.901C176.836 173.761 176.801 173.601 176.815 173.44L179.207 151.121C179.23 150.932 179.322 150.758 179.466 150.633C179.609 150.509 179.795 150.442 179.985 150.447C180.448 150.447 191.691 150.792 198.822 137.687C200.883 133.606 202.357 129.255 203.202 124.762C203.441 123.7 203.74 122.518 204.054 121.291C205.027 118.128 205.605 114.857 205.773 111.552C205.652 109.86 205.273 108.195 204.652 106.616C204.606 106.481 204.599 106.337 204.632 106.199C204.665 106.06 204.737 105.935 204.839 105.836C204.941 105.737 205.069 105.669 205.208 105.64C205.347 105.612 205.491 105.623 205.624 105.673C206.943 106.367 208.473 106.543 209.915 106.167C210.39 105.907 210.801 105.544 211.117 105.104C211.433 104.663 211.645 104.158 211.739 103.624C211.961 102.415 211.997 101.179 211.843 99.9587C211.831 99.8179 211.86 99.6767 211.926 99.5519C211.993 99.4272 212.093 99.3243 212.217 99.2556C212.336 99.1829 212.473 99.1445 212.613 99.1445C212.753 99.1445 212.89 99.1829 213.009 99.2556C213.699 99.6581 214.463 99.9154 215.255 100.012C216.048 100.108 216.851 100.041 217.617 99.816C218.383 99.5905 219.094 99.2108 219.708 98.7003C220.322 98.1897 220.825 97.5591 221.187 96.8471C221.253 96.7076 221.36 96.5914 221.493 96.514C221.627 96.4365 221.781 96.4014 221.934 96.4133C222.09 96.4253 222.238 96.487 222.357 96.5893C222.475 96.6916 222.558 96.8291 222.592 96.9817C222.831 97.984 223.997 98.6273 226.195 98.9863C227.072 99.101 227.958 99.1361 228.841 99.091C230.123 98.9465 231.42 99.1533 232.594 99.6894C233.209 100.031 233.756 100.482 234.208 101.021C235.968 103.27 237.052 105.973 237.333 108.815C237.818 112.789 237.818 116.808 237.333 120.783C237.198 122.368 237.064 123.954 236.989 125.525C236.496 136.311 235.733 147.216 234.747 157.942C234.627 159.274 233.85 161.144 230.904 162.43C226.001 164.689 217.195 164.48 213.398 163.163L215.057 189.088C215.064 189.215 215.039 189.342 214.984 189.457C214.929 189.572 214.847 189.672 214.743 189.746C214.617 189.866 214.454 189.94 214.28 189.956ZM178.4 172.992L213.428 188.101L211.768 162.131C211.763 161.989 211.796 161.849 211.865 161.725C211.933 161.601 212.034 161.499 212.157 161.428C212.276 161.355 212.414 161.317 212.553 161.317C212.693 161.317 212.83 161.355 212.949 161.428C214.953 162.924 224.999 163.567 230.232 161.174C232.07 160.321 233.072 159.199 233.222 157.838C234.208 147.126 234.971 136.251 235.464 125.495C235.464 123.894 235.673 122.278 235.823 120.678C236.294 116.823 236.294 112.924 235.823 109.069C235.567 106.521 234.604 104.096 233.042 102.068C232.706 101.676 232.307 101.342 231.861 101.081C230.919 100.678 229.887 100.533 228.871 100.662C227.898 100.715 226.922 100.674 225.956 100.542C224.421 100.401 222.974 99.7657 221.83 98.732C220.854 99.9714 219.512 100.87 217.994 101.3C216.477 101.73 214.863 101.669 213.383 101.126C213.432 102.063 213.362 103.003 213.174 103.923C213.024 104.678 212.708 105.389 212.247 106.006C211.787 106.622 211.194 107.127 210.513 107.483C209.221 107.97 207.797 107.97 206.506 107.483C206.932 108.76 207.178 110.089 207.239 111.433C207.088 114.88 206.495 118.294 205.474 121.59C205.16 122.802 204.862 123.969 204.637 125.001C203.774 129.633 202.265 134.12 200.152 138.33C193.604 150.298 183.393 151.794 180.643 151.794L178.4 172.992Z" fill="#231F20"/>
<path d="M212.785 127.963C212.785 125.255 211.425 122.757 210.034 120.483C209.057 118.619 207.802 116.914 206.312 115.427C205.576 114.673 204.682 114.091 203.694 113.724C202.707 113.357 201.65 113.213 200.601 113.303C199.691 113.499 198.832 113.884 198.08 114.432C197.328 114.981 196.7 115.682 196.235 116.489C195.354 118.128 194.844 119.941 194.74 121.8C194.412 125.852 195.153 129.92 196.89 133.596C198.627 137.272 201.298 140.426 204.637 142.743L204.069 142.07" fill="white"/>
<path d="M204.577 143.611C204.428 143.608 204.282 143.561 204.159 143.476C200.712 141.071 197.954 137.804 196.16 134.001C194.366 130.198 193.598 125.992 193.933 121.8C194.058 119.819 194.625 117.892 195.593 116.16C196.106 115.254 196.808 114.47 197.652 113.861C198.496 113.252 199.461 112.832 200.481 112.63C201.63 112.497 202.794 112.622 203.889 112.998C204.983 113.373 205.979 113.988 206.805 114.799C208.35 116.331 209.651 118.092 210.662 120.02C211.963 122.219 213.577 124.956 213.518 127.963C213.51 128.16 213.426 128.347 213.284 128.483C213.142 128.62 212.952 128.696 212.755 128.696C212.657 128.694 212.56 128.673 212.47 128.634C212.38 128.594 212.299 128.537 212.231 128.467C212.163 128.396 212.109 128.312 212.074 128.221C212.038 128.129 212.021 128.031 212.023 127.933C212.023 125.345 210.528 122.817 209.376 120.783C208.435 118.988 207.231 117.344 205.803 115.906C205.135 115.243 204.329 114.736 203.443 114.42C202.557 114.105 201.612 113.989 200.676 114.081C199.869 114.256 199.108 114.6 198.444 115.089C197.779 115.579 197.225 116.204 196.818 116.923C195.95 118.454 195.439 120.162 195.323 121.919C195.036 125.609 195.66 129.313 197.141 132.705C198.622 136.096 200.914 139.071 203.815 141.367C203.937 141.352 204.061 141.367 204.176 141.412C204.291 141.456 204.393 141.528 204.473 141.621L205.041 142.294C205.161 142.431 205.227 142.606 205.227 142.788C205.227 142.97 205.161 143.145 205.041 143.282C204.933 143.446 204.768 143.564 204.577 143.611Z" fill="#231F20"/>
<path d="M169.744 179.858L173.392 168.04L220.933 172.633L223.669 183.493C223.669 183.493 198.822 195.311 169.744 179.858Z" fill="white"/>
<path d="M200.915 188.505C189.922 188.478 179.107 185.734 169.43 180.516C169.277 180.434 169.157 180.301 169.092 180.14C169.026 179.979 169.019 179.8 169.071 179.634L172.704 167.816C172.755 167.653 172.859 167.512 173.001 167.417C173.142 167.322 173.312 167.278 173.481 167.292L221.037 171.9C221.191 171.913 221.336 171.973 221.454 172.072C221.571 172.171 221.656 172.304 221.695 172.453L224.416 183.314C224.46 183.481 224.443 183.658 224.37 183.814C224.296 183.97 224.169 184.095 224.012 184.166C216.68 187.142 208.826 188.617 200.915 188.505ZM170.641 179.529C178.581 183.794 187.338 186.319 196.329 186.935C205.32 187.551 214.339 186.246 222.787 183.104L220.335 173.381L173.915 168.893L170.641 179.529Z" fill="#231F20"/>
<path d="M231.025 120.159C231.867 120.146 232.523 118.4 232.489 116.261C232.456 114.121 231.746 112.397 230.904 112.411C230.062 112.424 229.406 114.169 229.44 116.309C229.473 118.448 230.183 120.172 231.025 120.159Z" fill="#231F20"/>
<path d="M151.49 375.096C151.49 375.096 128.691 222.867 148.679 194.683C159.922 178.826 178.041 178.228 194.621 179.005C207.493 179.574 218.9 178.602 228.841 186.485C251.55 204.661 284.724 366.285 284.724 366.285C284.724 366.285 235.703 400.528 151.49 375.096Z" fill="black"/>
<path d="M303.15 168.308L308.76 166.464L315.64 187.428C315.87 188.129 315.813 188.893 315.48 189.552C315.147 190.21 314.567 190.71 313.866 190.94L313.539 191.047C313.192 191.161 312.826 191.206 312.462 191.178C312.098 191.151 311.743 191.052 311.417 190.887C311.091 190.722 310.801 190.494 310.563 190.217C310.325 189.94 310.144 189.619 310.03 189.272L303.15 168.308Z" fill="white"/>
<path d="M312.681 191.916C311.935 191.917 311.207 191.682 310.602 191.244C309.998 190.806 309.548 190.187 309.317 189.477L302.44 168.534C302.379 168.345 302.395 168.14 302.484 167.963C302.574 167.787 302.73 167.653 302.919 167.591L308.465 165.661C308.647 165.587 308.851 165.587 309.033 165.661C309.209 165.752 309.343 165.908 309.407 166.095L316.284 187.039C316.431 187.478 316.49 187.942 316.457 188.405C316.423 188.867 316.298 189.318 316.089 189.732C315.665 190.567 314.93 191.201 314.041 191.497L313.712 191.601C313.387 191.759 313.039 191.865 312.681 191.916ZM304.085 168.758L310.737 189.013C310.908 189.526 311.274 189.95 311.756 190.193C312.237 190.437 312.795 190.481 313.309 190.315L313.638 190.21C314.145 190.032 314.567 189.669 314.819 189.193C315.046 188.727 315.083 188.19 314.923 187.697L308.286 167.442L304.085 168.758Z" fill="#231F20"/>
<path d="M304.337 147.156L295.275 150.134L302.005 170.643L311.067 167.665L304.337 147.156Z" fill="white"/>
<path d="M302.007 171.361C301.893 171.384 301.776 171.384 301.663 171.361C301.487 171.271 301.353 171.115 301.289 170.927L294.561 150.418C294.5 150.229 294.516 150.024 294.606 149.847C294.696 149.671 294.852 149.537 295.04 149.475L304.1 146.483C304.189 146.443 304.286 146.422 304.384 146.422C304.482 146.422 304.578 146.443 304.668 146.483C304.756 146.526 304.835 146.587 304.9 146.661C304.964 146.736 305.012 146.823 305.041 146.917L311.769 167.427C311.844 167.609 311.844 167.813 311.769 167.995C311.678 168.171 311.523 168.306 311.335 168.369L302.276 171.361H302.007ZM296.221 150.582L302.485 169.671L310.124 167.157L303.845 148.069L296.221 150.582Z" fill="#231F20"/>
<path d="M312.135 183.553L309.465 184.425C307.7 185.001 306.736 186.9 307.312 188.666L316.855 217.927C317.431 219.693 319.328 220.658 321.093 220.082L323.763 219.21C325.528 218.634 326.492 216.735 325.916 214.969L316.373 185.707C315.797 183.941 313.9 182.976 312.135 183.553Z" fill="white"/>
<path d="M320.515 220.354C319.65 220.351 318.809 220.076 318.109 219.569C317.408 219.062 316.885 218.347 316.613 217.526L306.97 188.265C306.629 187.228 306.713 186.098 307.204 185.122C307.694 184.146 308.551 183.405 309.586 183.059L312.247 182.192C313.282 181.851 314.41 181.936 315.383 182.427C316.355 182.918 317.093 183.775 317.435 184.81L327.048 214.086C327.388 215.121 327.304 216.25 326.813 217.223C326.323 218.196 325.466 218.935 324.432 219.277L321.756 220.144C321.356 220.283 320.937 220.354 320.515 220.354ZM313.578 183.478C313.298 183.479 313.021 183.525 312.756 183.613L310.095 184.481C309.437 184.699 308.892 185.17 308.581 185.79C308.27 186.41 308.218 187.128 308.435 187.787L318.033 217.063C318.257 217.715 318.73 218.253 319.349 218.559C319.653 218.716 319.986 218.81 320.328 218.835C320.669 218.861 321.012 218.818 321.337 218.708L323.998 217.841C324.321 217.73 324.62 217.557 324.876 217.331C325.133 217.105 325.343 216.831 325.493 216.524C325.65 216.219 325.744 215.886 325.77 215.545C325.795 215.203 325.752 214.859 325.643 214.535L316.03 185.274C315.859 184.756 315.53 184.305 315.091 183.983C314.651 183.662 314.122 183.485 313.578 183.478Z" fill="#231F20"/>
<path d="M298.075 168.713C312.053 168.713 323.385 157.374 323.385 143.387C323.385 129.399 312.053 118.06 298.075 118.06C284.096 118.06 272.764 129.399 272.764 143.387C272.764 157.374 284.096 168.713 298.075 168.713Z" fill="white"/>
<path d="M298.105 169.461C291.55 169.468 285.233 167.003 280.414 162.557C275.595 158.111 272.628 152.011 272.103 145.473C271.579 138.935 273.536 132.439 277.585 127.281C281.633 122.123 287.476 118.681 293.948 117.641C300.42 116.602 307.045 118.041 312.504 121.672C317.963 125.304 321.853 130.86 323.4 137.234C324.946 143.607 324.036 150.33 320.85 156.062C317.663 161.794 312.435 166.113 306.208 168.16C303.592 169.018 300.857 169.457 298.105 169.461ZM298.105 118.808C295.509 118.806 292.93 119.22 290.465 120.035C284.595 121.963 279.667 126.035 276.663 131.438C273.66 136.841 272.801 143.178 274.259 149.186C275.717 155.194 279.384 160.431 284.529 163.854C289.674 167.277 295.919 168.634 302.02 167.655C308.121 166.675 313.628 163.431 317.445 158.569C321.261 153.707 323.106 147.584 322.612 141.421C322.118 135.259 319.322 129.509 314.779 125.317C310.237 121.126 304.283 118.802 298.105 118.808Z" fill="#231F20"/>
<path d="M298.075 163.956C309.428 163.956 318.631 154.747 318.631 143.387C318.631 132.026 309.428 122.817 298.075 122.817C286.722 122.817 277.519 132.026 277.519 143.387C277.519 154.747 286.722 163.956 298.075 163.956Z" fill="white"/>
<path d="M298.09 164.704C294.163 164.706 290.313 163.622 286.964 161.572C283.614 159.523 280.896 156.586 279.109 153.088C277.322 149.59 276.536 145.665 276.838 141.748C277.14 137.831 278.517 134.074 280.819 130.891C283.12 127.707 286.256 125.223 289.88 123.711C293.504 122.199 297.475 121.718 301.354 122.323C305.234 122.927 308.871 124.592 311.865 127.134C314.858 129.677 317.091 132.997 318.317 136.729C319.369 139.93 319.647 143.335 319.129 146.664C318.611 149.994 317.312 153.153 315.338 155.883C313.365 158.612 310.772 160.835 307.774 162.368C304.776 163.902 301.457 164.702 298.09 164.704ZM298.09 123.55C293.901 123.542 289.817 124.861 286.424 127.319C283.031 129.777 280.503 133.248 279.204 137.233C277.904 141.217 277.9 145.512 279.19 149.499C280.481 153.487 283.001 156.963 286.389 159.428C289.776 161.894 293.857 163.222 298.046 163.223C302.235 163.224 306.317 161.896 309.705 159.432C313.093 156.967 315.614 153.492 316.907 149.505C318.199 145.518 318.195 141.223 316.897 137.238C315.596 133.252 313.066 129.78 309.671 127.321C306.277 124.862 302.191 123.542 298 123.55H298.09Z" fill="#231F20"/>
<path d="M294.576 229.778L295.578 222.299C295.578 221.984 296.086 198.902 298.075 197.122C300.063 195.341 325.867 176.612 327.676 179.17C329.485 181.728 325.867 186.545 325.867 186.545C325.867 186.545 331.922 185.932 331.309 189.537C330.696 193.142 327.078 196.807 327.078 196.807C327.078 196.807 330.785 194.085 331.353 198.019C331.515 199.159 331.371 200.322 330.938 201.389C330.505 202.455 329.797 203.388 328.887 204.093C328.887 204.093 334.343 201.669 333.132 206.202C331.922 210.735 318.646 222.269 318.646 222.269L317.046 232.142L294.576 229.778Z" fill="white"/>
<path d="M317.046 232.98H316.972L294.547 230.586H294.412C293.799 230.407 293.799 230.407 294.711 223.66L294.89 222.329C294.89 222.194 295.279 198.812 297.641 196.673C299.136 195.296 322.354 178.272 327.167 178.272H327.362C327.555 178.286 327.744 178.341 327.914 178.434C328.084 178.527 328.233 178.655 328.348 178.811C329.843 180.92 328.348 184.077 327.347 185.827C328.832 185.775 330.284 186.27 331.428 187.218C331.729 187.562 331.948 187.969 332.067 188.41C332.186 188.851 332.203 189.313 332.116 189.761C331.669 191.763 330.78 193.639 329.515 195.252C329.862 195.244 330.207 195.305 330.531 195.431C331.01 195.676 331.415 196.045 331.701 196.501C331.988 196.956 332.147 197.481 332.161 198.019C332.414 199.686 332.064 201.389 331.174 202.821C331.947 202.701 332.736 202.889 333.372 203.345C333.751 203.766 334.003 204.286 334.098 204.845C334.194 205.404 334.128 205.978 333.91 206.501C332.729 210.989 321.158 221.222 319.393 222.762L317.898 232.366C317.862 232.558 317.753 232.729 317.595 232.843C317.436 232.957 317.24 233.006 317.046 232.98ZM295.414 229.18L316.433 231.409L317.928 222.239C317.949 222.065 318.035 221.904 318.168 221.79C321.815 218.634 331.473 209.658 332.43 206.112C332.639 205.289 332.624 204.691 332.43 204.467C331.907 204.033 330.262 204.467 329.275 204.856C329.106 204.936 328.912 204.948 328.734 204.889C328.557 204.831 328.408 204.706 328.319 204.542C328.223 204.382 328.192 204.191 328.234 204.01C328.276 203.829 328.387 203.671 328.543 203.569C329.34 202.947 329.958 202.126 330.336 201.188C330.714 200.251 330.838 199.23 330.696 198.229C330.606 197.675 330.427 197.002 329.963 196.807C329.231 196.493 327.975 197.226 327.586 197.51C327.434 197.619 327.247 197.667 327.062 197.645C326.877 197.623 326.706 197.532 326.584 197.391C326.459 197.251 326.39 197.07 326.39 196.882C326.39 196.695 326.459 196.513 326.584 196.374C326.584 196.374 330.068 192.858 330.621 189.507C330.68 189.287 330.684 189.055 330.632 188.834C330.58 188.612 330.473 188.406 330.322 188.236C329.395 187.248 326.868 187.263 325.986 187.338C325.841 187.352 325.695 187.325 325.565 187.258C325.436 187.192 325.327 187.09 325.254 186.964C325.173 186.845 325.13 186.704 325.13 186.56C325.13 186.416 325.173 186.275 325.254 186.156C326.166 184.929 328.244 181.369 327.063 179.664C324.521 178.901 301.169 195.416 298.568 197.765C297.073 199.261 296.311 218.604 296.311 222.388C296.311 222.388 296.311 222.987 296.116 223.884C295.937 225.216 295.578 227.849 295.414 229.12V229.18Z" fill="#231F20"/>
<path d="M228.811 186.485C228.811 186.485 243.343 195.282 254.226 215.432C265.11 235.583 281.286 285.413 281.286 285.413L290.6 221.94L322.368 229.105C322.368 229.105 325.089 342.799 296.953 355.589C268.818 368.38 196.893 289.228 196.893 289.228L228.811 186.485Z" fill="black"/>
<path d="M287.789 357.624H287.58C287.43 357.624 271.748 352.881 253.584 336.052C236.869 320.554 214.519 291.293 202.978 239.861C202.956 239.763 202.954 239.662 202.972 239.563C202.989 239.463 203.026 239.369 203.08 239.284C203.135 239.199 203.205 239.126 203.287 239.069C203.37 239.011 203.463 238.97 203.561 238.949C203.659 238.927 203.76 238.925 203.859 238.943C203.958 238.96 204.053 238.997 204.138 239.051C204.222 239.106 204.295 239.176 204.353 239.258C204.411 239.341 204.451 239.434 204.473 239.532C226.375 337.174 287.415 356.008 288.028 356.217C288.227 356.245 288.406 356.351 288.526 356.51C288.647 356.67 288.699 356.872 288.671 357.07C288.643 357.268 288.538 357.448 288.378 357.568C288.218 357.689 288.017 357.741 287.819 357.713L287.789 357.624Z" fill="#231F20"/>
<path d="M296.027 152.946C296.52 152.572 296.998 152.183 297.522 151.824L301.633 148.832C302.545 148.159 303.442 147.5 304.294 146.738C305.047 146.086 305.697 145.324 306.222 144.479C306.543 143.902 306.794 143.289 306.97 142.654C307.136 142.102 307.251 141.536 307.314 140.963C307.451 140.064 307.274 139.145 306.814 138.361C306.354 137.576 305.638 136.974 304.787 136.655C303.875 136.32 302.889 136.241 301.936 136.425C300.982 136.61 300.097 137.051 299.375 137.702C298.99 138.023 298.639 138.384 298.329 138.779V138.674C297.923 137.796 297.261 137.061 296.43 136.565C295.664 136.126 294.785 135.923 293.904 135.982C292.803 136.029 291.743 136.409 290.862 137.072C289.982 137.734 289.322 138.647 288.97 139.692C288.801 140.236 288.696 140.798 288.656 141.367C288.589 141.968 288.589 142.576 288.656 143.177C288.787 144.061 289.114 144.904 289.613 145.645C290.122 146.403 290.698 147.114 291.332 147.77C292.274 148.757 293.246 149.744 294.188 150.762C294.846 151.45 295.473 152.153 296.101 152.856L296.027 152.946Z" fill="black"/>
<path d="M231.816 150.941L223.669 146.214C223.669 146.214 221.187 156.012 225.612 158.541C230.037 161.069 231.816 150.941 231.816 150.941Z" fill="white"/>
<path d="M226.987 159.678C226.369 159.668 225.765 159.492 225.238 159.169C220.38 156.401 222.831 146.438 222.936 146.019C222.966 145.908 223.02 145.804 223.095 145.716C223.17 145.628 223.264 145.558 223.37 145.511C223.474 145.459 223.589 145.433 223.706 145.433C223.823 145.433 223.938 145.459 224.042 145.511L232.22 150.298C232.351 150.377 232.455 150.493 232.519 150.632C232.583 150.77 232.604 150.925 232.579 151.076C232.444 151.779 231.263 157.987 228.273 159.393C227.871 159.583 227.432 159.68 226.987 159.678ZM224.177 147.366C223.579 150.358 223.115 156.237 225.986 157.838C226.224 158.001 226.501 158.101 226.789 158.127C227.076 158.153 227.366 158.105 227.63 157.987C229.409 157.149 230.62 153.245 230.979 151.285L224.177 147.366Z" fill="#231F20"/>
<path d="M212.516 162.026C212.516 162.026 200.661 158.855 196.714 155.055C201.411 160.581 206.815 165.465 212.785 169.581L212.516 162.026Z" fill="#231F20"/>
<path d="M212.785 170.329C212.641 170.335 212.499 170.293 212.381 170.209C206.331 166.052 200.852 161.118 196.086 155.534C195.967 155.387 195.908 155.2 195.921 155.011C195.934 154.822 196.018 154.645 196.157 154.515C196.296 154.386 196.478 154.314 196.667 154.315C196.857 154.315 197.039 154.387 197.177 154.517C200.945 158.137 212.546 161.278 212.665 161.308C212.82 161.347 212.957 161.435 213.057 161.56C213.157 161.684 213.214 161.837 213.219 161.996L213.532 169.476C213.54 169.614 213.509 169.752 213.443 169.873C213.377 169.995 213.279 170.095 213.159 170.164C213.049 170.249 212.921 170.305 212.785 170.329ZM200.975 158.66C204.334 162.163 208.018 165.339 211.978 168.145L211.739 162.595C208.068 161.566 204.484 160.25 201.019 158.66H200.975Z" fill="#231F20"/>
</g>
<defs>
<clipPath id="clip0_49_20">
<rect width="595" height="328" rx="10" fill="white"/>
</clipPath>
</defs>
</svg>
