<svg width="595" height="328" viewBox="0 0 595 328" fill="none" xmlns="http://www.w3.org/2000/svg">
<g clip-path="url(#clip0_50_195)">
<rect width="595" height="328" rx="10" fill="#ED0C85"/>
<path d="M411.254 229.717C411.254 229.717 451.511 124.578 430.655 108.544C409.799 92.5097 322.329 98.9845 317.537 104.713C312.745 110.441 284.529 236.999 284.529 236.999L411.254 229.717Z" fill="#231F20"/>
<path d="M284.468 237.636C284.381 237.635 284.294 237.616 284.214 237.58C284.134 237.545 284.063 237.493 284.004 237.428C283.943 237.356 283.9 237.271 283.879 237.18C283.857 237.088 283.858 236.993 283.881 236.901C285.031 231.724 312.231 110.123 317.072 104.345C319.725 101.175 343.075 98.2256 368.063 97.8952C382.733 97.6993 418.295 98.2991 431.034 108.079C439.897 114.884 439.335 137.454 429.371 175.299C422.036 203.291 411.926 229.668 411.828 229.925C411.787 230.036 411.714 230.133 411.619 230.202C411.523 230.272 411.409 230.312 411.29 230.317L284.505 237.66L284.468 237.636ZM372.684 99.0824H368.087C342.415 99.4251 320.104 102.595 317.965 105.104C314.297 109.523 295.031 192.41 285.202 236.351L410.789 229.105C413.369 222.263 449.909 124.113 430.251 109.021C421.975 102.669 401.107 99.0824 372.684 99.0824Z" fill="#231F20"/>
<path d="M247.793 138.874L229.651 199.84C229.651 199.84 267.072 204.674 267.072 203.291C267.072 201.908 274.407 136.205 274.407 136.205L247.793 138.874Z" fill="white"/>
<path d="M265.189 204.087C258.869 204.087 240.935 201.908 229.578 200.415C229.49 200.402 229.406 200.371 229.332 200.324C229.257 200.276 229.193 200.214 229.144 200.139C229.096 200.065 229.064 199.982 229.05 199.894C229.036 199.807 229.041 199.717 229.065 199.632L247.206 138.666C247.24 138.548 247.308 138.443 247.402 138.365C247.495 138.286 247.61 138.237 247.732 138.225L274.358 135.557C274.448 135.548 274.539 135.561 274.624 135.592C274.708 135.624 274.785 135.675 274.847 135.74C274.913 135.802 274.963 135.879 274.992 135.964C275.022 136.049 275.031 136.141 275.018 136.23C272.488 158.873 267.683 202.018 267.683 203.255C267.672 203.455 267.585 203.643 267.439 203.781C266.722 204.053 265.953 204.157 265.189 204.087ZM230.397 199.326C243.404 200.99 263.6 203.304 266.436 202.9C266.901 197.612 272.854 144.247 273.674 136.891L248.221 139.449L230.397 199.326Z" fill="#231F20"/>
<path d="M213.404 123.733C213.563 123.905 220.006 122.179 223.331 126.181C226.656 130.184 222.341 133.758 211.839 131.689C201.338 129.621 213.404 123.733 213.404 123.733Z" fill="white"/>
<path d="M217.377 132.901C215.476 132.882 213.581 132.681 211.717 132.301C208.685 131.701 207.121 130.722 206.937 129.29C206.583 126.524 212.035 123.721 213.135 123.17C213.262 123.127 213.4 123.127 213.526 123.17H213.93C215.641 122.962 220.849 122.301 223.808 125.851C225.128 127.417 225.409 129.021 224.627 130.367C223.612 131.971 220.984 132.901 217.377 132.901ZM213.539 124.333C211.155 125.557 208.013 127.711 208.184 129.07C208.184 129.523 208.82 130.379 211.962 131.004C219.064 132.399 222.634 131.102 223.539 129.572C223.755 129.052 223.804 128.478 223.679 127.93C223.554 127.382 223.261 126.886 222.842 126.512C220.324 123.501 215.788 124.064 214.089 124.284C213.857 124.333 213.685 124.333 213.539 124.333Z" fill="#231F20"/>
<path d="M197.255 110.943C197.255 110.943 195.935 109.425 196.766 108.36C196.953 108.144 197.189 107.975 197.454 107.869C197.719 107.762 198.006 107.72 198.29 107.746C198.574 107.773 198.848 107.867 199.089 108.02C199.33 108.174 199.531 108.383 199.676 108.629C199.676 108.629 197.597 109.376 197.255 110.943Z" fill="white"/>
<path d="M197.255 111.567C197.165 111.568 197.077 111.55 196.994 111.514C196.912 111.478 196.839 111.425 196.778 111.359C196.167 110.649 195.36 109.131 196.277 107.981C196.482 107.711 196.746 107.492 197.05 107.342C197.353 107.191 197.687 107.112 198.025 107.112C198.442 107.119 198.851 107.223 199.22 107.417C199.59 107.61 199.909 107.887 200.152 108.225C200.219 108.303 200.266 108.397 200.287 108.497C200.308 108.598 200.304 108.702 200.275 108.801C200.249 108.899 200.2 108.989 200.132 109.063C200.064 109.138 199.978 109.195 199.883 109.229C199.394 109.401 198.086 110.086 197.866 111.077C197.843 111.191 197.788 111.296 197.708 111.381C197.628 111.465 197.526 111.525 197.414 111.555L197.255 111.567ZM198.05 108.372C197.901 108.375 197.755 108.41 197.622 108.475C197.489 108.541 197.372 108.635 197.279 108.752C197.21 108.886 197.173 109.035 197.173 109.186C197.173 109.338 197.21 109.487 197.279 109.621C197.648 109.168 198.095 108.787 198.6 108.495C198.431 108.421 198.245 108.395 198.062 108.421L198.05 108.372Z" fill="#231F20"/>
<path d="M200.14 108.568C199.413 108.627 198.726 108.926 198.186 109.418C197.646 109.909 197.285 110.566 197.157 111.285L223.38 145.446C223.542 143.809 224.248 142.274 225.385 141.087C226.522 139.899 228.024 139.129 229.651 138.898L200.14 108.568Z" fill="white"/>
<path d="M223.368 146.071C223.273 146.07 223.18 146.047 223.095 146.005C223.01 145.962 222.936 145.901 222.879 145.826L196.656 111.665C196.597 111.588 196.556 111.498 196.537 111.402C196.518 111.307 196.521 111.208 196.546 111.114C196.719 110.265 197.163 109.495 197.811 108.921C198.46 108.347 199.277 107.999 200.14 107.932C200.225 107.933 200.308 107.95 200.386 107.984C200.464 108.018 200.534 108.066 200.592 108.128L230.104 138.458C230.186 138.539 230.243 138.642 230.269 138.755C230.295 138.867 230.288 138.985 230.25 139.094C230.216 139.204 230.152 139.301 230.066 139.377C229.98 139.453 229.874 139.503 229.761 139.522C228.271 139.726 226.893 140.426 225.848 141.51C224.804 142.593 224.154 143.997 224.003 145.495C223.993 145.622 223.944 145.743 223.863 145.842C223.783 145.94 223.674 146.012 223.551 146.046L223.368 146.071ZM197.854 111.163L223.05 143.978C223.405 142.686 224.084 141.507 225.024 140.554C225.963 139.6 227.131 138.904 228.417 138.531L199.908 109.229C199.42 109.33 198.97 109.564 198.608 109.905C198.245 110.246 197.984 110.682 197.854 111.163Z" fill="#231F20"/>
<path d="M223.38 145.446L232.329 150.098L233.441 149.057L229.651 138.898C229.651 138.898 222.683 138.201 223.38 145.446Z" fill="white"/>
<path d="M232.329 150.722C232.226 150.723 232.125 150.698 232.035 150.648L223.086 145.997C222.991 145.95 222.91 145.879 222.85 145.791C222.79 145.703 222.754 145.601 222.744 145.495C222.574 144.521 222.628 143.522 222.901 142.572C223.174 141.621 223.66 140.746 224.321 140.012C225.059 139.377 225.916 138.895 226.841 138.594C227.767 138.294 228.743 138.181 229.712 138.262C229.832 138.273 229.946 138.318 230.042 138.392C230.137 138.465 230.209 138.565 230.25 138.678L234.028 148.837C234.073 148.954 234.082 149.082 234.054 149.204C234.026 149.326 233.961 149.437 233.869 149.522L232.756 150.563C232.638 150.666 232.486 150.722 232.329 150.722ZM223.979 145.043L232.219 149.326L232.708 148.886L229.211 139.51C227.749 139.468 226.322 139.965 225.201 140.905C224.71 141.465 224.347 142.125 224.136 142.839C223.925 143.554 223.871 144.305 223.979 145.043Z" fill="#231F20"/>
<path d="M232.328 150.098L234.04 151.933L234.847 151.015L233.441 149.057L232.328 150.098Z" fill="white"/>
<path d="M234.04 152.57C233.954 152.571 233.869 152.552 233.791 152.516C233.713 152.48 233.643 152.428 233.588 152.362L231.864 150.526C231.753 150.401 231.692 150.24 231.693 150.073C231.702 149.905 231.777 149.747 231.901 149.632L233.013 148.592C233.079 148.532 233.157 148.487 233.242 148.459C233.327 148.431 233.417 148.421 233.506 148.431C233.594 148.44 233.68 148.468 233.758 148.512C233.835 148.557 233.902 148.618 233.955 148.69L235.36 150.648C235.45 150.759 235.498 150.897 235.498 151.04C235.498 151.182 235.45 151.321 235.36 151.432L234.554 152.35C234.497 152.419 234.426 152.474 234.346 152.512C234.266 152.55 234.178 152.57 234.089 152.57H234.04ZM233.221 150.122L234.028 150.991L233.331 150.024L233.221 150.122Z" fill="#231F20"/>
<path d="M215.067 148.127C216.509 145.202 220.128 138.996 220.959 136.303C223.258 128.96 209.798 122.081 205.446 122.081C201.094 122.081 191.998 137.307 191.998 145.446C191.998 153.586 222.133 215.91 222.133 215.91L251.045 202.667L215.067 148.127Z" fill="white"/>
<path d="M222.17 216.547C222.052 216.547 221.937 216.514 221.837 216.451C221.738 216.388 221.658 216.298 221.607 216.192C220.385 213.646 191.399 153.623 191.399 145.446C191.399 137.27 200.592 121.444 205.446 121.444C208.795 121.444 216.583 125.018 220.116 129.767C220.898 130.68 221.444 131.772 221.706 132.946C221.968 134.119 221.939 135.34 221.619 136.499C220.454 139.385 219.09 142.187 217.536 144.883C216.888 146.107 216.314 147.209 215.849 148.078L251.656 202.3C251.706 202.377 251.74 202.463 251.754 202.554C251.769 202.645 251.765 202.737 251.742 202.826C251.716 202.912 251.672 202.991 251.613 203.059C251.554 203.126 251.481 203.18 251.4 203.218L222.475 216.486C222.383 216.541 222.276 216.562 222.17 216.547ZM205.446 122.705C201.619 122.705 192.671 137.393 192.671 145.446C192.671 152.937 219.48 208.86 222.463 215.09L250.153 202.386L214.541 148.531C214.488 148.433 214.46 148.324 214.46 148.213C214.46 148.101 214.488 147.992 214.541 147.894C215.006 146.964 215.678 145.703 216.412 144.333C217.924 141.705 219.255 138.977 220.397 136.169C220.655 135.199 220.671 134.18 220.442 133.202C220.214 132.225 219.749 131.318 219.089 130.563C215.678 125.924 208.258 122.705 205.446 122.705Z" fill="#231F20"/>
<path d="M368.894 160.465L404.53 151.37C403.307 149.645 388.931 103.954 373.772 96.4754C360.508 87.6628 329.053 81.7877 301.265 83.7828C301.265 83.7828 293.93 83.5135 281.07 88.6175C249.749 101.078 243.71 144.467 243.71 144.467L268.16 152.925C268.16 152.925 263.49 209.044 259.077 238.383C259.077 238.383 313.136 248.97 391.84 235.935C391.902 235.91 369.041 168.763 368.894 160.465Z" fill="black"/>
<path d="M365.96 97.7361C361.241 102.632 357.561 108.507 352.354 113.121C341.131 123.06 326.449 130.93 311.058 129.975C292.916 128.849 277.231 116.438 273.295 98.3603C270.85 87.0263 273.392 76.5002 282.145 68.4954C288.197 62.9631 295.947 59.5849 303.869 57.4797C324.908 51.8372 348.515 54.8359 366.473 67.198C369.408 69.0063 371.885 71.4694 373.711 74.3949C378.197 82.5343 373.038 90.9063 367.219 96.4999C366.828 96.8793 366.412 97.3077 365.96 97.7361Z" fill="black"/>
<path d="M304.065 110.563C303.881 110.563 300.507 114.676 300.336 114.737C302.256 121.983 304.285 131.42 312.476 132.35C329.089 134.247 331.608 112.069 334.737 101.604C323.234 104.835 315.116 106.133 304.065 110.563Z" fill="#231F20"/>
<path d="M314.419 133.084C313.749 133.079 313.08 133.038 312.415 132.962C304.236 132.032 301.925 123.17 300.055 116.083L299.737 114.859C299.708 114.739 299.715 114.613 299.759 114.497C299.802 114.381 299.88 114.281 299.982 114.211C300.177 114.027 301.07 112.987 301.718 112.228C303.613 110.049 303.637 110.037 303.833 109.951C310.599 107.332 317.545 105.201 324.615 103.574C327.732 102.791 330.948 101.983 334.517 100.98C334.622 100.95 334.733 100.95 334.838 100.977C334.944 101.005 335.04 101.061 335.116 101.139C335.19 101.218 335.242 101.315 335.267 101.42C335.293 101.524 335.291 101.634 335.263 101.738C334.799 103.293 334.346 105.129 333.857 107.075C331.327 117.552 327.451 133.072 314.419 133.084ZM300.972 114.933L301.192 115.777C303.062 122.876 305.165 130.918 312.512 131.689C326.119 133.243 329.921 117.932 332.708 106.744C333.087 105.215 333.454 103.746 333.821 102.424C330.654 103.293 327.708 104.027 324.933 104.737C317.927 106.33 311.046 108.432 304.346 111.028C304.102 111.273 303.246 112.252 302.61 112.999C301.754 114.101 301.278 114.639 301.009 114.933H300.972Z" fill="#231F20"/>
<path d="M320.153 25.1913C317.708 25.0934 316.143 26.1583 314.04 26.9171C309.945 28.3614 308.038 24.9343 304.517 23.1106C298.974 20.2253 292.604 19.3497 286.489 20.6326C280.375 21.9155 274.892 25.2777 270.972 30.1484C268.532 33.0409 266.953 36.5606 266.412 40.3074C265.898 44.5423 267.084 48.8752 266.351 53.0611C265.902 55.4652 264.85 57.7154 263.293 59.5998C261.736 61.4842 259.726 62.9407 257.451 63.8321C261.365 64.1345 265.301 63.7619 269.089 62.7305C268 64.0261 266.647 65.0733 265.12 65.8017C263.594 66.53 261.929 66.9227 260.238 66.9532C264.137 69.9545 268.927 71.5618 273.845 71.5186L265.226 73.5382C272.561 78.2505 281.497 79.658 290.141 79.2663C307.353 78.3728 336.18 71.3228 335.679 48.9976C335.397 40.442 330.703 25.6809 320.153 25.1913Z" fill="white"/>
<path d="M287.182 79.9885C280.593 79.9885 272.158 78.7645 264.847 74.0889C264.747 74.022 264.668 73.9275 264.62 73.8167C264.572 73.7059 264.558 73.5837 264.578 73.4647C264.603 73.3483 264.66 73.241 264.742 73.1546C264.824 73.0683 264.928 73.0062 265.043 72.9751L269.835 71.8613C266.187 71.2391 262.746 69.735 259.81 67.4795C259.708 67.4024 259.632 67.295 259.594 67.1724C259.555 67.0498 259.557 66.9182 259.597 66.7964C259.638 66.6745 259.716 66.5686 259.82 66.4934C259.924 66.4183 260.049 66.3779 260.177 66.3779C262.687 66.3367 265.111 65.4532 267.06 63.8688C263.869 64.5312 260.601 64.7372 257.353 64.4808C257.215 64.4682 257.086 64.4094 256.986 64.3138C256.886 64.2182 256.822 64.0915 256.803 63.9545C256.781 63.8159 256.807 63.6738 256.879 63.5531C256.95 63.4323 257.062 63.3404 257.194 63.2935C259.379 62.4517 261.313 61.0638 262.811 59.262C264.309 57.4601 265.321 55.3043 265.752 52.9999C266.046 50.7999 266.07 48.5721 265.825 46.366C265.634 44.3306 265.634 42.2816 265.825 40.2462C266.381 36.3832 268.007 32.7535 270.519 29.769C274.528 24.7883 280.136 21.351 286.389 20.0413C292.643 18.7315 299.156 19.6301 304.823 22.5843C305.864 23.1537 306.854 23.8131 307.781 24.5549C309.762 26.0603 311.326 27.2476 313.894 26.3541C314.444 26.1583 314.957 25.938 315.459 25.7299C316.95 24.9712 318.602 24.5809 320.275 24.5916C330.862 25.0567 336.168 39.4261 336.339 48.9976C336.559 59.1443 331.021 67.1368 319.872 72.7303C308.723 78.3239 295.422 79.6213 290.226 79.8906C289.199 79.964 288.209 79.9885 287.182 79.9885ZM266.766 73.8686C274.664 78.4585 283.722 79.0705 290.067 78.7645C295.153 78.4952 308.16 77.2835 319.224 71.7267C329.921 66.3657 335.226 58.7648 335.019 49.12C334.811 40.0136 329.933 26.3419 320.128 25.8645C318.637 25.8749 317.168 26.231 315.838 26.9049C315.312 27.1252 314.774 27.3578 314.199 27.5536C311.033 28.6674 309.053 27.1619 306.962 25.5708C306.093 24.8739 305.165 24.2554 304.187 23.7226C298.772 20.8941 292.545 20.0325 286.567 21.2845C280.588 22.5365 275.228 25.8247 271.4 30.589C269.041 33.3769 267.504 36.7676 266.962 40.3808C266.779 42.3308 266.779 44.2937 266.962 46.2436C267.21 48.5483 267.178 50.8746 266.864 53.1713C266.478 55.268 265.649 57.2579 264.432 59.0078C263.216 60.7577 261.64 62.2272 259.81 63.318C262.859 63.3141 265.893 62.9024 268.832 62.094C268.959 62.0573 269.094 62.0625 269.217 62.1088C269.341 62.1551 269.446 62.2401 269.517 62.3511C269.592 62.4566 269.632 62.5828 269.632 62.7121C269.632 62.8415 269.592 62.9677 269.517 63.0732C267.582 65.3779 264.883 66.9074 261.913 67.3816C265.449 69.6897 269.587 70.8991 273.808 70.8577C273.959 70.8538 274.106 70.9071 274.219 71.007C274.332 71.1068 274.404 71.2458 274.419 71.3962C274.438 71.546 274.402 71.6977 274.316 71.822C274.23 71.9462 274.101 72.0344 273.955 72.0694L266.766 73.8686Z" fill="#231F20"/>
<path d="M299.114 93.6602L300.336 114.737C300.336 114.737 309.957 125.753 322.341 118.984C334.725 112.216 334.248 101.481 334.248 101.481L326.119 61.9104C326.119 61.9104 314.884 59.3156 312.023 37.1617C302.44 44.7592 290.985 49.6263 278.869 51.2496C278.869 51.2496 279.089 76.035 283.454 85.888C287.818 95.741 299.114 93.6602 299.114 93.6602Z" fill="white"/>
<path d="M314.212 121.787C305.801 121.787 299.945 115.239 299.872 115.141C299.781 115.04 299.729 114.91 299.725 114.774L298.502 94.3457C295.923 94.6027 286.73 94.8475 282.854 86.0961C278.49 76.3043 278.233 52.2288 278.221 51.2129C278.222 51.0651 278.276 50.9225 278.372 50.8104C278.468 50.6984 278.601 50.6241 278.747 50.601C290.735 48.9645 302.07 44.1563 311.583 36.6722C311.667 36.5986 311.77 36.5494 311.88 36.53C311.99 36.5106 312.103 36.5216 312.207 36.562C312.309 36.6018 312.399 36.6681 312.468 36.7541C312.537 36.84 312.582 36.9427 312.598 37.0516C314.04 48.2632 317.684 54.2484 320.483 57.3083C321.996 59.1361 323.984 60.5087 326.229 61.274C326.341 61.3035 326.443 61.3638 326.523 61.4481C326.603 61.5325 326.658 61.6375 326.681 61.7513L334.823 101.359C334.823 101.567 335.19 112.644 322.598 119.523C320.039 120.977 317.154 121.756 314.212 121.787ZM300.923 114.443C302.146 115.777 310.899 124.517 322.06 118.409C333.943 111.897 333.649 101.555 333.649 101.457L325.593 62.2899C323.564 61.6167 314.371 57.5531 311.571 38.2144C302.173 45.3215 291.143 49.951 279.493 51.678C279.493 55.35 280.104 76.7205 284.004 85.5453C288.123 94.823 298.564 93.0727 299.004 92.9993C299.088 92.9828 299.176 92.984 299.26 93.003C299.344 93.022 299.423 93.0582 299.493 93.1095C299.559 93.1658 299.614 93.2349 299.654 93.3126C299.694 93.3903 299.718 93.4752 299.725 93.5623L300.923 114.443Z" fill="#231F20"/>
<path d="M321.534 72.9996C324.407 73.4327 327.333 72.7111 329.676 70.9923C331.258 69.738 332.492 68.0976 333.258 66.2286C334.024 64.3595 334.298 62.3247 334.053 60.3193C333.978 58.8204 333.559 57.3589 332.83 56.0476C332.473 55.3918 331.98 54.8206 331.383 54.3729C330.786 53.9251 330.099 53.6113 329.371 53.4528C327.565 53.3404 325.772 53.8171 324.261 54.8114C321.889 56.0354 321.816 57.394 320.52 59.4013C320.666 59.2177 320.776 58.7036 320.923 58.52" fill="white"/>
<path d="M323.172 73.7462C322.591 73.744 322.011 73.699 321.437 73.6116C321.275 73.5845 321.131 73.4949 321.034 73.362C320.938 73.2292 320.898 73.0638 320.923 72.9017C320.935 72.8225 320.962 72.7464 321.004 72.678C321.046 72.6097 321.101 72.5503 321.166 72.5036C321.231 72.4568 321.304 72.4235 321.382 72.4057C321.46 72.3879 321.541 72.3859 321.62 72.3999C324.328 72.7989 327.084 72.108 329.285 70.4782C330.783 69.2851 331.949 67.726 332.67 65.951C333.392 64.1761 333.645 62.245 333.405 60.3437C333.356 58.9395 332.984 57.5655 332.317 56.3291C332.001 55.7562 331.568 55.2569 331.045 54.8644C330.523 54.4719 329.923 54.1952 329.285 54.0525C327.769 53.7833 326.253 54.4809 324.566 55.3499C323.407 55.9145 322.5 56.8923 322.023 58.0916C321.767 58.5568 321.485 59.0831 321.106 59.6583C321.081 59.708 321.048 59.7534 321.009 59.793C320.91 59.9147 320.768 59.9931 320.613 60.0114C320.458 60.0297 320.301 59.9864 320.177 59.8909C320.048 59.7996 319.96 59.6609 319.933 59.505C319.905 59.3491 319.94 59.1886 320.031 59.0586C320.031 59.0586 320.031 58.8995 320.116 58.8138C320.188 58.5922 320.291 58.382 320.422 58.1896C320.485 58.1154 320.565 58.0567 320.654 58.0182L320.886 57.5776C321.49 56.1577 322.584 55.0023 323.967 54.3218C325.41 53.5752 327.402 52.5471 329.444 52.902C330.274 53.0669 331.058 53.4107 331.742 53.9095C332.426 54.4083 332.993 55.0502 333.405 55.7906C334.154 57.1905 334.573 58.7441 334.627 60.3315C334.886 62.4387 334.596 64.5769 333.786 66.539C332.977 68.5011 331.675 70.2206 330.006 71.5308C328.021 72.9776 325.628 73.7536 323.172 73.7462Z" fill="#231F20"/>
<path d="M299.749 104.749C302.157 104.576 304.486 103.816 306.533 102.536C308.581 101.257 310.285 99.4952 311.498 97.4056C315.813 90.1964 314.089 85.582 314.089 85.582C314.089 85.582 308.27 93.0115 299.114 93.6113L299.749 104.749Z" fill="#231F20"/>
<path d="M299.749 105.349C299.595 105.349 299.446 105.289 299.334 105.182C299.223 105.075 299.157 104.929 299.15 104.774L298.503 93.7582C298.498 93.6778 298.508 93.5972 298.535 93.521C298.561 93.4449 298.602 93.3746 298.655 93.3144C298.709 93.2541 298.773 93.205 298.846 93.1698C298.918 93.1347 298.997 93.1141 299.077 93.1095C307.842 92.5464 313.551 85.3984 313.613 85.325C313.679 85.2385 313.767 85.1713 313.868 85.1304C313.969 85.0895 314.079 85.0764 314.187 85.0925C314.294 85.1107 314.394 85.1565 314.477 85.2251C314.561 85.2938 314.625 85.3831 314.664 85.4841C314.737 85.68 316.437 90.4534 312.011 97.834C310.751 100.005 308.977 101.832 306.845 103.153C304.713 104.474 302.289 105.25 299.786 105.41L299.749 105.349ZM299.749 94.211L300.324 104.088C302.508 103.819 304.6 103.052 306.442 101.847C308.284 100.642 309.825 99.0306 310.948 97.1363C313.869 92.2404 313.943 88.6664 313.723 86.9529C310.062 90.942 305.115 93.5119 299.749 94.211Z" fill="#231F20"/>
<path d="M297.5 60.1602C297.5 60.1602 292.916 72.253 294.994 73.6973C297.072 75.1416 301.461 72.8405 301.461 72.8405" fill="white"/>
<path d="M296.803 74.7866C296.038 74.8217 295.282 74.6163 294.639 74.1991C292.341 72.6079 295.862 62.8896 296.913 59.9399C296.971 59.7896 297.085 59.668 297.232 59.6016C297.378 59.5351 297.545 59.5292 297.696 59.5849C297.771 59.6134 297.841 59.6567 297.9 59.7122C297.959 59.7678 298.006 59.8345 298.039 59.9085C298.072 59.9825 298.09 60.0623 298.092 60.1434C298.094 60.2244 298.08 60.305 298.05 60.3805C295.923 65.9985 294.383 72.4978 295.336 73.1832C296.791 74.1869 300.043 72.8895 301.168 72.3019C301.312 72.2279 301.48 72.2133 301.635 72.2613C301.791 72.3093 301.921 72.4161 301.999 72.559C302.071 72.7035 302.084 72.8709 302.033 73.0246C301.983 73.1782 301.874 73.3057 301.73 73.379C300.207 74.1956 298.527 74.6755 296.803 74.7866Z" fill="#231F20"/>
<path d="M306.517 59.8541C307.449 59.5527 307.859 58.2394 307.433 56.9208C307.008 55.6022 305.907 54.7776 304.976 55.079C304.044 55.3805 303.634 56.6938 304.06 58.0124C304.486 59.331 305.586 60.1556 306.517 59.8541Z" fill="#231F20"/>
<path d="M289.414 63.8583C290.393 63.8449 291.171 62.7108 291.152 61.3252C291.134 59.9396 290.325 58.8271 289.346 58.8405C288.367 58.8538 287.589 59.9879 287.608 61.3735C287.626 62.7592 288.435 63.8716 289.414 63.8583Z" fill="#231F20"/>
<path d="M298.955 89.2295C297.781 89.2602 296.626 88.922 295.654 88.2625C291.803 85.4474 291.522 79.2296 291.51 78.9603C291.506 78.8157 291.553 78.6743 291.643 78.5605C291.732 78.4466 291.858 78.3673 291.999 78.3361C307.818 74.8723 307.989 74.9947 308.27 75.2028C308.34 75.2555 308.399 75.3216 308.443 75.3973C308.487 75.4729 308.516 75.5566 308.527 75.6434C308.772 78.1111 308.433 80.6018 307.537 82.9138C306.998 84.3311 306.145 85.6074 305.042 86.6464C303.938 87.6853 302.614 88.4598 301.168 88.9112C300.448 89.1194 299.704 89.2265 298.955 89.2295ZM292.781 79.4377C292.928 80.9187 293.588 85.2516 296.351 87.2589C297.009 87.6631 297.748 87.9167 298.515 88.0013C299.282 88.086 300.059 87.9996 300.789 87.7485C302.063 87.3513 303.231 86.6704 304.205 85.7567C305.179 84.8431 305.933 83.7205 306.412 82.4731C307.169 80.5268 307.486 78.4369 307.341 76.3533C305.238 76.7327 297.818 78.3239 292.781 79.4255V79.4377Z" fill="#231F20"/>
<path d="M306.974 82.718C304.627 88.3972 298.747 89.7558 295.972 87.7852C296.595 85.6188 297.732 83.3667 299.847 82.5466C302.168 81.754 304.695 81.8148 306.974 82.718Z" fill="#231F20"/>
<path d="M298.955 89.2172C297.782 89.2499 296.629 88.9162 295.654 88.2625C295.553 88.189 295.478 88.0858 295.438 87.9673C295.399 87.8488 295.397 87.721 295.434 87.6016C296.265 84.6151 297.696 82.7057 299.664 81.9591C302.111 81.1264 304.773 81.1827 307.182 82.1182C307.26 82.1468 307.332 82.1908 307.393 82.2476C307.454 82.3043 307.503 82.3727 307.537 82.4487C307.597 82.602 307.597 82.7727 307.537 82.926C306.995 84.3402 306.141 85.6132 305.038 86.6497C303.934 87.6863 302.611 88.4594 301.168 88.9112C300.448 89.1148 299.703 89.2178 298.955 89.2172ZM296.73 87.4914C298.001 88.0927 299.455 88.1803 300.789 87.7362C301.959 87.3777 303.041 86.776 303.964 85.9703C304.887 85.1647 305.629 84.1732 306.143 83.0607C304.183 82.4082 302.064 82.4082 300.104 83.0607C298.6 83.6726 297.5 85.1659 296.73 87.4914Z" fill="#231F20"/>
<path d="M278.295 69.9275C277.458 69.9272 276.647 69.6406 275.995 69.1152C275.344 68.5898 274.891 67.8572 274.713 67.0389L273.429 61.2005C273.222 60.2494 273.4 59.2549 273.925 58.4355C274.45 57.6161 275.279 57.039 276.229 56.831L289.859 53.8322C290.331 53.7277 290.818 53.7174 291.293 53.8018C291.768 53.8861 292.222 54.0636 292.629 54.324C293.035 54.5844 293.387 54.9226 293.662 55.3192C293.938 55.7158 294.133 56.163 294.236 56.6351L295.458 62.4735C295.656 63.4123 295.479 64.3914 294.965 65.2012C294.451 66.011 293.641 66.5871 292.708 66.8063L279.077 69.7928C278.822 69.868 278.56 69.9132 278.295 69.9275ZM290.654 55.0195C290.479 55.0014 290.303 55.0014 290.128 55.0195L276.51 58.006C275.888 58.1495 275.347 58.5306 275.002 59.068C274.657 59.6054 274.536 60.2565 274.664 60.8823L275.947 66.8063C276.093 67.4239 276.473 67.9606 277.007 68.3031C277.541 68.6457 278.186 68.7673 278.808 68.6423L292.439 65.5824C293.056 65.4361 293.592 65.0557 293.934 64.5214C294.276 63.987 294.397 63.3405 294.273 62.7183L293.05 56.8799C292.927 56.3464 292.629 55.8696 292.204 55.5257C291.778 55.1818 291.25 54.9906 290.703 54.9828L290.654 55.0195Z" fill="#231F20"/>
<path d="M302.586 64.6032C301.883 64.6013 301.195 64.3974 300.605 64.0157C299.788 63.491 299.212 62.6636 299.004 61.7146L297.781 55.8763C297.571 54.9258 297.747 53.9308 298.27 53.1101C298.53 52.7016 298.868 52.3485 299.264 52.0712C299.661 51.7939 300.108 51.5979 300.581 51.4945L314.199 48.508C314.671 48.4034 315.158 48.3931 315.633 48.4775C316.108 48.5619 316.562 48.7393 316.969 48.9997C317.375 49.2601 317.727 49.5983 318.002 49.9949C318.278 50.3915 318.473 50.8387 318.576 51.3109L319.798 57.1492C320.011 58.0935 319.843 59.0836 319.33 59.9042C318.817 60.7248 318.001 61.3095 317.06 61.531L303.441 64.5175C303.159 64.5733 302.873 64.602 302.586 64.6032ZM314.945 49.6707C314.768 49.6729 314.592 49.6935 314.419 49.7319L300.801 52.7307C300.491 52.7958 300.197 52.9226 299.936 53.1033C299.676 53.2841 299.454 53.5153 299.285 53.7833C298.94 54.3244 298.822 54.9793 298.955 55.607L300.238 61.4453C300.384 62.0629 300.764 62.5996 301.298 62.9421C301.832 63.2847 302.477 63.4063 303.099 63.2813L316.73 60.2948C317.353 60.1556 317.897 59.7778 318.246 59.2422C318.586 58.6994 318.7 58.0446 318.564 57.4185L317.341 51.5801C317.219 51.0362 316.914 50.5505 316.479 50.2033C316.043 49.8561 315.502 49.6682 314.945 49.6707Z" fill="#231F20"/>
<path d="M293.612 57.4062C293.501 57.4086 293.39 57.3789 293.295 57.3206C293.152 57.2362 293.048 57.0994 293.005 56.9394C292.961 56.7794 292.982 56.6088 293.062 56.4638C293.637 55.4724 295.507 53.9179 298.576 55.1541C298.738 55.2158 298.869 55.3394 298.94 55.4978C299.011 55.6562 299.016 55.8364 298.955 55.9987C298.893 56.161 298.77 56.2921 298.612 56.3633C298.453 56.4345 298.273 56.4398 298.111 56.3781C295.373 55.2765 294.273 56.9534 294.163 57.1492C294.099 57.2338 294.015 57.3014 293.919 57.3462C293.824 57.391 293.718 57.4116 293.612 57.4062Z" fill="#231F20"/>
<path d="M171.827 220.341H423.173L463.503 294.085H131.497L171.827 220.341Z" fill="white"/>
<path d="M463.503 294.697H131.497C131.392 294.697 131.288 294.67 131.196 294.618C131.104 294.567 131.027 294.493 130.971 294.404C130.92 294.31 130.893 294.205 130.893 294.098C130.893 293.991 130.92 293.885 130.971 293.792L171.314 220.047C171.365 219.95 171.443 219.869 171.538 219.813C171.633 219.756 171.741 219.728 171.852 219.729H423.161C423.271 219.728 423.38 219.756 423.474 219.813C423.569 219.869 423.647 219.95 423.699 220.047L464.041 293.792C464.093 293.885 464.119 293.991 464.119 294.098C464.119 294.205 464.093 294.31 464.041 294.404C463.984 294.495 463.905 294.57 463.811 294.621C463.716 294.673 463.611 294.699 463.503 294.697ZM132.536 293.473H462.464L422.806 220.953H172.194L132.536 293.473Z" fill="#D1D3D4"/>
<path d="M175.727 172.766L176.265 170.44C177.487 168.114 178.844 166.548 181.998 166.548H301.644C303.091 166.55 304.497 167.021 305.654 167.89C306.811 168.76 307.656 169.98 308.062 171.37L327.512 238.272C328.014 239.707 327.951 241.279 327.335 242.669C326.72 244.058 325.598 245.16 324.199 245.751L322.085 246.253L175.727 172.766Z" fill="white"/>
<path d="M322.084 246.865C321.992 246.862 321.9 246.841 321.816 246.803L175.458 173.292C175.334 173.231 175.235 173.13 175.178 173.005C175.12 172.881 175.106 172.74 175.14 172.606L175.678 170.281C175.673 170.228 175.673 170.175 175.678 170.122C176.9 167.906 178.306 165.911 181.949 165.911H301.595C303.173 165.918 304.707 166.433 305.968 167.381C307.23 168.329 308.153 169.659 308.6 171.174L328.062 238.162C328.609 239.743 328.534 241.473 327.853 243.001C327.172 244.528 325.936 245.739 324.395 246.387L322.207 246.914L322.084 246.865ZM176.473 172.435L322.207 245.604L324.102 245.163C327.048 244.013 327.659 240.867 326.962 238.444L307.512 171.541C307.139 170.281 306.371 169.174 305.321 168.385C304.27 167.596 302.994 167.166 301.681 167.16H181.998C179.296 167.16 178.135 168.384 176.839 170.66L176.473 172.435Z" fill="#231F20"/>
<path d="M322.084 246.253H199.993C199.164 246.243 198.359 245.967 197.699 245.464C197.038 244.962 196.557 244.26 196.326 243.462L175.776 172.765C175.698 172.494 175.684 172.209 175.736 171.931C175.787 171.654 175.902 171.392 176.071 171.167C176.241 170.942 176.46 170.759 176.712 170.632C176.964 170.506 177.242 170.44 177.524 170.44H302.879L324.114 243.548C324.207 243.863 324.226 244.196 324.168 244.519C324.11 244.843 323.977 245.149 323.78 245.412C323.582 245.675 323.326 245.888 323.032 246.034C322.737 246.18 322.413 246.255 322.084 246.253Z" fill="#231F20"/>
<path d="M322.085 246.865H199.993C199.025 246.86 198.083 246.543 197.308 245.961C196.533 245.379 195.966 244.563 195.69 243.633L175.14 172.937C175.041 172.575 175.026 172.196 175.096 171.828C175.167 171.459 175.321 171.112 175.546 170.813C175.772 170.514 176.063 170.271 176.398 170.102C176.732 169.933 177.101 169.844 177.475 169.84H302.879C303.009 169.838 303.135 169.879 303.239 169.956C303.343 170.034 303.419 170.144 303.454 170.269L324.701 243.376C324.818 243.783 324.84 244.211 324.764 244.627C324.687 245.043 324.516 245.436 324.262 245.774C324.008 246.112 323.68 246.387 323.302 246.576C322.924 246.766 322.507 246.864 322.085 246.865ZM177.475 171.052C177.289 171.055 177.106 171.1 176.94 171.185C176.774 171.269 176.63 171.39 176.518 171.539C176.406 171.688 176.329 171.86 176.294 172.043C176.258 172.226 176.265 172.414 176.314 172.594L196.852 243.291C197.054 243.968 197.469 244.563 198.034 244.986C198.6 245.409 199.287 245.639 199.993 245.641H322.085C322.321 245.642 322.554 245.589 322.766 245.485C322.978 245.381 323.163 245.229 323.307 245.041C323.445 244.854 323.538 244.637 323.578 244.407C323.619 244.178 323.605 243.942 323.539 243.719L302.39 171.052H177.475Z" fill="#231F20"/>
<path d="M301.608 216.131L294.187 247.721C293.794 249.412 292.841 250.92 291.482 251.998C290.123 253.076 288.439 253.661 286.705 253.658H209.48C208.321 253.657 207.177 253.394 206.133 252.889C205.09 252.383 204.174 251.648 203.455 250.738C202.735 249.828 202.231 248.767 201.978 247.634C201.726 246.501 201.733 245.326 201.998 244.196L208.539 216.131H202.145L195.886 242.752C195.413 244.802 195.409 246.932 195.872 248.984C196.336 251.036 197.256 252.957 198.563 254.604C199.871 256.251 201.533 257.581 203.425 258.496C205.317 259.411 207.391 259.886 209.492 259.888H286.767C289.898 259.886 292.937 258.828 295.394 256.885C297.852 254.942 299.584 252.227 300.312 249.178L308.062 216.131H301.608Z" fill="white"/>
<path d="M286.705 260.585H209.48C207.281 260.585 205.111 260.086 203.132 259.128C201.153 258.169 199.416 256.775 198.051 255.049C196.686 253.323 195.728 251.311 195.25 249.162C194.771 247.014 194.784 244.785 195.287 242.642L201.534 216.008C201.567 215.875 201.644 215.756 201.753 215.672C201.861 215.587 201.995 215.542 202.133 215.543H208.588C208.679 215.545 208.769 215.566 208.852 215.606C208.934 215.646 209.007 215.704 209.064 215.776C209.12 215.847 209.16 215.931 209.179 216.02C209.198 216.109 209.196 216.201 209.174 216.29L202.585 244.356C202.342 245.396 202.337 246.479 202.57 247.522C202.803 248.565 203.269 249.541 203.932 250.379C204.594 251.217 205.438 251.894 206.398 252.36C207.359 252.826 208.412 253.069 209.48 253.07H286.754C288.352 253.073 289.904 252.534 291.156 251.54C292.408 250.546 293.287 249.157 293.649 247.599L301.07 216.008C301.1 215.876 301.175 215.757 301.282 215.673C301.388 215.588 301.52 215.543 301.656 215.543H308.111C308.202 215.545 308.292 215.567 308.374 215.607C308.456 215.647 308.528 215.705 308.585 215.776C308.642 215.848 308.683 215.93 308.705 216.019C308.726 216.108 308.728 216.2 308.71 216.29L300.947 249.337C300.201 252.552 298.384 255.417 295.796 257.461C293.208 259.505 290.002 260.607 286.705 260.585ZM202.561 216.767L196.448 242.923C195.984 244.889 195.972 246.935 196.411 248.906C196.85 250.877 197.73 252.723 198.984 254.305C200.238 255.887 201.834 257.164 203.652 258.04C205.47 258.916 207.463 259.367 209.48 259.361H286.754C289.769 259.37 292.697 258.354 295.06 256.48C297.423 254.605 299.081 251.984 299.762 249.043L307.341 216.767H302.146L294.811 247.881C294.391 249.709 293.363 251.341 291.894 252.507C290.425 253.672 288.604 254.303 286.73 254.294H209.48C208.228 254.294 206.991 254.011 205.864 253.465C204.736 252.919 203.747 252.125 202.97 251.142C202.192 250.159 201.647 249.012 201.375 247.788C201.103 246.564 201.112 245.294 201.399 244.074L207.805 216.767H202.561Z" fill="#231F20"/>
<path d="M401.192 151.713C401.192 151.713 412.122 200.305 403.173 212.716C394.224 225.127 331.73 223.169 331.73 223.169C331.73 223.169 321.596 235.347 312.794 234.539C303.992 233.731 309.126 217.061 319.481 210.121L318.05 204.332L373.148 195.482L365.813 160.562" fill="white"/>
<path d="M313.6 235.188C313.299 235.188 312.993 235.188 312.683 235.188C311.544 235.131 310.456 234.698 309.589 233.956C308.722 233.214 308.125 232.205 307.891 231.088C306.51 225.665 310.935 215.323 318.723 209.888L317.402 204.515C317.381 204.435 317.376 204.351 317.389 204.269C317.401 204.187 317.431 204.108 317.476 204.038C317.522 203.966 317.583 203.905 317.654 203.858C317.726 203.812 317.807 203.781 317.891 203.769L372.354 195.017L365.141 160.746C365.125 160.667 365.124 160.586 365.14 160.507C365.155 160.428 365.186 160.353 365.23 160.286C365.274 160.219 365.331 160.161 365.398 160.116C365.464 160.071 365.539 160.04 365.618 160.024C365.696 160.006 365.776 160.004 365.855 160.018C365.934 160.031 366.009 160.061 366.076 160.104C366.144 160.148 366.201 160.204 366.246 160.27C366.292 160.336 366.323 160.411 366.339 160.489L373.674 195.409C373.692 195.491 373.693 195.576 373.676 195.658C373.659 195.74 373.625 195.818 373.576 195.886C373.53 195.955 373.471 196.013 373.401 196.057C373.332 196.101 373.254 196.13 373.173 196.143L318.735 204.895L319.957 210.035C319.989 210.156 319.982 210.282 319.938 210.399C319.894 210.515 319.816 210.615 319.713 210.684C312.231 215.702 307.745 225.8 309.028 230.818C309.193 231.683 309.645 232.467 310.311 233.043C310.976 233.618 311.817 233.952 312.696 233.988C321.07 234.772 331.033 222.973 331.107 222.838C331.166 222.767 331.241 222.71 331.326 222.671C331.41 222.633 331.503 222.615 331.596 222.618C332.219 222.618 393.943 224.417 402.574 212.41C411.205 200.403 400.618 152.435 400.508 151.909C400.49 151.829 400.488 151.746 400.503 151.665C400.517 151.584 400.548 151.506 400.592 151.437C400.636 151.368 400.694 151.308 400.761 151.261C400.828 151.213 400.904 151.18 400.985 151.162C401.065 151.145 401.148 151.143 401.229 151.157C401.31 151.172 401.387 151.202 401.456 151.246C401.525 151.291 401.585 151.348 401.632 151.416C401.679 151.483 401.713 151.559 401.73 151.64C402.183 153.635 412.611 200.599 403.601 213.132C394.799 225.372 337.109 224.001 331.889 223.842C330.508 225.457 321.791 235.188 313.6 235.188Z" fill="#231F20"/>
<path d="M335.63 127.65C335.535 127.648 335.443 127.623 335.361 127.576C335.286 127.542 335.219 127.493 335.163 127.433C335.107 127.372 335.064 127.301 335.037 127.223C335.01 127.145 334.998 127.063 335.003 126.98C335.009 126.898 335.03 126.818 335.067 126.744C343.943 108.385 366.73 96.0347 366.962 95.9123C367.034 95.8721 367.114 95.8468 367.195 95.8379C367.277 95.8291 367.36 95.8369 367.439 95.8609C367.518 95.8849 367.591 95.9246 367.654 95.9776C367.717 96.0306 367.769 96.0959 367.806 96.1694C367.846 96.2423 367.872 96.3225 367.881 96.4054C367.89 96.4883 367.882 96.5721 367.858 96.652C367.834 96.7319 367.795 96.8061 367.742 96.8704C367.688 96.9346 367.623 96.9876 367.549 97.0262C367.329 97.1486 344.896 109.266 336.204 127.295C336.15 127.401 336.068 127.491 335.967 127.553C335.865 127.616 335.749 127.649 335.63 127.65Z" fill="#231F20"/>
<path d="M297.952 126.781C297.864 126.799 297.772 126.799 297.683 126.781C276.387 116.989 273.808 95.4717 273.783 95.2636C273.766 95.0966 273.816 94.9295 273.921 94.7988C274.026 94.6682 274.179 94.5844 274.346 94.566C274.428 94.5557 274.511 94.5619 274.591 94.5841C274.67 94.6064 274.744 94.6442 274.809 94.6954C274.874 94.7467 274.928 94.8103 274.968 94.8826C275.008 94.955 275.034 95.0345 275.043 95.1167C275.043 95.3248 277.585 116.145 298.27 125.52C298.421 125.59 298.539 125.716 298.599 125.871C298.658 126.027 298.654 126.2 298.588 126.352C298.541 126.482 298.455 126.594 298.34 126.671C298.226 126.748 298.09 126.786 297.952 126.781Z" fill="#231F20"/>
<path d="M200.923 154.528C200.79 154.49 200.673 154.41 200.59 154.3C200.506 154.189 200.461 154.055 200.461 153.916C200.461 153.778 200.506 153.643 200.59 153.533C200.673 153.423 200.79 153.342 200.923 153.304C210.14 153.023 214.615 147.809 214.663 147.76C214.715 147.696 214.78 147.643 214.852 147.604C214.924 147.566 215.004 147.542 215.086 147.534C215.168 147.526 215.25 147.534 215.329 147.558C215.407 147.582 215.48 147.622 215.544 147.674C215.673 147.781 215.754 147.936 215.771 148.103C215.787 148.271 215.736 148.438 215.629 148.568C215.434 148.8 210.739 154.271 200.959 154.565L200.923 154.528Z" fill="#231F20"/>
<path d="M365.74 161.187C365.599 161.188 365.462 161.141 365.351 161.055C365.24 160.968 365.162 160.846 365.129 160.709C365.129 160.489 359.371 137.931 358.576 124.406C358.571 124.324 358.582 124.242 358.609 124.165C358.636 124.087 358.678 124.015 358.732 123.954C358.787 123.893 358.853 123.843 358.927 123.807C359.001 123.771 359.081 123.75 359.163 123.745C359.33 123.735 359.494 123.791 359.619 123.901C359.745 124.011 359.823 124.166 359.835 124.333C360.63 137.735 366.302 160.171 366.351 160.403C366.392 160.566 366.368 160.737 366.283 160.882C366.198 161.026 366.06 161.131 365.899 161.174L365.74 161.187Z" fill="#231F20"/>
<path d="M267.206 165.214C267.123 165.209 267.042 165.188 266.967 165.151C266.893 165.115 266.826 165.063 266.771 165.001C266.717 164.938 266.675 164.865 266.649 164.786C266.623 164.707 266.613 164.623 266.62 164.54L269.651 116.989C269.656 116.906 269.677 116.825 269.714 116.75C269.75 116.675 269.801 116.608 269.864 116.554C269.927 116.499 270 116.457 270.079 116.431C270.158 116.405 270.241 116.395 270.324 116.402C270.406 116.405 270.487 116.424 270.562 116.46C270.637 116.495 270.703 116.545 270.758 116.607C270.813 116.668 270.855 116.741 270.881 116.819C270.907 116.897 270.917 116.98 270.911 117.063L267.83 164.614C267.824 164.775 267.755 164.928 267.639 165.039C267.523 165.151 267.368 165.214 267.206 165.214Z" fill="#231F20"/>
<path d="M375.447 138.617C375.333 138.618 375.222 138.588 375.125 138.53C375.028 138.471 374.949 138.387 374.896 138.286L368.98 127.27C368.914 127.11 368.914 126.929 368.98 126.769C369.036 126.604 369.155 126.468 369.31 126.389L387.647 117.711C387.722 117.674 387.803 117.652 387.886 117.647C387.969 117.641 388.052 117.653 388.131 117.68C388.209 117.707 388.282 117.75 388.344 117.806C388.405 117.862 388.455 117.93 388.491 118.005C388.562 118.156 388.572 118.33 388.517 118.488C388.462 118.646 388.347 118.776 388.197 118.85L370.422 127.246L375.777 137.185L393.784 131.677C393.864 131.653 393.949 131.645 394.032 131.653C394.115 131.662 394.196 131.686 394.27 131.726C394.344 131.766 394.409 131.82 394.462 131.885C394.515 131.95 394.555 132.025 394.579 132.105C394.603 132.186 394.611 132.27 394.602 132.353C394.594 132.437 394.569 132.518 394.529 132.592C394.49 132.666 394.436 132.731 394.371 132.784C394.306 132.837 394.231 132.877 394.151 132.901L375.63 138.629L375.447 138.617Z" fill="#231F20"/>
<path d="M391.327 278.284C407.997 278.284 421.51 274.212 421.51 269.19C421.51 264.167 407.997 260.096 391.327 260.096C374.657 260.096 361.143 264.167 361.143 269.19C361.143 274.212 374.657 278.284 391.327 278.284Z" fill="white"/>
<path d="M391.327 278.896C374.065 278.896 360.532 274.637 360.532 269.19C360.532 263.743 374.065 259.484 391.327 259.484C408.589 259.484 422.122 263.743 422.122 269.19C422.122 274.637 408.589 278.896 391.327 278.896ZM391.327 260.708C373.637 260.708 361.755 265.09 361.755 269.19C361.755 273.29 373.637 277.672 391.327 277.672C409.016 277.672 420.899 273.29 420.899 269.19C420.899 265.09 409.016 260.708 391.327 260.708Z" fill="#D1D3D4"/>
<path d="M368.576 243.217L367.855 243.352C365.673 243.678 363.689 244.798 362.28 246.497C361.491 247.705 361.055 249.11 361.023 250.553C360.99 251.996 361.363 253.419 362.097 254.661C365.3 260.438 373.099 262.005 379.114 262.605C379.965 262.744 380.837 262.677 381.657 262.409C382.061 262.271 382.414 262.011 382.665 261.665C382.917 261.319 383.056 260.903 383.063 260.475C383.011 260.123 382.872 259.79 382.659 259.505C382.445 259.221 382.164 258.995 381.84 258.847C381.21 258.555 380.537 258.365 379.848 258.284C376.107 257.672 372.17 257.219 368.747 255.494C366.755 254.478 363.967 252.164 365.422 249.668C365.931 248.877 366.663 248.255 367.525 247.881C370.96 246.24 374.224 247.489 377.61 248.493C377.857 248.583 378.119 248.62 378.381 248.603C378.704 248.514 378.984 248.308 379.167 248.026C379.349 247.744 379.422 247.405 379.371 247.073C379.261 245.592 377.782 244.625 376.388 244.074C373.899 243.128 371.211 242.833 368.576 243.217Z" fill="white"/>
<path d="M380.129 263.278C379.774 263.277 379.418 263.256 379.065 263.217C369.884 262.348 364.163 259.655 361.559 254.955C360.766 253.611 360.367 252.07 360.408 250.509C360.449 248.949 360.929 247.431 361.791 246.13C363.291 244.313 365.405 243.11 367.733 242.752L368.491 242.617C371.244 242.206 374.057 242.514 376.657 243.511C377.879 243.964 379.872 245.029 380.031 247.024C380.093 247.512 379.972 248.005 379.692 248.41C379.412 248.814 378.993 249.101 378.515 249.215C378.167 249.238 377.818 249.192 377.488 249.08L376.608 248.811C373.601 247.893 370.765 247.036 367.843 248.431C367.086 248.752 366.442 249.294 365.997 249.986C365.838 250.238 365.734 250.522 365.694 250.817C365.654 251.113 365.678 251.414 365.764 251.699C366.435 253.146 367.608 254.298 369.065 254.943C372.101 256.266 375.321 257.116 378.613 257.464L379.994 257.685C380.754 257.768 381.493 257.979 382.183 258.309C382.674 258.494 383.093 258.832 383.377 259.273C383.661 259.715 383.796 260.236 383.762 260.76C383.728 261.284 383.526 261.784 383.187 262.184C382.847 262.585 382.388 262.865 381.877 262.984C381.317 263.188 380.725 263.288 380.129 263.278ZM368.674 243.829L367.977 243.952C365.947 244.254 364.096 245.285 362.769 246.852C362.048 247.967 361.653 249.263 361.629 250.591C361.606 251.919 361.954 253.227 362.635 254.368C365.019 258.676 370.434 261.173 379.175 261.993C379.926 262.117 380.696 262.067 381.425 261.846C381.708 261.75 381.957 261.572 382.14 261.335C382.323 261.097 382.431 260.811 382.452 260.512C382.412 260.268 382.313 260.038 382.164 259.842C382.015 259.646 381.82 259.489 381.596 259.386C381.027 259.126 380.42 258.961 379.799 258.896L378.417 258.676C375 258.312 371.66 257.42 368.515 256.032C366.755 255.246 365.354 253.826 364.591 252.054C364.457 251.606 364.419 251.134 364.48 250.67C364.541 250.206 364.7 249.76 364.945 249.362C365.512 248.459 366.339 247.75 367.317 247.33C370.667 245.726 373.87 246.693 376.963 247.636L377.843 247.905C378.007 247.965 378.181 247.994 378.356 247.991C378.65 247.991 378.833 247.489 378.809 247.122C378.711 245.751 376.963 244.943 376.217 244.674C373.815 243.755 371.217 243.473 368.674 243.854V243.829Z" fill="#231F20"/>
<path d="M371.4 237.024C371.4 237.024 377.048 265.249 377.513 266.95C377.977 268.651 391.327 275.64 401.963 268.774L411.266 239.925L371.4 237.024Z" fill="white"/>
<path d="M391.559 272.36C388.364 272.334 385.199 271.728 382.219 270.573C379.872 269.667 377.207 268.198 376.914 267.109C376.461 265.408 371.033 238.309 370.801 237.146C370.779 237.055 370.779 236.959 370.802 236.867C370.824 236.775 370.869 236.69 370.931 236.62C370.994 236.549 371.072 236.494 371.16 236.46C371.248 236.426 371.343 236.414 371.437 236.424L411.303 239.386C411.396 239.391 411.486 239.417 411.568 239.462C411.649 239.508 411.718 239.572 411.771 239.649C411.823 239.726 411.856 239.815 411.868 239.907C411.881 240 411.871 240.094 411.84 240.182L402.537 269.031C402.492 269.164 402.401 269.276 402.281 269.349C399.077 271.379 395.35 272.425 391.559 272.36ZM372.158 237.697C373.075 242.287 377.696 265.285 378.099 266.791C378.271 267.195 380.471 268.835 384.371 270.022C388.038 271.136 395.056 272.397 401.486 268.382L410.484 240.488L372.158 237.697Z" fill="#231F20"/>
<path d="M411.362 238.67C411.558 233.888 402.775 229.644 391.746 229.191C380.716 228.738 371.616 232.247 371.42 237.029C371.224 241.811 380.006 246.054 391.036 246.508C402.065 246.961 411.166 243.452 411.362 238.67Z" fill="#231F20"/>
<path d="M392.941 247.158C392.293 247.158 391.645 247.158 390.997 247.158C379.444 246.693 370.569 242.262 370.789 237.048C371.009 231.834 380.214 228.162 391.755 228.64C403.295 229.117 412.171 233.536 411.95 238.75C411.853 241.32 409.505 243.646 405.459 245.163C401.44 246.576 397.199 247.252 392.941 247.158ZM389.872 229.766C380.178 229.766 372.17 232.948 371.999 237.11C371.828 241.467 380.557 245.518 391.046 245.947C395.808 246.225 400.578 245.555 405.08 243.976C408.625 242.617 410.704 240.671 410.789 238.652C410.972 234.282 402.232 230.231 391.755 229.802L389.872 229.766Z" fill="#231F20"/>
<path d="M343.552 158.604H278.869C278.707 158.604 278.551 158.54 278.437 158.425C278.322 158.31 278.258 158.154 278.258 157.992V138.874C278.261 138.712 278.326 138.559 278.44 138.444C278.554 138.33 278.708 138.265 278.869 138.262H343.552C343.714 138.262 343.869 138.326 343.984 138.441C344.098 138.556 344.163 138.711 344.163 138.874V158.029C344.153 158.185 344.085 158.331 343.971 158.438C343.858 158.545 343.708 158.604 343.552 158.604ZM279.48 157.38H342.94V139.486H279.48V157.38Z" fill="white"/>
<path d="M463.491 294.085H131.497V306.9H463.491V294.085Z" fill="white"/>
<path d="M463.503 307.512H131.497C131.335 307.512 131.179 307.448 131.065 307.333C130.95 307.218 130.885 307.063 130.885 306.9V294.085C130.889 293.924 130.954 293.77 131.068 293.656C131.182 293.542 131.336 293.477 131.497 293.473H463.503C463.664 293.477 463.818 293.542 463.932 293.656C464.046 293.77 464.111 293.924 464.115 294.085V306.9C464.115 307.063 464.05 307.218 463.935 307.333C463.821 307.448 463.665 307.512 463.503 307.512ZM132.108 306.288H462.892V294.697H132.108V306.288Z" fill="#D1D3D4"/>
<path d="M411.254 174.406C411.093 174.399 410.94 174.331 410.829 174.214C410.717 174.098 410.655 173.943 410.655 173.781C410.655 172.374 411.547 139.192 415.202 127.699C418.858 116.206 425.716 111.42 425.997 111.236C426.132 111.146 426.297 111.112 426.456 111.143C426.615 111.174 426.756 111.267 426.847 111.402C426.937 111.536 426.971 111.702 426.94 111.861C426.909 112.021 426.816 112.161 426.682 112.252C426.608 112.252 419.921 116.891 416.364 128.066C412.806 139.241 411.889 173.463 411.877 173.806C411.876 173.886 411.858 173.965 411.826 174.039C411.794 174.113 411.747 174.179 411.69 174.235C411.632 174.291 411.563 174.334 411.489 174.364C411.414 174.393 411.334 174.407 411.254 174.406Z" fill="white"/>
</g>
<defs>
<clipPath id="clip0_50_195">
<rect width="595" height="328" rx="10" fill="white"/>
</clipPath>
</defs>
</svg>
